<svg width="3091" height="1200" viewBox="0 0 3091 1200" fill="none" xmlns="http://www.w3.org/2000/svg">
<mask id="mask0_287_77" style="mask-type:alpha" maskUnits="userSpaceOnUse" x="0" y="0" width="3091" height="1200">
<rect width="3091" height="1200" fill="#D9D9D9"/>
</mask>
<g mask="url(#mask0_287_77)">
<g filter="url(#filter0_d_287_77)">
<rect width="39.7196" height="28.3448" transform="matrix(0.948425 0.317002 -0.210015 0.977698 1362.64 1101.36)" fill="#8D0080" fill-opacity="0.7" shape-rendering="crispEdges"/>
</g>
<g filter="url(#filter1_d_287_77)">
<path d="M-13.0005 121.784C44.7995 102.564 102.6 102.564 160.4 121.784C218.2 141.005 276 141.005 333.8 121.784C391.6 102.564 449.4 102.564 507.2 121.784C565 141.005 622.8 141.005 680.6 121.784C738.4 102.564 796.2 102.564 854 121.784C911.8 141.005 969.6 141.005 1027.4 121.784C1085.2 102.564 1143 102.564 1200.8 121.784C1258.6 141.005 1316.4 141.005 1374.2 121.784C1432 102.564 1489.8 102.564 1547.6 121.784C1605.4 141.005 1663.2 141.005 1721 121.784" stroke="#FFB5F8" stroke-width="127"/>
<path d="M-13.0005 141.667C44.7995 122.446 102.6 122.446 160.4 141.667C218.2 160.887 276 160.887 333.8 141.667C391.6 122.446 449.4 122.446 507.2 141.667C565 160.887 622.8 160.887 680.6 141.667C738.4 122.446 796.2 122.446 854 141.667C911.8 160.887 969.6 160.887 1027.4 141.667C1085.2 122.446 1143 122.446 1200.8 141.667C1258.6 160.887 1316.4 160.887 1374.2 141.667C1432 122.446 1489.8 122.446 1547.6 141.667C1605.4 160.887 1663.2 160.887 1721 141.667" stroke="#FFDEFC" stroke-width="127"/>
<path d="M-13.0005 161.55C44.7995 142.33 102.6 142.33 160.4 161.55C218.2 180.77 276 180.77 333.8 161.55C391.6 142.33 449.4 142.33 507.2 161.55C565 180.77 622.8 180.77 680.6 161.55C738.4 142.33 796.2 142.33 854 161.55C911.8 180.77 969.6 180.77 1027.4 161.55C1085.2 142.33 1143 142.33 1200.8 161.55C1258.6 180.77 1316.4 180.77 1374.2 161.55C1432 142.33 1489.8 142.33 1547.6 161.55C1605.4 180.77 1663.2 180.77 1721 161.55" stroke="white" stroke-width="127"/>
</g>
<g filter="url(#filter2_d_287_77)">
<path d="M-357 1072.69C-299.2 1088.6 -241.4 1088.6 -183.6 1072.69C-125.8 1056.78 -68.0005 1056.78 -10.2005 1072.69C47.5995 1088.6 105.4 1088.6 163.2 1072.69C221 1056.78 278.8 1056.78 336.6 1072.69C394.4 1088.6 452.2 1088.6 510 1072.69C567.8 1056.78 625.6 1056.78 683.4 1072.69C741.2 1088.6 799 1088.6 856.8 1072.69C914.6 1056.78 972.4 1056.78 1030.2 1072.69C1088 1088.6 1145.8 1088.6 1203.6 1072.69C1261.4 1056.78 1319.2 1056.78 1377 1072.69" stroke="#FFB5F8" stroke-width="127"/>
<path d="M-357 1048.83C-299.2 1064.74 -241.4 1064.74 -183.6 1048.83C-125.8 1032.93 -68.0005 1032.93 -10.2005 1048.83C47.5995 1064.74 105.4 1064.74 163.2 1048.83C221 1032.93 278.8 1032.93 336.6 1048.83C394.4 1064.74 452.2 1064.74 510 1048.83C567.8 1032.93 625.6 1032.93 683.4 1048.83C741.2 1064.74 799 1064.74 856.8 1048.83C914.6 1032.93 972.4 1032.93 1030.2 1048.83C1088 1064.74 1145.8 1064.74 1203.6 1048.83C1261.4 1032.93 1319.2 1032.93 1377 1048.83" stroke="#FFDEFC" stroke-width="127"/>
<path d="M-357 1024.97C-299.2 1040.88 -241.4 1040.88 -183.6 1024.97C-125.8 1009.07 -68.0005 1009.07 -10.2005 1024.97C47.5995 1040.88 105.4 1040.88 163.2 1024.97C221 1009.07 278.8 1009.07 336.6 1024.97C394.4 1040.88 452.2 1040.88 510 1024.97C567.8 1009.07 625.6 1009.07 683.4 1024.97C741.2 1040.88 799 1040.88 856.8 1024.97C914.6 1009.07 972.4 1009.07 1030.2 1024.97C1088 1040.88 1145.8 1040.88 1203.6 1024.97C1261.4 1009.07 1319.2 1009.07 1377 1024.97" stroke="white" stroke-width="127"/>
</g>
<g filter="url(#filter3_d_287_77)">
<path d="M1387 1072.69C1444.8 1088.6 1502.6 1088.6 1560.4 1072.69C1618.2 1056.78 1676 1056.78 1733.8 1072.69C1791.6 1088.6 1849.4 1088.6 1907.2 1072.69C1965 1056.78 2022.8 1056.78 2080.6 1072.69C2138.4 1088.6 2196.2 1088.6 2254 1072.69C2311.8 1056.78 2369.6 1056.78 2427.4 1072.69C2485.2 1088.6 2543 1088.6 2600.8 1072.69C2658.6 1056.78 2716.4 1056.78 2774.2 1072.69C2832 1088.6 2889.8 1088.6 2947.6 1072.69C3005.4 1056.78 3063.2 1056.78 3121 1072.69" stroke="#FFB5F8" stroke-width="127"/>
<path d="M1387 1048.83C1444.8 1064.74 1502.6 1064.74 1560.4 1048.83C1618.2 1032.93 1676 1032.93 1733.8 1048.83C1791.6 1064.74 1849.4 1064.74 1907.2 1048.83C1965 1032.93 2022.8 1032.93 2080.6 1048.83C2138.4 1064.74 2196.2 1064.74 2254 1048.83C2311.8 1032.93 2369.6 1032.93 2427.4 1048.83C2485.2 1064.74 2543 1064.74 2600.8 1048.83C2658.6 1032.93 2716.4 1032.93 2774.2 1048.83C2832 1064.74 2889.8 1064.74 2947.6 1048.83C3005.4 1032.93 3063.2 1032.93 3121 1048.83" stroke="#FFDEFC" stroke-width="127"/>
<path d="M1387 1024.97C1444.8 1040.88 1502.6 1040.88 1560.4 1024.97C1618.2 1009.07 1676 1009.07 1733.8 1024.97C1791.6 1040.88 1849.4 1040.88 1907.2 1024.97C1965 1009.07 2022.8 1009.07 2080.6 1024.97C2138.4 1040.88 2196.2 1040.88 2254 1024.97C2311.8 1009.07 2369.6 1009.07 2427.4 1024.97C2485.2 1040.88 2543 1040.88 2600.8 1024.97C2658.6 1009.07 2716.4 1009.07 2774.2 1024.97C2832 1040.88 2889.8 1040.88 2947.6 1024.97C3005.4 1009.07 3063.2 1009.07 3121 1024.97" stroke="white" stroke-width="127"/>
</g>
<g filter="url(#filter4_d_287_77)">
<path d="M1387 121.784C1444.8 102.564 1502.6 102.564 1560.4 121.784C1618.2 141.005 1676 141.005 1733.8 121.784C1791.6 102.564 1849.4 102.564 1907.2 121.784C1965 141.005 2022.8 141.005 2080.6 121.784C2138.4 102.564 2196.2 102.564 2254 121.784C2311.8 141.005 2369.6 141.005 2427.4 121.784C2485.2 102.564 2543 102.564 2600.8 121.784C2658.6 141.005 2716.4 141.005 2774.2 121.784C2832 102.564 2889.8 102.564 2947.6 121.784C3005.4 141.005 3063.2 141.005 3121 121.784" stroke="#FFB5F8" stroke-width="127"/>
<path d="M1387 141.667C1444.8 122.446 1502.6 122.446 1560.4 141.667C1618.2 160.887 1676 160.887 1733.8 141.667C1791.6 122.446 1849.4 122.446 1907.2 141.667C1965 160.887 2022.8 160.887 2080.6 141.667C2138.4 122.446 2196.2 122.446 2254 141.667C2311.8 160.887 2369.6 160.887 2427.4 141.667C2485.2 122.446 2543 122.446 2600.8 141.667C2658.6 160.887 2716.4 160.887 2774.2 141.667C2832 122.446 2889.8 122.446 2947.6 141.667C3005.4 160.887 3063.2 160.887 3121 141.667" stroke="#FFDEFC" stroke-width="127"/>
<path d="M1387 161.55C1444.8 142.33 1502.6 142.33 1560.4 161.55C1618.2 180.77 1676 180.77 1733.8 161.55C1791.6 142.33 1849.4 142.33 1907.2 161.55C1965 180.77 2022.8 180.77 2080.6 161.55C2138.4 142.33 2196.2 142.33 2254 161.55C2311.8 180.77 2369.6 180.77 2427.4 161.55C2485.2 142.33 2543 142.33 2600.8 161.55C2658.6 180.77 2716.4 180.77 2774.2 161.55C2832 142.33 2889.8 142.33 2947.6 161.55C3005.4 180.77 3063.2 180.77 3121 161.55" stroke="white" stroke-width="127"/>
</g>
<mask id="mask1_287_77" style="mask-type:alpha" maskUnits="userSpaceOnUse" x="1045" y="943" width="608" height="284">
<rect x="1045" y="943.452" width="608" height="283.334" fill="#D9D9D9"/>
</mask>
<g mask="url(#mask1_287_77)">
<path d="M-13.0005 1072.69C44.7995 1088.6 102.6 1088.6 160.4 1072.69C218.2 1056.79 276 1056.79 333.8 1072.69C391.6 1088.6 449.4 1088.6 507.2 1072.69C565 1056.79 622.8 1056.79 680.6 1072.69C738.4 1088.6 796.2 1088.6 854 1072.69C911.8 1056.79 969.6 1056.79 1027.4 1072.69C1085.2 1088.6 1143 1088.6 1200.8 1072.69C1258.6 1056.79 1316.4 1056.79 1374.2 1072.69C1432 1088.6 1489.8 1088.6 1547.6 1072.69C1605.4 1056.79 1663.2 1056.79 1721 1072.69" stroke="#FFB5F8" stroke-width="127"/>
<path d="M-13.0005 1048.83C44.7995 1064.74 102.6 1064.74 160.4 1048.83C218.2 1032.93 276 1032.93 333.8 1048.83C391.6 1064.74 449.4 1064.74 507.2 1048.83C565 1032.93 622.8 1032.93 680.6 1048.83C738.4 1064.74 796.2 1064.74 854 1048.83C911.8 1032.93 969.6 1032.93 1027.4 1048.83C1085.2 1064.74 1143 1064.74 1200.8 1048.83C1258.6 1032.93 1316.4 1032.93 1374.2 1048.83C1432 1064.74 1489.8 1064.74 1547.6 1048.83C1605.4 1032.93 1663.2 1032.93 1721 1048.83" stroke="#FFDEFC" stroke-width="127"/>
<path d="M-13.0005 1024.97C44.7995 1040.88 102.6 1040.88 160.4 1024.97C218.2 1009.07 276 1009.07 333.8 1024.97C391.6 1040.88 449.4 1040.88 507.2 1024.97C565 1009.07 622.8 1009.07 680.6 1024.97C738.4 1040.88 796.2 1040.88 854 1024.97C911.8 1009.07 969.6 1009.07 1027.4 1024.97C1085.2 1040.88 1143 1040.88 1200.8 1024.97C1258.6 1009.07 1316.4 1009.07 1374.2 1024.97C1432 1040.88 1489.8 1040.88 1547.6 1024.97C1605.4 1009.07 1663.2 1009.07 1721 1024.97" stroke="white" stroke-width="127"/>
</g>
<mask id="mask2_287_77" style="mask-type:alpha" maskUnits="userSpaceOnUse" x="1100" y="-139" width="788" height="480">
<rect x="1100" y="-138.187" width="788" height="478.188" fill="#D9D9D9"/>
</mask>
<g mask="url(#mask2_287_77)">
<path d="M677 121.784C734.8 102.564 792.6 102.564 850.4 121.784C908.2 141.005 966 141.005 1023.8 121.784C1081.6 102.564 1139.4 102.564 1197.2 121.784C1255 141.005 1312.8 141.005 1370.6 121.784C1428.4 102.564 1486.2 102.564 1544 121.784C1601.8 141.005 1659.6 141.005 1717.4 121.784C1775.2 102.564 1833 102.564 1890.8 121.784C1948.6 141.005 2006.4 141.005 2064.2 121.784C2122 102.564 2179.8 102.564 2237.6 121.784C2295.4 141.005 2353.2 141.005 2411 121.784" stroke="#FFB5F8" stroke-width="127"/>
<path d="M677 141.667C734.8 122.446 792.6 122.446 850.4 141.667C908.2 160.887 966 160.887 1023.8 141.667C1081.6 122.446 1139.4 122.446 1197.2 141.667C1255 160.887 1312.8 160.887 1370.6 141.667C1428.4 122.446 1486.2 122.446 1544 141.667C1601.8 160.887 1659.6 160.887 1717.4 141.667C1775.2 122.446 1833 122.446 1890.8 141.667C1948.6 160.887 2006.4 160.887 2064.2 141.667C2122 122.446 2179.8 122.446 2237.6 141.667C2295.4 160.887 2353.2 160.887 2411 141.667" stroke="#FFDEFC" stroke-width="127"/>
<path d="M677 161.55C734.8 142.33 792.6 142.33 850.4 161.55C908.2 180.77 966 180.77 1023.8 161.55C1081.6 142.33 1139.4 142.33 1197.2 161.55C1255 180.77 1312.8 180.77 1370.6 161.55C1428.4 142.33 1486.2 142.33 1544 161.55C1601.8 180.77 1659.6 180.77 1717.4 161.55C1775.2 142.33 1833 142.33 1890.8 161.55C1948.6 180.77 2006.4 180.77 2064.2 161.55C2122 142.33 2179.8 142.33 2237.6 161.55C2295.4 180.77 2353.2 180.77 2411 161.55" stroke="white" stroke-width="127"/>
</g>
<rect x="-9" y="156.082" width="3130" height="880.821" fill="white"/>
</g>
<defs>
<filter id="filter0_d_287_77" x="1336.69" y="1085.36" width="83.624" height="80.3038" filterUnits="userSpaceOnUse" color-interpolation-filters="sRGB">
<feFlood flood-opacity="0" result="BackgroundImageFix"/>
<feColorMatrix in="SourceAlpha" type="matrix" values="0 0 0 0 0 0 0 0 0 0 0 0 0 0 0 0 0 0 127 0" result="hardAlpha"/>
<feOffset dy="4"/>
<feGaussianBlur stdDeviation="10"/>
<feComposite in2="hardAlpha" operator="out"/>
<feColorMatrix type="matrix" values="0 0 0 0 0.552941 0 0 0 0 0 0 0 0 0 0.501961 0 0 0 0.7 0"/>
<feBlend mode="normal" in2="BackgroundImageFix" result="effect1_dropShadow_287_77"/>
<feBlend mode="normal" in="SourceGraphic" in2="effect1_dropShadow_287_77" result="shape"/>
</filter>
<filter id="filter1_d_287_77" x="-73.0374" y="15.869" width="1814.07" height="235.596" filterUnits="userSpaceOnUse" color-interpolation-filters="sRGB">
<feFlood flood-opacity="0" result="BackgroundImageFix"/>
<feColorMatrix in="SourceAlpha" type="matrix" values="0 0 0 0 0 0 0 0 0 0 0 0 0 0 0 0 0 0 127 0" result="hardAlpha"/>
<feOffset dx="-20" dy="-8"/>
<feGaussianBlur stdDeviation="10"/>
<feComposite in2="hardAlpha" operator="out"/>
<feColorMatrix type="matrix" values="0 0 0 0 1 0 0 0 0 0.937429 0 0 0 0 0.994161 0 0 0 1 0"/>
<feBlend mode="normal" in2="BackgroundImageFix" result="effect1_dropShadow_287_77"/>
<feBlend mode="normal" in="SourceGraphic" in2="effect1_dropShadow_287_77" result="shape"/>
</filter>
<filter id="filter2_d_287_77" x="-383.849" y="934.542" width="1807.7" height="238.579" filterUnits="userSpaceOnUse" color-interpolation-filters="sRGB">
<feFlood flood-opacity="0" result="BackgroundImageFix"/>
<feColorMatrix in="SourceAlpha" type="matrix" values="0 0 0 0 0 0 0 0 0 0 0 0 0 0 0 0 0 0 127 0" result="hardAlpha"/>
<feOffset dx="10" dy="5"/>
<feGaussianBlur stdDeviation="10"/>
<feComposite in2="hardAlpha" operator="out"/>
<feColorMatrix type="matrix" values="0 0 0 0 0.551936 0 0 0 0 0 0 0 0 0 0.500424 0 0 0 0.7 0"/>
<feBlend mode="normal" in2="BackgroundImageFix" result="effect1_dropShadow_287_77"/>
<feBlend mode="normal" in="SourceGraphic" in2="effect1_dropShadow_287_77" result="shape"/>
</filter>
<filter id="filter3_d_287_77" x="1360.15" y="934.542" width="1807.7" height="238.579" filterUnits="userSpaceOnUse" color-interpolation-filters="sRGB">
<feFlood flood-opacity="0" result="BackgroundImageFix"/>
<feColorMatrix in="SourceAlpha" type="matrix" values="0 0 0 0 0 0 0 0 0 0 0 0 0 0 0 0 0 0 127 0" result="hardAlpha"/>
<feOffset dx="10" dy="5"/>
<feGaussianBlur stdDeviation="10"/>
<feComposite in2="hardAlpha" operator="out"/>
<feColorMatrix type="matrix" values="0 0 0 0 0.551936 0 0 0 0 0 0 0 0 0 0.500424 0 0 0 0.7 0"/>
<feBlend mode="normal" in2="BackgroundImageFix" result="effect1_dropShadow_287_77"/>
<feBlend mode="normal" in="SourceGraphic" in2="effect1_dropShadow_287_77" result="shape"/>
</filter>
<filter id="filter4_d_287_77" x="1326.96" y="15.869" width="1814.07" height="235.596" filterUnits="userSpaceOnUse" color-interpolation-filters="sRGB">
<feFlood flood-opacity="0" result="BackgroundImageFix"/>
<feColorMatrix in="SourceAlpha" type="matrix" values="0 0 0 0 0 0 0 0 0 0 0 0 0 0 0 0 0 0 127 0" result="hardAlpha"/>
<feOffset dx="-20" dy="-8"/>
<feGaussianBlur stdDeviation="10"/>
<feComposite in2="hardAlpha" operator="out"/>
<feColorMatrix type="matrix" values="0 0 0 0 1 0 0 0 0 0.937429 0 0 0 0 0.994161 0 0 0 1 0"/>
<feBlend mode="normal" in2="BackgroundImageFix" result="effect1_dropShadow_287_77"/>
<feBlend mode="normal" in="SourceGraphic" in2="effect1_dropShadow_287_77" result="shape"/>
</filter>
</defs>
</svg>
