<svg width="1043" height="25" viewBox="0 0 1043 25" fill="none" xmlns="http://www.w3.org/2000/svg">
<path d="M6 12.5C40.3667 3.83333 74.7333 3.83333 109.1 12.5C143.467 21.1667 177.833 21.1667 212.2 12.5C246.567 3.83333 280.933 3.83333 315.3 12.5C349.667 21.1667 384.033 21.1667 418.4 12.5C452.767 3.83333 487.133 3.83333 521.5 12.5C555.867 21.1667 590.233 21.1667 624.6 12.5C658.967 3.83333 693.333 3.83333 727.7 12.5C762.067 21.1667 796.433 21.1667 830.8 12.5C865.167 3.83333 899.533 3.83333 933.9 12.5C968.267 21.1667 1002.63 21.1667 1037 12.5" stroke="#4CBFFF" stroke-width="12" stroke-linecap="round" stroke-dasharray="1 30"/>
</svg>
