<svg width="375" height="429" viewBox="0 0 375 429" fill="none" xmlns="http://www.w3.org/2000/svg">
<mask id="mask0_195_190" style="mask-type:alpha" maskUnits="userSpaceOnUse" x="0" y="0" width="375" height="429">
<rect width="375" height="429" fill="#D9D9D9"/>
</mask>
<g mask="url(#mask0_195_190)">
<g filter="url(#filter0_dii_195_190)">
<path d="M227.821 332.37C323.378 306.765 382.219 214.764 358.571 126.509C334.923 38.2538 237.965 -12.0018 142.407 13.6028C46.8499 39.2073 -11.9904 131.209 11.6575 219.464C35.3053 307.719 132.263 357.974 227.821 332.37Z" fill="#FF91F4" stroke="black" stroke-width="6"/>
<mask id="mask1_195_190" style="mask-type:alpha" maskUnits="userSpaceOnUse" x="197" y="321" width="88" height="114">
<rect x="197.055" y="338.393" width="64.0329" height="99.6067" transform="rotate(-15 197.055 338.393)" fill="#D9D9D9"/>
</mask>
<g mask="url(#mask1_195_190)">
<rect x="200.658" y="290.127" width="34.4591" height="134.066" rx="17.2295" transform="rotate(-15 200.658 290.127)" fill="#FF91F4" stroke="black" stroke-width="6"/>
</g>
<rect x="204.333" y="292.248" width="28.4591" height="128.066" rx="14.2295" transform="rotate(-15 204.333 292.248)" fill="#FF91F4"/>
<circle cx="246.828" cy="395.03" r="5.92897" transform="rotate(-15 246.828 395.03)" fill="white"/>
</g>
<mask id="path-7-outside-1_195_190" maskUnits="userSpaceOnUse" x="89.3771" y="64.7338" width="200.965" height="231.37" fill="black">
<rect fill="white" x="89.3771" y="64.7338" width="200.965" height="231.37"/>
<path d="M163.432 186.699C163.002 186.451 162.733 186.128 162.627 185.732C162.521 185.336 162.598 184.83 162.857 184.215L180.005 150.412L151.65 158.009C150.292 158.373 149.179 158.52 148.31 158.449C147.484 158.307 146.804 158.034 146.271 157.631C145.795 157.213 145.417 156.707 145.137 156.115C144.914 155.508 144.726 154.921 144.574 154.355L138.933 133.301C138.66 132.282 138.834 131.234 139.456 130.158C140.119 129.01 141.412 128.178 143.337 127.662L203.698 111.489C205.735 110.943 207.371 111.05 208.606 111.811C209.842 112.572 210.641 113.632 211.005 114.99C211.551 117.028 211.238 119.143 210.067 121.338L186.087 165.979C191.479 164.595 196.757 164.03 201.921 164.285C207.141 164.524 211.936 165.665 216.305 167.71C220.731 169.739 224.59 172.708 227.882 176.618C231.174 180.528 233.617 185.455 235.209 191.397C236.741 197.114 236.891 202.654 235.659 208.019C234.428 213.384 232.08 218.32 228.617 222.827C225.226 227.375 220.837 231.372 215.451 234.817C210.122 238.246 204.062 240.871 197.27 242.691C194.95 243.313 192.486 243.852 189.878 244.308C187.327 244.749 184.682 245.063 181.942 245.251C179.274 245.481 176.539 245.577 173.739 245.539C170.953 245.557 168.243 245.404 165.608 245.079C165.295 245.041 164.959 244.919 164.6 244.712C164.313 244.546 164.116 244.265 164.01 243.869C163.98 243.756 163.976 243.514 163.998 243.144L164.431 235.931C164.464 235.376 164.551 235.019 164.69 234.861C164.886 234.687 165.126 234.562 165.409 234.486C165.578 234.441 166.069 234.461 166.881 234.547C167.692 234.632 168.674 234.673 169.825 234.668C170.991 234.719 172.291 234.704 173.726 234.623C175.16 234.542 176.641 234.297 178.169 233.888C180.716 233.205 182.913 232.01 184.76 230.302C186.608 228.593 188.007 226.459 188.959 223.899C189.911 221.339 190.402 218.417 190.432 215.133C190.477 211.906 189.984 208.368 188.953 204.52C187.073 197.502 184.862 192.422 182.322 189.281C179.839 186.125 176.899 185.002 173.503 185.912C172.201 186.26 171.174 186.839 170.42 187.648C169.722 188.441 169.034 188.929 168.355 189.111C167.902 189.232 167.489 189.161 167.115 188.897L163.432 186.699ZM199.85 170.481C204.842 172.358 209.185 175.32 212.877 179.365C216.569 183.411 219.287 188.688 221.031 195.196C222.7 201.422 222.786 207.404 221.291 213.143C219.867 218.923 217.063 224.194 212.88 228.954C216.014 226.841 218.745 224.471 221.075 221.845C223.476 219.261 225.341 216.486 226.67 213.522C227.998 210.557 228.783 207.374 229.025 203.973C229.338 200.614 228.994 197.066 227.993 193.331C226.901 189.256 225.429 185.799 223.576 182.959C221.78 180.104 219.673 177.787 217.255 176.008C214.822 174.173 212.127 172.833 209.171 171.987C206.271 171.126 203.164 170.624 199.85 170.481Z"/>
</mask>
<path d="M163.432 186.699C163.002 186.451 162.733 186.128 162.627 185.732C162.521 185.336 162.598 184.83 162.857 184.215L180.005 150.412L151.65 158.009C150.292 158.373 149.179 158.52 148.31 158.449C147.484 158.307 146.804 158.034 146.271 157.631C145.795 157.213 145.417 156.707 145.137 156.115C144.914 155.508 144.726 154.921 144.574 154.355L138.933 133.301C138.66 132.282 138.834 131.234 139.456 130.158C140.119 129.01 141.412 128.178 143.337 127.662L203.698 111.489C205.735 110.943 207.371 111.05 208.606 111.811C209.842 112.572 210.641 113.632 211.005 114.99C211.551 117.028 211.238 119.143 210.067 121.338L186.087 165.979C191.479 164.595 196.757 164.03 201.921 164.285C207.141 164.524 211.936 165.665 216.305 167.71C220.731 169.739 224.59 172.708 227.882 176.618C231.174 180.528 233.617 185.455 235.209 191.397C236.741 197.114 236.891 202.654 235.659 208.019C234.428 213.384 232.08 218.32 228.617 222.827C225.226 227.375 220.837 231.372 215.451 234.817C210.122 238.246 204.062 240.871 197.27 242.691C194.95 243.313 192.486 243.852 189.878 244.308C187.327 244.749 184.682 245.063 181.942 245.251C179.274 245.481 176.539 245.577 173.739 245.539C170.953 245.557 168.243 245.404 165.608 245.079C165.295 245.041 164.959 244.919 164.6 244.712C164.313 244.546 164.116 244.265 164.01 243.869C163.98 243.756 163.976 243.514 163.998 243.144L164.431 235.931C164.464 235.376 164.551 235.019 164.69 234.861C164.886 234.687 165.126 234.562 165.409 234.486C165.578 234.441 166.069 234.461 166.881 234.547C167.692 234.632 168.674 234.673 169.825 234.668C170.991 234.719 172.291 234.704 173.726 234.623C175.16 234.542 176.641 234.297 178.169 233.888C180.716 233.205 182.913 232.01 184.76 230.302C186.608 228.593 188.007 226.459 188.959 223.899C189.911 221.339 190.402 218.417 190.432 215.133C190.477 211.906 189.984 208.368 188.953 204.52C187.073 197.502 184.862 192.422 182.322 189.281C179.839 186.125 176.899 185.002 173.503 185.912C172.201 186.26 171.174 186.839 170.42 187.648C169.722 188.441 169.034 188.929 168.355 189.111C167.902 189.232 167.489 189.161 167.115 188.897L163.432 186.699ZM199.85 170.481C204.842 172.358 209.185 175.32 212.877 179.365C216.569 183.411 219.287 188.688 221.031 195.196C222.7 201.422 222.786 207.404 221.291 213.143C219.867 218.923 217.063 224.194 212.88 228.954C216.014 226.841 218.745 224.471 221.075 221.845C223.476 219.261 225.341 216.486 226.67 213.522C227.998 210.557 228.783 207.374 229.025 203.973C229.338 200.614 228.994 197.066 227.993 193.331C226.901 189.256 225.429 185.799 223.576 182.959C221.78 180.104 219.673 177.787 217.255 176.008C214.822 174.173 212.127 172.833 209.171 171.987C206.271 171.126 203.164 170.624 199.85 170.481Z" fill="white"/>
<path d="M163.432 186.699L181.882 155.787C181.733 155.697 181.583 155.609 181.432 155.522L163.432 186.699ZM162.857 184.215L130.752 167.928C130.371 168.679 130.016 169.444 129.689 170.221L162.857 184.215ZM180.005 150.412L212.111 166.698C218.538 154.029 216.913 138.764 207.962 127.731C199.012 116.699 184.41 111.961 170.688 115.638L180.005 150.412ZM148.31 158.449L142.198 193.927C143.255 194.109 144.32 194.244 145.389 194.331L148.31 158.449ZM146.271 157.631L122.506 184.672C123.165 185.251 123.844 185.805 124.543 186.334L146.271 157.631ZM145.137 156.115L111.35 168.542C111.72 169.547 112.134 170.535 112.591 171.503L145.137 156.115ZM210.067 121.338L241.781 138.373C241.796 138.345 241.812 138.317 241.827 138.289L210.067 121.338ZM186.087 165.979L154.373 148.944C147.611 161.533 148.935 176.931 157.749 188.181C166.563 199.431 181.196 204.402 195.038 200.849L186.087 165.979ZM201.921 164.285L200.15 200.241C200.191 200.243 200.233 200.245 200.274 200.247L201.921 164.285ZM216.305 167.71L201.049 200.317C201.134 200.357 201.218 200.396 201.302 200.434L216.305 167.71ZM228.617 222.827L200.071 200.892C199.966 201.03 199.861 201.168 199.757 201.307L228.617 222.827ZM215.451 234.817L196.053 204.49C196.025 204.508 195.997 204.526 195.968 204.544L215.451 234.817ZM189.878 244.308L196.009 279.782C196.033 279.778 196.057 279.774 196.08 279.77L189.878 244.308ZM181.942 245.251L179.475 209.336C179.268 209.35 179.061 209.366 178.855 209.384L181.942 245.251ZM173.739 245.539L174.229 209.542C173.986 209.539 173.743 209.538 173.5 209.539L173.739 245.539ZM165.608 245.079L170.018 209.35C169.969 209.344 169.92 209.338 169.872 209.332L165.608 245.079ZM164.69 234.861L140.805 207.925C139.688 208.916 138.634 209.975 137.649 211.096L164.69 234.861ZM169.825 234.668L171.411 198.703C170.829 198.677 170.246 198.665 169.664 198.668L169.825 234.668ZM190.432 215.133L154.436 214.629C154.435 214.687 154.434 214.746 154.434 214.804L190.432 215.133ZM182.322 189.281L154.031 211.543C154.13 211.669 154.229 211.794 154.33 211.918L182.322 189.281ZM170.42 187.648L144.089 163.098C143.848 163.356 143.611 163.618 143.378 163.883L170.42 187.648ZM167.115 188.897L187.863 159.478C187.116 158.951 186.35 158.453 185.565 157.984L167.115 188.897ZM199.85 170.481L201.405 134.514C183.729 133.75 168.119 145.943 164.578 163.277C161.038 180.611 170.618 197.949 187.178 204.176L199.85 170.481ZM221.291 213.143L186.454 204.066C186.413 204.222 186.374 204.378 186.335 204.534L221.291 213.143ZM212.88 228.954L185.838 205.19C173.888 218.787 173.894 239.144 185.852 252.735C197.81 266.326 218.001 268.923 233.009 258.801L212.88 228.954ZM221.075 221.845L194.7 197.342C194.513 197.544 194.327 197.749 194.144 197.955L221.075 221.845ZM229.025 203.973L193.18 200.634C193.155 200.898 193.134 201.162 193.115 201.426L229.025 203.973ZM223.576 182.959L193.105 202.129C193.21 202.297 193.317 202.464 193.425 202.63L223.576 182.959ZM217.255 176.008L195.575 204.748C195.69 204.835 195.806 204.921 195.922 205.007L217.255 176.008ZM209.171 171.987L198.926 206.498C199.04 206.532 199.155 206.566 199.27 206.599L209.171 171.987ZM181.432 155.522C187.398 158.967 194.527 165.692 197.4 176.415L127.854 195.05C130.939 206.565 138.605 213.934 145.432 217.876L181.432 155.522ZM197.4 176.415C198.909 182.045 198.726 186.978 198.197 190.457C197.675 193.898 196.725 196.551 196.026 198.209L129.689 170.221C128.123 173.931 124.73 183.39 127.854 195.05L197.4 176.415ZM194.963 200.501L212.111 166.698L147.9 134.125L130.752 167.928L194.963 200.501ZM170.688 115.638L142.333 123.236L160.968 192.783L189.323 185.185L170.688 115.638ZM142.333 123.236C142.81 123.108 143.764 122.876 145.095 122.701C146.381 122.531 148.519 122.347 151.231 122.568L145.389 194.331C152.113 194.878 157.762 193.642 160.968 192.783L142.333 123.236ZM154.422 122.972C157.849 123.562 162.918 125.081 167.999 128.927L124.543 186.334C130.689 190.987 137.118 193.052 142.198 193.927L154.422 122.972ZM170.036 130.59C173.377 133.525 175.934 137.029 177.683 140.727L112.591 171.503C114.9 176.385 118.214 180.9 122.506 184.672L170.036 130.59ZM178.924 143.688C179.038 143.997 179.191 144.45 179.348 145.037L109.801 163.672C110.262 165.391 110.789 167.018 111.35 168.542L178.924 143.688ZM179.348 145.037L173.706 123.983L104.16 142.618L109.801 163.672L179.348 145.037ZM173.706 123.983C176.342 133.82 173.868 142.555 170.633 148.158L108.279 112.158C103.801 119.914 100.978 130.744 104.16 142.618L173.706 123.983ZM170.633 148.158C164.584 158.635 155.375 161.707 152.654 162.436L134.019 92.8889C127.45 94.6492 115.653 99.385 108.279 112.158L170.633 148.158ZM152.654 162.436L213.015 146.262L194.38 76.7153L134.019 92.8889L152.654 162.436ZM213.015 146.262C209.87 147.105 200.132 148.874 189.723 142.461L227.49 81.161C214.611 73.2265 201.6 74.7806 194.38 76.7153L213.015 146.262ZM189.723 142.461C186.882 140.711 183.934 138.225 181.395 134.86C178.844 131.478 177.176 127.831 176.232 124.307L245.778 105.673C242.953 95.1291 236.276 86.5744 227.49 81.161L189.723 142.461ZM176.232 124.307C175.213 120.507 175.014 116.581 175.567 112.843C176.104 109.206 177.258 106.353 178.308 104.386L241.827 138.289C246.477 129.576 249.104 118.082 245.778 105.673L176.232 124.307ZM178.353 104.302L154.373 148.944L217.802 183.015L241.781 138.373L178.353 104.302ZM195.038 200.849C197.199 200.294 198.861 200.178 200.15 200.241L203.691 128.328C194.653 127.883 185.759 128.896 177.137 131.11L195.038 200.849ZM200.274 200.247C200.763 200.269 201.019 200.323 201.093 200.341C201.161 200.357 201.13 200.355 201.049 200.317L231.561 135.102C222.574 130.897 213.105 128.759 203.568 128.322L200.274 200.247ZM201.302 200.434C201.047 200.317 200.786 200.16 200.564 199.989C200.347 199.822 200.279 199.729 200.344 199.805L255.421 153.432C248.88 145.663 240.806 139.339 231.308 134.985L201.302 200.434ZM200.344 199.805C200.002 199.399 199.89 199.157 199.929 199.235C199.975 199.329 200.185 199.778 200.436 200.715L269.982 182.08C267.298 172.062 262.733 162.116 255.421 153.432L200.344 199.805ZM200.436 200.715C200.521 201.032 200.49 201.047 200.484 200.815C200.481 200.706 200.484 200.568 200.5 200.41C200.515 200.251 200.541 200.1 200.572 199.964L270.747 216.074C273.391 204.553 272.918 193.037 269.982 182.08L200.436 200.715ZM200.572 199.964C200.536 200.12 200.488 200.35 200.071 200.892L257.163 244.762C263.673 236.29 268.319 226.648 270.747 216.074L200.572 199.964ZM199.757 201.307C199.27 201.96 198.24 203.091 196.053 204.49L234.85 265.143C243.434 259.652 251.181 252.79 257.477 244.346L199.757 201.307ZM195.968 204.544C194.097 205.749 191.534 206.958 187.953 207.918L206.588 277.464C216.59 274.784 226.147 270.744 234.934 265.089L195.968 204.544ZM187.953 207.918C186.757 208.238 185.34 208.555 183.676 208.846L196.08 279.77C199.632 279.148 203.142 278.388 206.588 277.464L187.953 207.918ZM183.747 208.834C182.48 209.053 181.06 209.227 179.475 209.336L184.409 281.167C188.303 280.899 192.175 280.445 196.009 279.782L183.747 208.834ZM178.855 209.384C177.429 209.507 175.89 209.565 174.229 209.542L173.248 281.535C177.188 281.589 181.118 281.455 185.029 281.119L178.855 209.384ZM173.5 209.539C172.193 209.548 171.038 209.475 170.018 209.35L161.198 280.807C165.448 281.332 169.714 281.566 173.977 281.538L173.5 209.539ZM169.872 209.332C175.659 210.022 179.995 212.031 182.6 213.535L146.6 275.889C149.923 277.807 154.931 280.06 161.345 280.825L169.872 209.332ZM182.6 213.535C192.453 219.223 197.04 228.046 198.783 234.551L129.237 253.186C131.192 260.484 136.173 269.869 146.6 275.889L182.6 213.535ZM198.783 234.551C199.48 237.152 199.725 239.261 199.824 240.286C199.938 241.462 199.969 242.411 199.979 242.997C199.999 244.145 199.952 244.995 199.933 245.301L128.063 240.987C128.022 241.663 127.966 242.819 127.989 244.208C128 244.853 128.019 248.64 129.237 253.186L198.783 234.551ZM199.933 245.301L200.366 238.088L128.496 233.774L128.063 240.987L199.933 245.301ZM200.366 238.088C200.313 238.974 200.154 241.059 199.51 243.719C199.176 245.096 198.596 247.12 197.569 249.464C196.573 251.739 194.8 255.134 191.731 258.625L137.649 211.096C131.859 217.684 130.072 224.544 129.532 226.776C128.801 229.792 128.582 232.333 128.496 233.774L200.366 238.088ZM188.575 261.796C184.118 265.748 179.197 268.061 174.726 269.259L156.091 199.713C151.054 201.062 145.655 203.625 140.805 207.925L188.575 261.796ZM174.726 269.259C172.504 269.855 170.68 270.111 169.646 270.231C168.521 270.362 167.594 270.414 166.975 270.438C165.769 270.484 164.846 270.454 164.425 270.437C163.94 270.417 163.583 270.39 163.411 270.376C163.225 270.361 163.112 270.349 163.094 270.347L170.667 198.746C169.923 198.668 168.735 198.553 167.383 198.497C166.717 198.47 165.588 198.438 164.217 198.491C163.358 198.524 160.081 198.644 156.091 199.713L174.726 269.259ZM163.094 270.347C165.627 270.615 168.005 270.676 169.986 270.667L169.664 198.668C169.545 198.668 169.565 198.666 169.704 198.672C169.835 198.677 170.17 198.694 170.667 198.746L163.094 270.347ZM168.238 270.633C170.846 270.748 173.379 270.7 175.755 270.566L171.696 198.681C171.464 198.694 171.323 198.697 171.266 198.697C171.207 198.698 171.26 198.696 171.411 198.703L168.238 270.633ZM175.755 270.566C179.886 270.333 183.813 269.645 187.486 268.661L168.852 199.114C169.469 198.949 170.434 198.752 171.696 198.681L175.755 270.566ZM187.486 268.661C195.397 266.541 202.857 262.6 209.201 256.734L160.32 203.87C162.969 201.42 166.035 199.869 168.852 199.114L187.486 268.661ZM209.201 256.734C215.543 250.869 219.954 243.837 222.703 236.445L155.216 211.354C156.061 209.081 157.672 206.318 160.32 203.87L209.201 256.734ZM222.703 236.445C225.369 229.273 226.37 222.098 226.431 215.463L154.434 214.804C154.434 214.736 154.453 213.405 155.216 211.354L222.703 236.445ZM226.429 215.637C226.53 208.427 225.423 201.535 223.726 195.202L154.18 213.837C154.355 214.492 154.42 214.882 154.441 215.028C154.461 215.173 154.43 215.027 154.436 214.629L226.429 215.637ZM223.726 195.202C221.419 186.592 217.621 175.679 210.314 166.644L154.33 211.918C153.604 211.021 153.181 210.334 152.996 210.013C152.806 209.685 152.779 209.59 152.875 209.811C152.968 210.025 153.143 210.457 153.378 211.151C153.611 211.842 153.883 212.728 154.18 213.837L223.726 195.202ZM210.614 167.019C206.441 161.716 200.118 155.887 191.103 152.442C181.728 148.861 172.31 148.961 164.186 151.138L182.821 220.685C178.092 221.952 171.842 222.16 165.406 219.701C159.331 217.38 155.72 213.69 154.031 211.543L210.614 167.019ZM164.186 151.138C157.799 152.85 150.359 156.372 144.089 163.098L196.751 212.197C191.988 217.306 186.604 219.671 182.821 220.685L164.186 151.138ZM143.378 163.883C145.163 161.852 150.207 156.704 159.037 154.338L177.672 223.884C187.861 221.154 194.282 215.03 197.461 211.413L143.378 163.883ZM159.037 154.338C163.248 153.209 168.317 152.724 173.817 153.671C179.344 154.623 184.085 156.813 187.863 159.478L146.366 218.317C155.713 224.909 167.189 226.693 177.672 223.884L159.037 154.338ZM185.565 157.984L181.882 155.787L144.982 217.612L148.665 219.81L185.565 157.984ZM187.178 204.176C187.028 204.12 186.801 204.011 186.567 203.851C186.336 203.694 186.244 203.587 186.287 203.634L239.467 155.096C232.051 146.971 222.98 140.718 212.523 136.785L187.178 204.176ZM186.287 203.634C185.823 203.125 185.655 202.791 185.681 202.842C185.718 202.915 185.963 203.414 186.258 204.514L255.805 185.879C252.907 175.065 247.839 164.269 239.467 155.096L186.287 203.634ZM186.258 204.514C186.322 204.752 186.345 204.892 186.352 204.941C186.359 204.99 186.352 204.963 186.351 204.872C186.35 204.78 186.354 204.651 186.373 204.497C186.392 204.342 186.42 204.195 186.454 204.066L256.128 222.22C259.33 209.931 258.943 197.589 255.805 185.879L186.258 204.514ZM186.335 204.534C186.333 204.544 186.334 204.537 186.34 204.52C186.347 204.504 186.348 204.503 186.338 204.524C186.323 204.551 186.202 204.775 185.838 205.19L239.921 252.719C247.668 243.904 253.351 233.508 256.246 221.752L186.335 204.534ZM233.009 258.801C238.46 255.125 243.521 250.791 248.006 245.735L194.144 197.955C193.97 198.151 193.567 198.557 192.75 199.108L233.009 258.801ZM247.449 246.348C252.299 241.128 256.449 235.098 259.52 228.247L193.819 198.797C194.233 197.874 194.653 197.393 194.7 197.342L247.449 246.348ZM259.52 228.247C262.659 221.246 264.41 213.918 264.935 206.521L193.115 201.426C193.157 200.831 193.338 199.869 193.819 198.797L259.52 228.247ZM264.869 207.313C265.632 199.132 264.712 191.277 262.766 184.014L193.22 202.648C193.275 202.856 193.044 202.096 193.18 200.634L264.869 207.313ZM262.766 184.014C260.92 177.124 258.093 169.981 253.726 163.288L193.425 202.63C193.085 202.107 192.95 201.791 192.948 201.787C192.946 201.782 192.974 201.848 193.023 201.992C193.073 202.137 193.14 202.353 193.22 202.648L262.766 184.014ZM254.047 163.788C250.144 157.584 245.063 151.773 238.588 147.01L195.922 205.007C194.282 203.8 193.416 202.623 193.105 202.129L254.047 163.788ZM238.934 147.268C232.937 142.744 226.243 139.426 219.072 137.375L199.27 206.599C198.012 206.239 196.707 205.602 195.575 204.748L238.934 147.268ZM219.417 137.476C213.433 135.699 207.384 134.773 201.405 134.514L198.296 206.447C198.945 206.475 199.11 206.553 198.926 206.498L219.417 137.476Z" fill="#FFBEF9" mask="url(#path-7-outside-1_195_190)"/>
<mask id="path-9-outside-2_195_190" maskUnits="userSpaceOnUse" x="118.771" y="94.1276" width="142.177" height="172.583" fill="black">
<rect fill="white" x="118.771" y="94.1276" width="142.177" height="172.583"/>
<path d="M163.432 186.699C163.002 186.451 162.733 186.128 162.627 185.732C162.521 185.336 162.598 184.83 162.857 184.215L180.005 150.412L151.65 158.009C150.292 158.373 149.179 158.52 148.31 158.449C147.484 158.307 146.804 158.034 146.271 157.631C145.795 157.213 145.417 156.707 145.137 156.115C144.914 155.508 144.726 154.921 144.574 154.355L138.933 133.301C138.66 132.282 138.834 131.234 139.456 130.158C140.119 129.01 141.412 128.178 143.337 127.662L203.698 111.489C205.735 110.943 207.371 111.05 208.606 111.811C209.842 112.572 210.641 113.632 211.005 114.99C211.551 117.028 211.238 119.143 210.067 121.338L186.087 165.979C191.479 164.595 196.757 164.03 201.921 164.285C207.141 164.524 211.936 165.665 216.305 167.71C220.731 169.739 224.59 172.708 227.882 176.618C231.174 180.528 233.617 185.455 235.209 191.397C236.741 197.114 236.891 202.654 235.659 208.019C234.428 213.384 232.08 218.32 228.617 222.827C225.226 227.375 220.837 231.372 215.451 234.817C210.122 238.246 204.062 240.871 197.27 242.691C194.95 243.313 192.486 243.852 189.878 244.308C187.327 244.749 184.682 245.063 181.942 245.251C179.274 245.481 176.539 245.577 173.739 245.539C170.953 245.557 168.243 245.404 165.608 245.079C165.295 245.041 164.959 244.919 164.6 244.712C164.313 244.546 164.116 244.265 164.01 243.869C163.98 243.756 163.976 243.514 163.998 243.144L164.431 235.931C164.464 235.376 164.551 235.019 164.69 234.861C164.886 234.687 165.126 234.562 165.409 234.486C165.578 234.441 166.069 234.461 166.881 234.547C167.692 234.632 168.674 234.673 169.825 234.668C170.991 234.719 172.291 234.704 173.726 234.623C175.16 234.542 176.641 234.297 178.169 233.888C180.716 233.205 182.913 232.01 184.76 230.302C186.608 228.593 188.007 226.459 188.959 223.899C189.911 221.339 190.402 218.417 190.432 215.133C190.477 211.906 189.984 208.368 188.953 204.52C187.073 197.502 184.862 192.422 182.322 189.281C179.839 186.125 176.899 185.002 173.503 185.912C172.201 186.26 171.174 186.839 170.42 187.648C169.722 188.441 169.034 188.929 168.355 189.111C167.902 189.232 167.489 189.161 167.115 188.897L163.432 186.699ZM199.85 170.481C204.842 172.358 209.185 175.32 212.877 179.365C216.569 183.411 219.287 188.688 221.031 195.196C222.7 201.422 222.786 207.404 221.291 213.143C219.867 218.923 217.063 224.194 212.88 228.954C216.014 226.841 218.745 224.471 221.075 221.845C223.476 219.261 225.341 216.486 226.67 213.522C227.998 210.557 228.783 207.374 229.025 203.973C229.338 200.614 228.994 197.066 227.993 193.331C226.901 189.256 225.429 185.799 223.576 182.959C221.78 180.104 219.673 177.787 217.255 176.008C214.822 174.173 212.127 172.833 209.171 171.987C206.271 171.126 203.164 170.624 199.85 170.481Z"/>
</mask>
<path d="M163.432 186.699C163.002 186.451 162.733 186.128 162.627 185.732C162.521 185.336 162.598 184.83 162.857 184.215L180.005 150.412L151.65 158.009C150.292 158.373 149.179 158.52 148.31 158.449C147.484 158.307 146.804 158.034 146.271 157.631C145.795 157.213 145.417 156.707 145.137 156.115C144.914 155.508 144.726 154.921 144.574 154.355L138.933 133.301C138.66 132.282 138.834 131.234 139.456 130.158C140.119 129.01 141.412 128.178 143.337 127.662L203.698 111.489C205.735 110.943 207.371 111.05 208.606 111.811C209.842 112.572 210.641 113.632 211.005 114.99C211.551 117.028 211.238 119.143 210.067 121.338L186.087 165.979C191.479 164.595 196.757 164.03 201.921 164.285C207.141 164.524 211.936 165.665 216.305 167.71C220.731 169.739 224.59 172.708 227.882 176.618C231.174 180.528 233.617 185.455 235.209 191.397C236.741 197.114 236.891 202.654 235.659 208.019C234.428 213.384 232.08 218.32 228.617 222.827C225.226 227.375 220.837 231.372 215.451 234.817C210.122 238.246 204.062 240.871 197.27 242.691C194.95 243.313 192.486 243.852 189.878 244.308C187.327 244.749 184.682 245.063 181.942 245.251C179.274 245.481 176.539 245.577 173.739 245.539C170.953 245.557 168.243 245.404 165.608 245.079C165.295 245.041 164.959 244.919 164.6 244.712C164.313 244.546 164.116 244.265 164.01 243.869C163.98 243.756 163.976 243.514 163.998 243.144L164.431 235.931C164.464 235.376 164.551 235.019 164.69 234.861C164.886 234.687 165.126 234.562 165.409 234.486C165.578 234.441 166.069 234.461 166.881 234.547C167.692 234.632 168.674 234.673 169.825 234.668C170.991 234.719 172.291 234.704 173.726 234.623C175.16 234.542 176.641 234.297 178.169 233.888C180.716 233.205 182.913 232.01 184.76 230.302C186.608 228.593 188.007 226.459 188.959 223.899C189.911 221.339 190.402 218.417 190.432 215.133C190.477 211.906 189.984 208.368 188.953 204.52C187.073 197.502 184.862 192.422 182.322 189.281C179.839 186.125 176.899 185.002 173.503 185.912C172.201 186.26 171.174 186.839 170.42 187.648C169.722 188.441 169.034 188.929 168.355 189.111C167.902 189.232 167.489 189.161 167.115 188.897L163.432 186.699ZM199.85 170.481C204.842 172.358 209.185 175.32 212.877 179.365C216.569 183.411 219.287 188.688 221.031 195.196C222.7 201.422 222.786 207.404 221.291 213.143C219.867 218.923 217.063 224.194 212.88 228.954C216.014 226.841 218.745 224.471 221.075 221.845C223.476 219.261 225.341 216.486 226.67 213.522C227.998 210.557 228.783 207.374 229.025 203.973C229.338 200.614 228.994 197.066 227.993 193.331C226.901 189.256 225.429 185.799 223.576 182.959C221.78 180.104 219.673 177.787 217.255 176.008C214.822 174.173 212.127 172.833 209.171 171.987C206.271 171.126 203.164 170.624 199.85 170.481Z" fill="white"/>
<path d="M163.432 186.699L169.582 176.395L169.507 176.351L169.432 176.307L163.432 186.699ZM162.857 184.215L152.156 178.786L151.965 179.162L151.801 179.55L162.857 184.215ZM180.005 150.412L190.707 155.841L202.872 131.861L176.899 138.821L180.005 150.412ZM148.31 158.449L146.273 170.275L146.802 170.366L147.337 170.41L148.31 158.449ZM146.271 157.631L138.35 166.645L138.679 166.934L139.029 167.199L146.271 157.631ZM145.137 156.115L133.875 160.257L134.06 160.76L134.289 161.244L145.137 156.115ZM210.067 121.338L220.639 127.016L220.646 127.002L220.654 126.988L210.067 121.338ZM186.087 165.979L175.516 160.301L162.568 184.406L189.071 177.602L186.087 165.979ZM201.921 164.285L201.331 176.27L201.351 176.271L201.372 176.272L201.921 164.285ZM216.305 167.71L211.22 178.579L211.262 178.598L211.304 178.618L216.305 167.71ZM228.617 222.827L219.102 215.515L219.049 215.584L218.997 215.654L228.617 222.827ZM215.451 234.817L208.985 224.708L208.971 224.717L208.957 224.726L215.451 234.817ZM189.878 244.308L191.922 256.133L191.934 256.13L191.946 256.128L189.878 244.308ZM181.942 245.251L181.119 233.28L181.016 233.287L180.913 233.296L181.942 245.251ZM173.739 245.539L173.902 233.54L173.781 233.538L173.659 233.539L173.739 245.539ZM165.608 245.079L167.078 233.169L167.054 233.166L167.029 233.163L165.608 245.079ZM164.69 234.861L156.728 225.882L156.169 226.378L155.676 226.939L164.69 234.861ZM169.825 234.668L170.354 222.679L170.063 222.666L169.771 222.668L169.825 234.668ZM190.432 215.133L178.433 214.965L178.433 214.994L178.433 215.023L190.432 215.133ZM182.322 189.281L172.892 196.702L172.941 196.765L172.991 196.827L182.322 189.281ZM170.42 187.648L161.643 179.465L161.522 179.594L161.406 179.726L170.42 187.648ZM167.115 188.897L174.031 179.091L173.657 178.827L173.265 178.593L167.115 188.897ZM199.85 170.481L200.369 158.492L195.626 181.713L199.85 170.481ZM221.291 213.143L209.678 210.117L209.658 210.195L209.639 210.273L221.291 213.143ZM212.88 228.954L203.866 221.033L219.589 238.903L212.88 228.954ZM221.075 221.845L212.283 213.677L212.189 213.779L212.098 213.882L221.075 221.845ZM229.025 203.973L217.077 202.86L217.064 202.992L217.055 203.124L229.025 203.973ZM223.576 182.959L213.419 189.349L213.472 189.433L213.526 189.516L223.576 182.959ZM217.255 176.008L210.028 185.588L210.086 185.632L210.144 185.674L217.255 176.008ZM209.171 171.987L205.756 183.491L205.813 183.508L205.871 183.524L209.171 171.987ZM169.432 176.307C171.134 177.29 173.331 179.316 174.218 182.626L151.036 188.838C152.135 192.941 154.869 195.612 157.432 197.092L169.432 176.307ZM174.218 182.626C174.686 184.371 174.62 185.865 174.469 186.856C174.321 187.834 174.06 188.532 173.914 188.879L151.801 179.55C151.106 181.197 149.924 184.687 151.036 188.838L174.218 182.626ZM173.559 189.644L190.707 155.841L169.304 144.983L152.156 178.786L173.559 189.644ZM176.899 138.821L148.544 146.418L154.756 169.601L183.111 162.003L176.899 138.821ZM148.544 146.418C148.251 146.497 148.157 146.505 148.229 146.495C148.271 146.49 148.38 146.477 148.548 146.47C148.714 146.464 148.964 146.463 149.284 146.489L147.337 170.41C150.157 170.639 152.782 170.13 154.756 169.601L148.544 146.418ZM150.348 146.624C150.939 146.725 152.175 147.05 153.514 148.063L139.029 167.199C141.432 169.018 144.028 169.888 146.273 170.275L150.348 146.624ZM154.193 148.617C154.989 149.317 155.589 150.148 155.986 150.986L134.289 161.244C135.245 163.267 136.601 165.108 138.35 166.645L154.193 148.617ZM156.399 151.973C156.288 151.671 156.214 151.431 156.166 151.249L132.983 157.461C133.238 158.411 133.539 159.344 133.875 160.257L156.399 151.973ZM156.166 151.249L150.524 130.195L127.342 136.407L132.983 157.461L156.166 151.249ZM150.524 130.195C150.834 131.352 150.888 132.566 150.696 133.72C150.511 134.835 150.137 135.658 149.848 136.158L129.063 124.158C127.156 127.461 126.099 131.769 127.342 136.407L150.524 130.195ZM149.848 136.158C148.274 138.885 146.067 139.354 146.442 139.253L140.231 116.071C136.758 117.002 131.964 119.135 129.063 124.158L149.848 136.158ZM146.442 139.253L206.803 123.08L200.592 99.8975L140.231 116.071L146.442 139.253ZM206.803 123.08C207.113 122.997 204.958 123.658 202.312 122.028L214.901 101.594C209.784 98.4423 204.357 98.8886 200.592 99.8975L206.803 123.08ZM202.312 122.028C201.777 121.698 201.133 121.173 200.553 120.404C199.969 119.63 199.607 118.818 199.414 118.096L222.596 111.884C221.412 107.464 218.653 103.906 214.901 101.594L202.312 122.028ZM199.414 118.096C199.257 117.508 199.229 116.892 199.309 116.351C199.384 115.844 199.521 115.611 199.481 115.687L220.654 126.988C222.985 122.621 224.069 117.379 222.596 111.884L199.414 118.096ZM199.496 115.659L175.516 160.301L196.659 171.658L220.639 127.016L199.496 115.659ZM189.071 177.602C193.386 176.495 197.458 176.079 201.331 176.27L202.511 152.299C196.056 151.981 189.573 152.696 183.104 154.356L189.071 177.602ZM201.372 176.272C205.153 176.445 208.39 177.255 211.22 178.579L221.39 156.84C215.482 154.076 209.129 152.602 202.47 152.297L201.372 176.272ZM211.304 178.618C214.04 179.872 216.494 181.723 218.703 184.347L237.062 168.889C232.687 163.693 227.423 159.605 221.306 156.801L211.304 178.618ZM218.703 184.347C220.655 186.666 222.39 189.919 223.618 194.503L246.8 188.292C244.844 180.99 241.694 174.391 237.062 168.889L218.703 184.347ZM223.618 194.503C224.682 198.473 224.724 202.021 223.963 205.334L247.355 210.704C249.058 203.287 248.8 195.755 246.8 188.292L223.618 194.503ZM223.963 205.334C223.131 208.963 221.549 212.33 219.102 215.515L238.132 230.139C242.611 224.31 245.725 217.805 247.355 210.704L223.963 205.334ZM218.997 215.654C216.574 218.904 213.305 221.945 208.985 224.708L221.917 244.926C228.369 240.799 233.877 235.847 238.237 230L218.997 215.654ZM208.957 224.726C204.781 227.414 199.886 229.567 194.164 231.1L200.376 254.282C208.238 252.176 215.464 249.079 221.946 244.908L208.957 224.726ZM194.164 231.1C192.219 231.621 190.104 232.086 187.811 232.487L191.946 256.128C194.868 255.617 197.681 255.004 200.376 254.282L194.164 231.1ZM187.835 232.483C185.712 232.85 183.475 233.118 181.119 233.28L182.764 257.223C185.889 257.009 188.943 256.647 191.922 256.133L187.835 232.483ZM180.913 233.296C178.659 233.49 176.323 233.573 173.902 233.54L173.575 257.538C176.756 257.581 179.889 257.473 182.971 257.207L180.913 233.296ZM173.659 233.539C171.366 233.554 169.175 233.428 167.078 233.169L164.138 256.988C167.311 257.38 170.54 257.56 173.818 257.538L173.659 233.539ZM167.029 233.163C168.75 233.368 169.971 233.956 170.6 234.319L158.6 255.104C159.947 255.882 161.84 256.714 164.187 256.994L167.029 233.163ZM170.6 234.319C173.693 236.105 175.091 238.859 175.601 240.763L152.419 246.975C153.142 249.671 154.933 252.987 158.6 255.104L170.6 234.319ZM175.601 240.763C175.828 241.611 175.906 242.29 175.936 242.602C175.971 242.964 175.98 243.246 175.983 243.401C175.985 243.568 175.983 243.69 175.981 243.753C175.979 243.82 175.977 243.859 175.976 243.863L152.019 242.425C151.999 242.774 151.977 243.261 151.986 243.805C151.991 244.1 152.003 245.421 152.419 246.975L175.601 240.763ZM175.976 243.863L176.409 236.65L152.452 235.212L152.019 242.425L175.976 243.863ZM176.409 236.65C176.403 236.76 176.37 237.303 176.184 238.071C176.087 238.471 175.91 239.094 175.587 239.832C175.273 240.548 174.703 241.645 173.704 242.782L155.676 226.939C153.7 229.188 153.067 231.561 152.858 232.423C152.585 233.548 152.492 234.547 152.452 235.212L176.409 236.65ZM172.652 243.839C171.297 245.041 169.816 245.728 168.514 246.077L162.303 222.895C160.435 223.395 158.476 224.333 156.728 225.882L172.652 243.839ZM168.514 246.077C167.788 246.272 167.197 246.354 166.874 246.392C166.519 246.433 166.235 246.449 166.056 246.455C165.709 246.469 165.469 246.459 165.411 246.457C165.288 246.452 165.325 246.449 165.619 246.48L168.143 222.613C167.624 222.558 167.011 222.502 166.397 222.477C166.377 222.476 164.42 222.328 162.303 222.895L168.514 246.077ZM165.619 246.48C167.004 246.626 168.451 246.674 169.879 246.667L169.771 222.668C168.897 222.672 168.381 222.638 168.143 222.613L165.619 246.48ZM169.296 246.656C170.943 246.729 172.654 246.703 174.402 246.604L173.049 222.642C171.929 222.706 171.039 222.709 170.354 222.679L169.296 246.656ZM174.402 246.604C176.735 246.472 179.032 246.08 181.275 245.479L175.063 222.297C174.25 222.514 173.584 222.612 173.049 222.642L174.402 246.604ZM181.275 245.479C185.61 244.317 189.561 242.207 192.907 239.112L176.613 221.491C176.265 221.813 175.822 222.093 175.063 222.297L181.275 245.479ZM192.907 239.112C196.253 236.019 198.656 232.252 200.207 228.081L177.711 219.717C177.359 220.667 176.963 221.168 176.613 221.491L192.907 239.112ZM200.207 228.081C201.73 223.984 202.391 219.644 202.432 215.243L178.433 215.023C178.413 217.19 178.092 218.694 177.711 219.717L200.207 228.081ZM202.431 215.301C202.495 210.746 201.797 206.091 200.544 201.414L177.362 207.625C178.171 210.646 178.46 213.066 178.433 214.965L202.431 215.301ZM200.544 201.414C198.521 193.865 195.782 186.841 191.653 181.735L172.991 196.827C173.943 198.003 175.624 201.138 177.362 207.625L200.544 201.414ZM191.753 181.86C189.534 179.041 186.522 176.384 182.537 174.862C178.433 173.294 174.237 173.292 170.397 174.321L176.609 197.503C176.438 197.549 176.073 197.621 175.561 197.604C175.035 197.586 174.487 197.478 173.972 197.281C172.927 196.882 172.627 196.365 172.892 196.702L191.753 181.86ZM170.397 174.321C167.4 175.124 164.236 176.684 161.643 179.465L179.197 195.831C178.112 196.995 177.002 197.397 176.609 197.503L170.397 174.321ZM161.406 179.726C161.536 179.578 162.758 178.187 165.249 177.52L171.461 200.702C175.31 199.671 177.909 197.304 179.433 195.569L161.406 179.726ZM165.249 177.52C166.502 177.184 168.047 177.031 169.743 177.323C171.447 177.616 172.896 178.291 174.031 179.091L160.199 198.704C163.564 201.077 167.664 201.719 171.461 200.702L165.249 177.52ZM173.265 178.593L169.582 176.395L157.282 197.004L160.965 199.202L173.265 178.593ZM195.626 181.713C198.797 182.905 201.562 184.769 204.014 187.455L221.74 171.275C216.807 165.87 210.888 161.811 204.075 159.249L195.626 181.713ZM204.014 187.455C206.146 189.791 208.081 193.229 209.44 198.302L232.623 192.09C230.494 184.147 226.992 177.03 221.74 171.275L204.014 187.455ZM209.44 198.302C210.619 202.7 210.605 206.562 209.678 210.117L232.903 216.169C234.967 208.246 234.781 200.144 232.623 192.09L209.44 198.302ZM209.639 210.273C208.706 214.062 206.862 217.624 203.866 221.033L221.893 236.876C227.265 230.764 231.028 223.785 232.943 216.013L209.639 210.273ZM219.589 238.903C223.496 236.269 227.004 233.244 230.052 229.808L212.098 213.882C210.487 215.698 208.531 217.413 206.17 219.006L219.589 238.903ZM229.866 230.013C233.084 226.55 235.71 222.69 237.62 218.43L215.719 208.613C214.971 210.282 213.868 211.972 212.283 213.677L229.866 230.013ZM237.62 218.43C239.552 214.12 240.659 209.556 240.995 204.823L217.055 203.124C216.908 205.193 216.445 206.994 215.719 208.613L237.62 218.43ZM240.973 205.087C241.436 200.12 240.9 195.137 239.584 190.225L216.402 196.437C217.088 198.996 217.24 201.108 217.077 202.86L240.973 205.087ZM239.584 190.225C238.241 185.212 236.317 180.526 233.626 176.402L213.526 189.516C214.541 191.071 215.561 193.3 216.402 196.437L239.584 190.225ZM233.733 176.568C231.234 172.597 228.136 169.116 224.366 166.342L210.144 185.674C211.209 186.458 212.325 187.61 213.419 189.349L233.733 176.568ZM224.481 166.428C220.86 163.697 216.833 161.697 212.471 160.45L205.871 183.524C207.422 183.968 208.784 184.649 210.028 185.588L224.481 166.428ZM212.586 160.483C208.659 159.317 204.571 158.674 200.369 158.492L199.332 182.47C201.758 182.574 203.884 182.935 205.756 183.491L212.586 160.483Z" fill="black" mask="url(#path-9-outside-2_195_190)"/>
</g>
<defs>
<filter id="filter0_dii_195_190" x="-39.375" y="-35.2007" width="474.979" height="519.412" filterUnits="userSpaceOnUse" color-interpolation-filters="sRGB">
<feFlood flood-opacity="0" result="BackgroundImageFix"/>
<feColorMatrix in="SourceAlpha" type="matrix" values="0 0 0 0 0 0 0 0 0 0 0 0 0 0 0 0 0 0 127 0" result="hardAlpha"/>
<feOffset dx="6" dy="6"/>
<feComposite in2="hardAlpha" operator="out"/>
<feColorMatrix type="matrix" values="0 0 0 0 0.720684 0 0 0 0 0.198878 0 0 0 0 0.668504 0 0 0 1 0"/>
<feBlend mode="normal" in2="BackgroundImageFix" result="effect1_dropShadow_195_190"/>
<feBlend mode="normal" in="SourceGraphic" in2="effect1_dropShadow_195_190" result="shape"/>
<feColorMatrix in="SourceAlpha" type="matrix" values="0 0 0 0 0 0 0 0 0 0 0 0 0 0 0 0 0 0 127 0" result="hardAlpha"/>
<feOffset dx="-18" dy="-6"/>
<feGaussianBlur stdDeviation="6"/>
<feComposite in2="hardAlpha" operator="arithmetic" k2="-1" k3="1"/>
<feColorMatrix type="matrix" values="0 0 0 0 0 0 0 0 0 0 0 0 0 0 0 0 0 0 0.25 0"/>
<feBlend mode="normal" in2="shape" result="effect2_innerShadow_195_190"/>
<feColorMatrix in="SourceAlpha" type="matrix" values="0 0 0 0 0 0 0 0 0 0 0 0 0 0 0 0 0 0 127 0" result="hardAlpha"/>
<feOffset dx="27" dy="12"/>
<feGaussianBlur stdDeviation="6"/>
<feComposite in2="hardAlpha" operator="arithmetic" k2="-1" k3="1"/>
<feColorMatrix type="matrix" values="0 0 0 0 1 0 0 0 0 1 0 0 0 0 1 0 0 0 0.25 0"/>
<feBlend mode="normal" in2="effect2_innerShadow_195_190" result="effect3_innerShadow_195_190"/>
</filter>
</defs>
</svg>
