<svg width="445" height="448" viewBox="0 0 445 448" fill="none" xmlns="http://www.w3.org/2000/svg">
<path d="M425.148 2.5H196.092C189.262 2.5 183.094 6.58864 180.434 12.8804L7.64457 421.608C2.90631 432.816 11.1343 445.227 23.3028 445.227H425.148C434.537 445.227 442.148 437.616 442.148 428.227V19.5C442.148 10.1112 434.537 2.5 425.148 2.5Z" fill="white" stroke="black" stroke-width="4"/>
<mask id="mask0_172_935" style="mask-type:alpha" maskUnits="userSpaceOnUse" x="37" y="27" width="383" height="398">
<path d="M201.176 27H419.176V425H37.1763L201.176 27Z" fill="#D9D9D9"/>
</mask>
<g mask="url(#mask0_172_935)">
<circle cx="57.6348" cy="359.891" r="12.7047" fill="#FF91F4"/>
<circle cx="95.7486" cy="359.891" r="12.7047" fill="#FF91F4"/>
<circle cx="133.863" cy="359.891" r="12.7047" fill="#FF91F4"/>
<circle cx="171.977" cy="359.891" r="12.7047" fill="#FF91F4"/>
<circle cx="210.09" cy="359.891" r="12.7047" fill="#FF91F4"/>
<circle cx="38.5777" cy="391.653" r="12.7047" fill="#FF91F4"/>
<circle cx="76.692" cy="391.653" r="12.7047" fill="#FF91F4"/>
<circle cx="114.806" cy="391.653" r="12.7047" fill="#FF91F4"/>
<circle cx="152.92" cy="391.653" r="12.7047" fill="#FF91F4"/>
<circle cx="191.034" cy="391.653" r="12.7047" fill="#FF91F4"/>
<circle cx="229.148" cy="391.653" r="12.7047" fill="#FF91F4"/>
<circle cx="57.6348" cy="423.415" r="12.7047" fill="#FF91F4"/>
<circle cx="95.7486" cy="423.415" r="12.7047" fill="#FF91F4"/>
<circle cx="133.863" cy="423.415" r="12.7047" fill="#FF91F4"/>
<circle cx="171.977" cy="423.415" r="12.7047" fill="#FF91F4"/>
<circle cx="210.09" cy="423.415" r="12.7047" fill="#FF91F4"/>
<circle cx="57.6348" cy="232.845" r="12.7047" fill="#FF91F4"/>
<circle cx="95.7486" cy="232.845" r="12.7047" fill="#FF91F4"/>
<circle cx="133.863" cy="232.845" r="12.7047" fill="#FF91F4"/>
<circle cx="171.977" cy="232.845" r="12.7047" fill="#FF91F4"/>
<circle cx="210.09" cy="232.845" r="12.7047" fill="#FF91F4"/>
<circle cx="38.5777" cy="264.606" r="12.7047" fill="#FF91F4"/>
<circle cx="76.692" cy="264.606" r="12.7047" fill="#FF91F4"/>
<circle cx="114.806" cy="264.606" r="12.7047" fill="#FF91F4"/>
<circle cx="152.92" cy="264.606" r="12.7047" fill="#FF91F4"/>
<circle cx="191.034" cy="264.606" r="12.7047" fill="#FF91F4"/>
<circle cx="229.148" cy="264.606" r="12.7047" fill="#FF91F4"/>
<circle cx="57.6348" cy="296.368" r="12.7047" fill="#FF91F4"/>
<circle cx="95.7486" cy="296.368" r="12.7047" fill="#FF91F4"/>
<circle cx="133.863" cy="296.368" r="12.7047" fill="#FF91F4"/>
<circle cx="171.977" cy="296.368" r="12.7047" fill="#FF91F4"/>
<circle cx="210.09" cy="296.368" r="12.7047" fill="#FF91F4"/>
<circle cx="38.5777" cy="328.13" r="12.7047" fill="#FF91F4"/>
<circle cx="76.692" cy="328.13" r="12.7047" fill="#FF91F4"/>
<circle cx="114.806" cy="328.13" r="12.7047" fill="#FF91F4"/>
<circle cx="152.92" cy="328.13" r="12.7047" fill="#FF91F4"/>
<circle cx="191.034" cy="328.13" r="12.7047" fill="#FF91F4"/>
<circle cx="229.148" cy="328.13" r="12.7047" fill="#FF91F4"/>
<circle cx="57.6348" cy="105.798" r="12.7047" fill="#FF91F4"/>
<circle cx="95.7486" cy="105.798" r="12.7047" fill="#FF91F4"/>
<circle cx="133.863" cy="105.798" r="12.7047" fill="#FF91F4"/>
<circle cx="171.977" cy="105.798" r="12.7047" fill="#FF91F4"/>
<circle cx="210.09" cy="105.798" r="12.7047" fill="#FF91F4"/>
<circle cx="38.5777" cy="137.56" r="12.7047" fill="#FF91F4"/>
<circle cx="76.692" cy="137.56" r="12.7047" fill="#FF91F4"/>
<circle cx="114.806" cy="137.56" r="12.7047" fill="#FF91F4"/>
<circle cx="152.92" cy="137.56" r="12.7047" fill="#FF91F4"/>
<circle cx="191.034" cy="137.56" r="12.7047" fill="#FF91F4"/>
<circle cx="229.148" cy="137.56" r="12.7047" fill="#FF91F4"/>
<circle cx="57.6348" cy="169.321" r="12.7047" fill="#FF91F4"/>
<circle cx="95.7486" cy="169.321" r="12.7047" fill="#FF91F4"/>
<circle cx="133.863" cy="169.321" r="12.7047" fill="#FF91F4"/>
<circle cx="171.977" cy="169.321" r="12.7047" fill="#FF91F4"/>
<circle cx="210.09" cy="169.321" r="12.7047" fill="#FF91F4"/>
<circle cx="38.5777" cy="201.083" r="12.7047" fill="#FF91F4"/>
<circle cx="76.692" cy="201.083" r="12.7047" fill="#FF91F4"/>
<circle cx="114.806" cy="201.083" r="12.7047" fill="#FF91F4"/>
<circle cx="152.92" cy="201.083" r="12.7047" fill="#FF91F4"/>
<circle cx="191.034" cy="201.083" r="12.7047" fill="#FF91F4"/>
<circle cx="229.148" cy="201.083" r="12.7047" fill="#FF91F4"/>
<circle cx="57.6348" cy="42.2746" r="12.7047" fill="#FF91F4"/>
<circle cx="95.7486" cy="42.2746" r="12.7047" fill="#FF91F4"/>
<circle cx="133.863" cy="42.2746" r="12.7047" fill="#FF91F4"/>
<circle cx="171.977" cy="42.2746" r="12.7047" fill="#FF91F4"/>
<circle cx="210.09" cy="42.2746" r="12.7047" fill="#FF91F4"/>
<circle cx="38.5777" cy="74.0363" r="12.7047" fill="#FF91F4"/>
<circle cx="76.692" cy="74.0363" r="12.7047" fill="#FF91F4"/>
<circle cx="114.806" cy="74.0363" r="12.7047" fill="#FF91F4"/>
<circle cx="152.92" cy="74.0363" r="12.7047" fill="#FF91F4"/>
<circle cx="191.034" cy="74.0363" r="12.7047" fill="#FF91F4"/>
<circle cx="229.148" cy="74.0363" r="12.7047" fill="#FF91F4"/>
<circle cx="248.205" cy="359.891" r="12.7047" fill="#FF91F4"/>
<circle cx="286.319" cy="359.891" r="12.7047" fill="#FF91F4"/>
<circle cx="324.433" cy="359.891" r="12.7047" fill="#FF91F4"/>
<circle cx="362.546" cy="359.891" r="12.7047" fill="#FF91F4"/>
<circle cx="400.661" cy="359.891" r="12.7047" fill="#FF91F4"/>
<circle cx="267.261" cy="391.653" r="12.7047" fill="#FF91F4"/>
<circle cx="305.376" cy="391.653" r="12.7047" fill="#FF91F4"/>
<circle cx="343.49" cy="391.653" r="12.7047" fill="#FF91F4"/>
<circle cx="381.604" cy="391.653" r="12.7047" fill="#FF91F4"/>
<circle cx="419.717" cy="391.653" r="12.7047" fill="#FF91F4"/>
<circle cx="248.205" cy="423.415" r="12.7047" fill="#FF91F4"/>
<circle cx="286.319" cy="423.415" r="12.7047" fill="#FF91F4"/>
<circle cx="324.433" cy="423.415" r="12.7047" fill="#FF91F4"/>
<circle cx="362.546" cy="423.415" r="12.7047" fill="#FF91F4"/>
<circle cx="400.661" cy="423.415" r="12.7047" fill="#FF91F4"/>
<circle cx="248.205" cy="232.845" r="12.7047" fill="#FF91F4"/>
<circle cx="286.319" cy="232.845" r="12.7047" fill="#FF91F4"/>
<circle cx="324.433" cy="232.845" r="12.7047" fill="#FF91F4"/>
<circle cx="362.546" cy="232.845" r="12.7047" fill="#FF91F4"/>
<circle cx="400.661" cy="232.845" r="12.7047" fill="#FF91F4"/>
<circle cx="267.261" cy="264.606" r="12.7047" fill="#FF91F4"/>
<circle cx="305.376" cy="264.606" r="12.7047" fill="#FF91F4"/>
<circle cx="343.49" cy="264.606" r="12.7047" fill="#FF91F4"/>
<circle cx="381.604" cy="264.606" r="12.7047" fill="#FF91F4"/>
<circle cx="419.717" cy="264.606" r="12.7047" fill="#FF91F4"/>
<circle cx="248.205" cy="296.368" r="12.7047" fill="#FF91F4"/>
<circle cx="286.319" cy="296.368" r="12.7047" fill="#FF91F4"/>
<circle cx="324.433" cy="296.368" r="12.7047" fill="#FF91F4"/>
<circle cx="362.546" cy="296.368" r="12.7047" fill="#FF91F4"/>
<circle cx="400.661" cy="296.368" r="12.7047" fill="#FF91F4"/>
<circle cx="267.261" cy="328.13" r="12.7047" fill="#FF91F4"/>
<circle cx="305.376" cy="328.13" r="12.7047" fill="#FF91F4"/>
<circle cx="343.49" cy="328.13" r="12.7047" fill="#FF91F4"/>
<circle cx="381.604" cy="328.13" r="12.7047" fill="#FF91F4"/>
<circle cx="419.717" cy="328.13" r="12.7047" fill="#FF91F4"/>
<circle cx="248.205" cy="105.798" r="12.7047" fill="#FF91F4"/>
<circle cx="286.319" cy="105.798" r="12.7047" fill="#FF91F4"/>
<circle cx="324.433" cy="105.798" r="12.7047" fill="#FF91F4"/>
<circle cx="362.546" cy="105.798" r="12.7047" fill="#FF91F4"/>
<circle cx="400.661" cy="105.798" r="12.7047" fill="#FF91F4"/>
<circle cx="267.261" cy="137.56" r="12.7047" fill="#FF91F4"/>
<circle cx="305.376" cy="137.56" r="12.7047" fill="#FF91F4"/>
<circle cx="343.49" cy="137.56" r="12.7047" fill="#FF91F4"/>
<circle cx="381.604" cy="137.56" r="12.7047" fill="#FF91F4"/>
<circle cx="419.717" cy="137.56" r="12.7047" fill="#FF91F4"/>
<circle cx="248.205" cy="169.321" r="12.7047" fill="#FF91F4"/>
<circle cx="286.319" cy="169.321" r="12.7047" fill="#FF91F4"/>
<circle cx="324.433" cy="169.321" r="12.7047" fill="#FF91F4"/>
<circle cx="362.546" cy="169.321" r="12.7047" fill="#FF91F4"/>
<circle cx="400.661" cy="169.321" r="12.7047" fill="#FF91F4"/>
<circle cx="267.261" cy="201.083" r="12.7047" fill="#FF91F4"/>
<circle cx="305.376" cy="201.083" r="12.7047" fill="#FF91F4"/>
<circle cx="343.49" cy="201.083" r="12.7047" fill="#FF91F4"/>
<circle cx="381.604" cy="201.083" r="12.7047" fill="#FF91F4"/>
<circle cx="419.717" cy="201.083" r="12.7047" fill="#FF91F4"/>
<circle cx="248.205" cy="42.2746" r="12.7047" fill="#FF91F4"/>
<circle cx="286.319" cy="42.2746" r="12.7047" fill="#FF91F4"/>
<circle cx="324.433" cy="42.2746" r="12.7047" fill="#FF91F4"/>
<circle cx="362.546" cy="42.2746" r="12.7047" fill="#FF91F4"/>
<circle cx="400.661" cy="42.2746" r="12.7047" fill="#FF91F4"/>
<circle cx="267.261" cy="74.0363" r="12.7047" fill="#FF91F4"/>
<circle cx="305.376" cy="74.0363" r="12.7047" fill="#FF91F4"/>
<circle cx="343.49" cy="74.0363" r="12.7047" fill="#FF91F4"/>
<circle cx="381.604" cy="74.0363" r="12.7047" fill="#FF91F4"/>
<circle cx="419.717" cy="74.0363" r="12.7047" fill="#FF91F4"/>
</g>
<path d="M204.941 29H203.614L203.098 30.2223L32.1574 435.222L30.985 438H34H430H432V436V31V29H430H204.941Z" stroke="black" stroke-width="4"/>
</svg>
