<svg width="255" height="207" viewBox="0 0 255 207" fill="none" xmlns="http://www.w3.org/2000/svg">
<g filter="url(#filter0_di_49_252)">
<path d="M185.854 0.0114379C147.773 0.690873 129.136 25.6585 125 48.3586C120.864 25.6585 102.228 0.690421 64.1455 0.0114379C29.0342 -0.613715 0 24.4078 0 70.072C0 128.692 71.5732 155.77 120.516 199.558C122.22 201.083 121.819 201.044 121.819 201.044C122.623 201.963 123.779 202.495 124.995 202.495V202.5C124.995 202.5 124.998 202.5 125 202.5C125 202.5 125.003 202.5 125.005 202.5V202.495C126.221 202.495 127.376 201.963 128.181 201.044C128.181 201.044 127.78 201.083 129.484 199.558C178.427 155.77 250 128.692 250 70.072C250 24.4078 220.966 -0.613715 185.854 0.0114379Z" fill="#FF90F5"/>
</g>
<g filter="url(#filter1_d_49_252)">
<path d="M80.76 82.08C80.5733 83.4933 80.2 85.0667 79.64 86.8C79.08 88.5067 78.4267 90.1867 77.68 91.84C76.9333 93.4667 76.1733 94.8933 75.4 96.12C73.56 99.08 71.3067 101.653 68.64 103.84C66 106.027 62.9867 107.627 59.6 108.64C58.7733 108.907 57.92 109.12 57.04 109.28C56.1867 109.44 55.3333 109.52 54.48 109.52C53.92 109.52 53.4133 109.333 52.96 108.96C52.5067 108.56 52.28 108.067 52.28 107.48C52.28 106.893 52.4933 106.373 52.92 105.92C53.3733 105.467 53.8933 105.24 54.48 105.24C55.0667 105.24 55.5733 105.48 56 105.96C56.4267 106.413 56.64 106.92 56.64 107.48C56.64 107.587 56.6267 107.693 56.6 107.8C56.5733 107.907 56.5333 108.027 56.48 108.16C60.64 106.8 64.16 104.533 67.04 101.36C68.48 99.76 69.7733 98 70.92 96.08C72.0667 94.16 73.0533 92.1467 73.88 90.04C74.7333 87.9333 75.4267 85.8533 75.96 83.8H65.16C64.5467 85.2133 63.8 86.6267 62.92 88.04C62.04 89.4267 61.0133 90.7067 59.84 91.88C58.6933 93.0267 57.4 93.9467 55.96 94.64C55.8533 94.6667 55.7333 94.7067 55.6 94.76C55.4933 94.7867 55.3733 94.8 55.24 94.8C55.08 94.8 55 94.7467 55 94.64C55 94.5333 55.0267 94.44 55.08 94.36C55.16 94.2533 55.2267 94.16 55.28 94.08C56.6133 92.0267 57.8933 89.92 59.12 87.76C60.3467 85.5733 61.3067 83.3067 62 80.96C62.1333 80.9867 62.3733 81.0667 62.72 81.2C63.0667 81.3067 63.4533 81.44 63.88 81.6C64.3067 81.7333 64.68 81.8533 65 81.96C65.32 82.04 65.5067 82.08 65.56 82.08H80.76ZM117.64 80.2V93.72C117.64 96.2267 117.253 98.44 116.48 100.36C115.707 102.253 114.253 103.947 112.12 105.44C111.187 106.107 110.187 106.693 109.12 107.2C108.08 107.68 107.013 108.093 105.92 108.44C105.013 108.707 104 108.973 102.88 109.24C101.787 109.507 100.773 109.64 99.84 109.64C99.28 109.64 98.7733 109.44 98.32 109.04C97.8667 108.667 97.64 108.187 97.64 107.6C97.64 107.013 97.8533 106.48 98.28 106C98.7333 105.52 99.2533 105.28 99.84 105.28C100.453 105.28 100.96 105.52 101.36 106C101.787 106.48 102 107.013 102 107.6C102 107.707 101.987 107.827 101.96 107.96C101.96 108.093 101.947 108.227 101.92 108.36C102.693 108.147 103.453 107.907 104.2 107.64C104.947 107.373 105.667 107.053 106.36 106.68C108.333 105.533 109.867 104.347 110.96 103.12C112.053 101.893 112.813 100.48 113.24 98.88C113.667 97.28 113.88 95.36 113.88 93.12V80.2H117.64ZM106.84 93.4C106.173 94.1733 105.307 94.8533 104.24 95.44C103.173 96 102.12 96.28 101.08 96.28C100.12 96.28 99.4667 96.08 99.12 95.68C98.7733 95.2533 98.6 94.5733 98.6 93.64V81.64H102.16L102.12 93.08C102.12 93.5067 102.187 93.7867 102.32 93.92C102.453 94.0267 102.733 94.08 103.16 94.08C103.853 94.08 104.48 94 105.04 93.84C105.6 93.68 106.187 93.48 106.8 93.24C106.827 93.24 106.84 93.2933 106.84 93.4ZM143 98.64C143 98.8267 142.893 98.92 142.68 98.92C142.6 98.92 142.52 98.92 142.44 98.92C142.387 98.8933 142.32 98.8667 142.24 98.84C141.68 98.52 141.107 98.04 140.52 97.4C139.933 96.7333 139.4 96.0267 138.92 95.28C138.44 94.5067 138.093 93.8267 137.88 93.24C138.04 93.1867 138.307 93.08 138.68 92.92C139.053 92.76 139.413 92.6133 139.76 92.48C140.133 92.32 140.36 92.24 140.44 92.24C140.6 92.24 140.693 92.3333 140.72 92.52C140.747 92.5467 140.76 92.6 140.76 92.68C140.76 92.7867 140.773 92.8667 140.8 92.92C140.8 93.08 140.827 93.2267 140.88 93.36C140.96 93.4667 141.013 93.5867 141.04 93.72C141.28 94.4667 141.547 95.2267 141.84 96C142.133 96.7467 142.453 97.48 142.8 98.2C142.853 98.2533 142.893 98.32 142.92 98.4C142.973 98.48 143 98.56 143 98.64ZM157.88 92.4C157.24 95.3067 156.307 97.9467 155.08 100.32C153.853 102.693 152.253 104.747 150.28 106.48C148.333 108.187 145.907 109.547 143 110.56C142.627 110.693 142.213 110.827 141.76 110.96C141.307 111.093 140.88 111.16 140.48 111.16C140.053 111.16 139.68 111 139.36 110.68C139.067 110.36 138.92 109.987 138.92 109.56C138.92 109.133 139.067 108.747 139.36 108.4C139.68 108.027 140.053 107.84 140.48 107.84C140.933 107.84 141.32 108.013 141.64 108.36C141.987 108.707 142.16 109.107 142.16 109.56C142.16 109.773 142.12 109.987 142.04 110.2C143.8 109.4 145.4 108.347 146.84 107.04C148.28 105.707 149.533 104.2 150.6 102.52C151.693 100.84 152.573 99.0667 153.24 97.2C153.907 95.3333 154.347 93.4667 154.56 91.6L157.88 92.4ZM148.4 98.2C148.4 98.4133 148.293 98.52 148.08 98.52C148.027 98.52 147.947 98.5067 147.84 98.48C147.76 98.4267 147.693 98.3867 147.64 98.36C147.08 98.0133 146.52 97.5333 145.96 96.92C145.4 96.28 144.893 95.6 144.44 94.88C144.013 94.1333 143.693 93.4533 143.48 92.84C143.64 92.7867 143.893 92.68 144.24 92.52C144.587 92.3333 144.933 92.1733 145.28 92.04C145.627 91.88 145.867 91.8 146 91.8C146.133 91.8 146.227 91.9333 146.28 92.2C146.36 92.44 146.427 92.6933 146.48 92.96C146.533 93.2267 146.573 93.4133 146.6 93.52C147 94.96 147.547 96.3867 148.24 97.8C148.347 97.96 148.4 98.0933 148.4 98.2ZM200.76 82.08C200.573 83.4933 200.2 85.0667 199.64 86.8C199.08 88.5067 198.427 90.1867 197.68 91.84C196.933 93.4667 196.173 94.8933 195.4 96.12C193.56 99.08 191.307 101.653 188.64 103.84C186 106.027 182.987 107.627 179.6 108.64C178.773 108.907 177.92 109.12 177.04 109.28C176.187 109.44 175.333 109.52 174.48 109.52C173.92 109.52 173.413 109.333 172.96 108.96C172.507 108.56 172.28 108.067 172.28 107.48C172.28 106.893 172.493 106.373 172.92 105.92C173.373 105.467 173.893 105.24 174.48 105.24C175.067 105.24 175.573 105.48 176 105.96C176.427 106.413 176.64 106.92 176.64 107.48C176.64 107.587 176.627 107.693 176.6 107.8C176.573 107.907 176.533 108.027 176.48 108.16C180.64 106.8 184.16 104.533 187.04 101.36C188.48 99.76 189.773 98 190.92 96.08C192.067 94.16 193.053 92.1467 193.88 90.04C194.733 87.9333 195.427 85.8533 195.96 83.8H185.16C184.547 85.2133 183.8 86.6267 182.92 88.04C182.04 89.4267 181.013 90.7067 179.84 91.88C178.693 93.0267 177.4 93.9467 175.96 94.64C175.853 94.6667 175.733 94.7067 175.6 94.76C175.493 94.7867 175.373 94.8 175.24 94.8C175.08 94.8 175 94.7467 175 94.64C175 94.5333 175.027 94.44 175.08 94.36C175.16 94.2533 175.227 94.16 175.28 94.08C176.613 92.0267 177.893 89.92 179.12 87.76C180.347 85.5733 181.307 83.3067 182 80.96C182.133 80.9867 182.373 81.0667 182.72 81.2C183.067 81.3067 183.453 81.44 183.88 81.6C184.307 81.7333 184.68 81.8533 185 81.96C185.32 82.04 185.507 82.08 185.56 82.08H200.76Z" fill="white"/>
</g>
<defs>
<filter id="filter0_di_49_252" x="0" y="0" width="255" height="206.5" filterUnits="userSpaceOnUse" color-interpolation-filters="sRGB">
<feFlood flood-opacity="0" result="BackgroundImageFix"/>
<feColorMatrix in="SourceAlpha" type="matrix" values="0 0 0 0 0 0 0 0 0 0 0 0 0 0 0 0 0 0 127 0" result="hardAlpha"/>
<feOffset dx="5" dy="4"/>
<feComposite in2="hardAlpha" operator="out"/>
<feColorMatrix type="matrix" values="0 0 0 0 1 0 0 0 0 0.342497 0 0 0 0 0.937972 0 0 0 1 0"/>
<feBlend mode="normal" in2="BackgroundImageFix" result="effect1_dropShadow_49_252"/>
<feBlend mode="normal" in="SourceGraphic" in2="effect1_dropShadow_49_252" result="shape"/>
<feColorMatrix in="SourceAlpha" type="matrix" values="0 0 0 0 0 0 0 0 0 0 0 0 0 0 0 0 0 0 127 0" result="hardAlpha"/>
<feOffset dx="4" dy="4"/>
<feComposite in2="hardAlpha" operator="arithmetic" k2="-1" k3="1"/>
<feColorMatrix type="matrix" values="0 0 0 0 1 0 0 0 0 0.663601 0 0 0 0 0.968265 0 0 0 1 0"/>
<feBlend mode="normal" in2="shape" result="effect2_innerShadow_49_252"/>
</filter>
<filter id="filter1_d_49_252" x="50.28" y="78.2002" width="150.48" height="32.96" filterUnits="userSpaceOnUse" color-interpolation-filters="sRGB">
<feFlood flood-opacity="0" result="BackgroundImageFix"/>
<feColorMatrix in="SourceAlpha" type="matrix" values="0 0 0 0 0 0 0 0 0 0 0 0 0 0 0 0 0 0 127 0" result="hardAlpha"/>
<feOffset dx="-2" dy="-2"/>
<feComposite in2="hardAlpha" operator="out"/>
<feColorMatrix type="matrix" values="0 0 0 0 0.911761 0 0 0 0 0.379805 0 0 0 0 0.861099 0 0 0 1 0"/>
<feBlend mode="normal" in2="BackgroundImageFix" result="effect1_dropShadow_49_252"/>
<feBlend mode="normal" in="SourceGraphic" in2="effect1_dropShadow_49_252" result="shape"/>
</filter>
</defs>
</svg>
