<svg width="579" height="579" viewBox="0 0 579 579" fill="none" xmlns="http://www.w3.org/2000/svg">
<g filter="url(#filter0_f_279_127)">
<circle cx="289.744" cy="289.744" r="189.744" fill="#FFE7FD"/>
</g>
<g filter="url(#filter1_ddi_279_127)">
<path d="M320.26 239.765C301.32 240.103 292.05 252.521 289.993 263.812C287.936 252.521 278.667 240.103 259.726 239.765C242.263 239.455 227.823 251.899 227.823 274.611C227.823 303.766 263.421 317.234 287.763 339.013C288.61 339.771 288.411 339.752 288.411 339.752C288.811 340.209 289.386 340.473 289.991 340.473V340.476C289.991 340.476 289.992 340.476 289.993 340.476C289.993 340.476 289.995 340.476 289.996 340.476V340.473C290.6 340.473 291.175 340.209 291.575 339.752C291.575 339.752 291.376 339.771 292.223 339.013C316.566 317.234 352.164 303.766 352.164 274.611C352.164 251.899 337.723 239.455 320.26 239.765Z" fill="#FF90F5"/>
</g>
<g filter="url(#filter2_d_279_127)">
<path d="M267.99 280.705C267.897 281.408 267.711 282.19 267.433 283.052C267.154 283.901 266.829 284.737 266.458 285.559C266.087 286.368 265.709 287.078 265.324 287.688C264.409 289.16 263.288 290.44 261.962 291.527C260.649 292.615 259.15 293.411 257.466 293.915C257.055 294.047 256.63 294.153 256.192 294.233C255.768 294.313 255.344 294.352 254.919 294.352C254.641 294.352 254.389 294.26 254.163 294.074C253.938 293.875 253.825 293.63 253.825 293.338C253.825 293.046 253.931 292.787 254.143 292.562C254.369 292.336 254.627 292.224 254.919 292.224C255.211 292.224 255.463 292.343 255.675 292.582C255.887 292.807 255.994 293.059 255.994 293.338C255.994 293.391 255.987 293.444 255.974 293.497C255.96 293.55 255.94 293.61 255.914 293.676C257.983 293 259.734 291.872 261.166 290.294C261.882 289.498 262.526 288.623 263.096 287.668C263.666 286.713 264.157 285.712 264.568 284.664C264.992 283.616 265.337 282.581 265.603 281.56H260.231C259.926 282.263 259.555 282.966 259.117 283.669C258.679 284.359 258.169 284.995 257.585 285.579C257.015 286.149 256.372 286.607 255.655 286.952C255.602 286.965 255.543 286.985 255.476 287.011C255.423 287.025 255.364 287.031 255.297 287.031C255.218 287.031 255.178 287.005 255.178 286.952C255.178 286.899 255.191 286.852 255.218 286.812C255.257 286.759 255.291 286.713 255.317 286.673C255.98 285.652 256.617 284.604 257.227 283.53C257.837 282.442 258.315 281.315 258.659 280.148C258.726 280.161 258.845 280.201 259.017 280.267C259.19 280.32 259.382 280.386 259.594 280.466C259.807 280.532 259.992 280.592 260.151 280.645C260.311 280.685 260.403 280.705 260.43 280.705H267.99ZM286.333 279.77V286.494C286.333 287.741 286.14 288.842 285.756 289.797C285.371 290.738 284.648 291.58 283.587 292.323C283.123 292.655 282.626 292.946 282.095 293.198C281.578 293.437 281.047 293.643 280.504 293.815C280.053 293.948 279.549 294.08 278.992 294.213C278.448 294.346 277.944 294.412 277.48 294.412C277.201 294.412 276.949 294.313 276.724 294.114C276.498 293.928 276.385 293.689 276.385 293.397C276.385 293.106 276.492 292.84 276.704 292.602C276.929 292.363 277.188 292.244 277.48 292.244C277.785 292.244 278.037 292.363 278.236 292.602C278.448 292.84 278.554 293.106 278.554 293.397C278.554 293.45 278.547 293.51 278.534 293.576C278.534 293.643 278.527 293.709 278.514 293.775C278.899 293.669 279.277 293.55 279.648 293.417C280.019 293.285 280.378 293.126 280.722 292.94C281.704 292.37 282.467 291.779 283.01 291.169C283.554 290.559 283.932 289.856 284.144 289.06C284.356 288.265 284.463 287.31 284.463 286.196V279.77H286.333ZM280.961 286.335C280.63 286.72 280.199 287.058 279.668 287.35C279.137 287.628 278.614 287.767 278.096 287.767C277.619 287.767 277.294 287.668 277.122 287.469C276.949 287.257 276.863 286.918 276.863 286.454V280.486H278.633L278.614 286.176C278.614 286.388 278.647 286.527 278.713 286.594C278.779 286.647 278.919 286.673 279.131 286.673C279.476 286.673 279.787 286.633 280.066 286.554C280.344 286.474 280.636 286.375 280.941 286.255C280.955 286.255 280.961 286.282 280.961 286.335ZM298.946 288.941C298.946 289.034 298.893 289.08 298.787 289.08C298.747 289.08 298.707 289.08 298.667 289.08C298.641 289.067 298.608 289.054 298.568 289.041C298.289 288.881 298.004 288.643 297.712 288.324C297.421 287.993 297.155 287.641 296.917 287.27C296.678 286.885 296.505 286.547 296.399 286.255C296.479 286.229 296.612 286.176 296.797 286.096C296.983 286.017 297.162 285.944 297.334 285.877C297.52 285.798 297.633 285.758 297.673 285.758C297.752 285.758 297.799 285.804 297.812 285.897C297.825 285.91 297.832 285.937 297.832 285.977C297.832 286.03 297.838 286.07 297.852 286.096C297.852 286.176 297.865 286.249 297.891 286.315C297.931 286.368 297.958 286.428 297.971 286.494C298.09 286.865 298.223 287.243 298.369 287.628C298.515 287.999 298.674 288.364 298.846 288.722C298.873 288.749 298.893 288.782 298.906 288.822C298.933 288.861 298.946 288.901 298.946 288.941ZM306.347 285.838C306.028 287.283 305.564 288.596 304.954 289.777C304.344 290.957 303.548 291.978 302.567 292.84C301.598 293.689 300.391 294.366 298.946 294.87C298.76 294.936 298.555 295.002 298.329 295.069C298.104 295.135 297.891 295.168 297.692 295.168C297.48 295.168 297.295 295.088 297.135 294.929C296.99 294.77 296.917 294.584 296.917 294.372C296.917 294.16 296.99 293.968 297.135 293.795C297.295 293.61 297.48 293.517 297.692 293.517C297.918 293.517 298.11 293.603 298.269 293.775C298.442 293.948 298.528 294.147 298.528 294.372C298.528 294.478 298.508 294.584 298.468 294.691C299.344 294.293 300.139 293.769 300.856 293.119C301.572 292.456 302.195 291.706 302.726 290.871C303.27 290.035 303.707 289.153 304.039 288.225C304.37 287.296 304.589 286.368 304.695 285.44L306.347 285.838ZM301.632 288.722C301.632 288.828 301.579 288.881 301.472 288.881C301.446 288.881 301.406 288.875 301.353 288.861C301.313 288.835 301.28 288.815 301.254 288.802C300.975 288.629 300.697 288.391 300.418 288.086C300.139 287.767 299.887 287.429 299.662 287.071C299.45 286.7 299.291 286.361 299.185 286.056C299.264 286.03 299.39 285.977 299.563 285.897C299.735 285.804 299.907 285.725 300.08 285.658C300.252 285.579 300.372 285.539 300.438 285.539C300.504 285.539 300.551 285.605 300.577 285.738C300.617 285.857 300.65 285.983 300.677 286.116C300.703 286.249 300.723 286.342 300.736 286.395C300.935 287.111 301.207 287.82 301.552 288.523C301.605 288.603 301.632 288.669 301.632 288.722ZM327.674 280.705C327.581 281.408 327.395 282.19 327.116 283.052C326.838 283.901 326.513 284.737 326.142 285.559C325.77 286.368 325.392 287.078 325.008 287.688C324.093 289.16 322.972 290.44 321.645 291.527C320.332 292.615 318.834 293.411 317.149 293.915C316.738 294.047 316.314 294.153 315.876 294.233C315.452 294.313 315.027 294.352 314.603 294.352C314.324 294.352 314.072 294.26 313.847 294.074C313.621 293.875 313.509 293.63 313.509 293.338C313.509 293.046 313.615 292.787 313.827 292.562C314.052 292.336 314.311 292.224 314.603 292.224C314.895 292.224 315.147 292.343 315.359 292.582C315.571 292.807 315.677 293.059 315.677 293.338C315.677 293.391 315.67 293.444 315.657 293.497C315.644 293.55 315.624 293.61 315.598 293.676C317.667 293 319.417 291.872 320.85 290.294C321.566 289.498 322.209 288.623 322.779 287.668C323.35 286.713 323.841 285.712 324.252 284.664C324.676 283.616 325.021 282.581 325.286 281.56H319.915C319.61 282.263 319.238 282.966 318.801 283.669C318.363 284.359 317.852 284.995 317.269 285.579C316.698 286.149 316.055 286.607 315.339 286.952C315.286 286.965 315.226 286.985 315.16 287.011C315.107 287.025 315.047 287.031 314.981 287.031C314.901 287.031 314.861 287.005 314.861 286.952C314.861 286.899 314.875 286.852 314.901 286.812C314.941 286.759 314.974 286.713 315.001 286.673C315.664 285.652 316.3 284.604 316.911 283.53C317.521 282.442 317.998 281.315 318.343 280.148C318.409 280.161 318.529 280.201 318.701 280.267C318.874 280.32 319.066 280.386 319.278 280.466C319.49 280.532 319.676 280.592 319.835 280.645C319.994 280.685 320.087 280.705 320.114 280.705H327.674Z" fill="white"/>
</g>
<defs>
<filter id="filter0_f_279_127" x="0.527313" y="0.527313" width="578.434" height="578.434" filterUnits="userSpaceOnUse" color-interpolation-filters="sRGB">
<feFlood flood-opacity="0" result="BackgroundImageFix"/>
<feBlend mode="normal" in="SourceGraphic" in2="BackgroundImageFix" result="shape"/>
<feGaussianBlur stdDeviation="49.7363" result="effect1_foregroundBlur_279_127"/>
</filter>
<filter id="filter1_ddi_279_127" x="227.823" y="238.765" width="134.288" height="110.663" filterUnits="userSpaceOnUse" color-interpolation-filters="sRGB">
<feFlood flood-opacity="0" result="BackgroundImageFix"/>
<feColorMatrix in="SourceAlpha" type="matrix" values="0 0 0 0 0 0 0 0 0 0 0 0 0 0 0 0 0 0 127 0" result="hardAlpha"/>
<feOffset dx="2.48682" dy="1.98945"/>
<feComposite in2="hardAlpha" operator="out"/>
<feColorMatrix type="matrix" values="0 0 0 0 1 0 0 0 0 0.342497 0 0 0 0 0.937972 0 0 0 1 0"/>
<feBlend mode="normal" in2="BackgroundImageFix" result="effect1_dropShadow_279_127"/>
<feColorMatrix in="SourceAlpha" type="matrix" values="0 0 0 0 0 0 0 0 0 0 0 0 0 0 0 0 0 0 127 0" result="hardAlpha"/>
<feOffset dx="4.97363" dy="3.97891"/>
<feGaussianBlur stdDeviation="2.48682"/>
<feComposite in2="hardAlpha" operator="out"/>
<feColorMatrix type="matrix" values="0 0 0 0 0 0 0 0 0 0 0 0 0 0 0 0 0 0 0.25 0"/>
<feBlend mode="normal" in2="effect1_dropShadow_279_127" result="effect2_dropShadow_279_127"/>
<feBlend mode="normal" in="SourceGraphic" in2="effect2_dropShadow_279_127" result="shape"/>
<feColorMatrix in="SourceAlpha" type="matrix" values="0 0 0 0 0 0 0 0 0 0 0 0 0 0 0 0 0 0 127 0" result="hardAlpha"/>
<feOffset dx="1.98945" dy="1.98945"/>
<feComposite in2="hardAlpha" operator="arithmetic" k2="-1" k3="1"/>
<feColorMatrix type="matrix" values="0 0 0 0 1 0 0 0 0 0.663601 0 0 0 0 0.968265 0 0 0 1 0"/>
<feBlend mode="normal" in2="shape" result="effect3_innerShadow_279_127"/>
</filter>
<filter id="filter2_d_279_127" x="252.83" y="278.775" width="74.8429" height="16.3932" filterUnits="userSpaceOnUse" color-interpolation-filters="sRGB">
<feFlood flood-opacity="0" result="BackgroundImageFix"/>
<feColorMatrix in="SourceAlpha" type="matrix" values="0 0 0 0 0 0 0 0 0 0 0 0 0 0 0 0 0 0 127 0" result="hardAlpha"/>
<feOffset dx="-0.994727" dy="-0.994727"/>
<feComposite in2="hardAlpha" operator="out"/>
<feColorMatrix type="matrix" values="0 0 0 0 0.911761 0 0 0 0 0.379805 0 0 0 0 0.861099 0 0 0 1 0"/>
<feBlend mode="normal" in2="BackgroundImageFix" result="effect1_dropShadow_279_127"/>
<feBlend mode="normal" in="SourceGraphic" in2="effect1_dropShadow_279_127" result="shape"/>
</filter>
</defs>
</svg>
