<svg width="270" height="223" viewBox="0 0 270 223" fill="none" xmlns="http://www.w3.org/2000/svg">
<g filter="url(#filter0_ddi_49_252)">
<path d="M185.854 2.01144C147.773 2.69087 129.136 27.6585 125 50.3586C120.864 27.6585 102.228 2.69042 64.1455 2.01144C29.0342 1.38628 0 26.4078 0 72.072C0 130.692 71.5732 157.77 120.516 201.558C122.22 203.083 121.819 203.044 121.819 203.044C122.623 203.963 123.779 204.495 124.995 204.495V204.5C124.995 204.5 124.998 204.5 125 204.5C125 204.5 125.003 204.5 125.005 204.5V204.495C126.221 204.495 127.376 203.963 128.181 203.044C128.181 203.044 127.78 203.083 129.484 201.558C178.427 157.77 250 130.692 250 72.072C250 26.4078 220.966 1.38628 185.854 2.01144Z" fill="#FF90F5"/>
</g>
<g filter="url(#filter1_d_49_252)">
<path d="M80.76 84.08C80.5733 85.4933 80.2 87.0667 79.64 88.8C79.08 90.5067 78.4267 92.1867 77.68 93.84C76.9333 95.4667 76.1733 96.8933 75.4 98.12C73.56 101.08 71.3067 103.653 68.64 105.84C66 108.027 62.9867 109.627 59.6 110.64C58.7733 110.907 57.92 111.12 57.04 111.28C56.1867 111.44 55.3333 111.52 54.48 111.52C53.92 111.52 53.4133 111.333 52.96 110.96C52.5067 110.56 52.28 110.067 52.28 109.48C52.28 108.893 52.4933 108.373 52.92 107.92C53.3733 107.467 53.8933 107.24 54.48 107.24C55.0667 107.24 55.5733 107.48 56 107.96C56.4267 108.413 56.64 108.92 56.64 109.48C56.64 109.587 56.6267 109.693 56.6 109.8C56.5733 109.907 56.5333 110.027 56.48 110.16C60.64 108.8 64.16 106.533 67.04 103.36C68.48 101.76 69.7733 100 70.92 98.08C72.0667 96.16 73.0533 94.1467 73.88 92.04C74.7333 89.9333 75.4267 87.8533 75.96 85.8H65.16C64.5467 87.2133 63.8 88.6267 62.92 90.04C62.04 91.4267 61.0133 92.7067 59.84 93.88C58.6933 95.0267 57.4 95.9467 55.96 96.64C55.8533 96.6667 55.7333 96.7067 55.6 96.76C55.4933 96.7867 55.3733 96.8 55.24 96.8C55.08 96.8 55 96.7467 55 96.64C55 96.5333 55.0267 96.44 55.08 96.36C55.16 96.2533 55.2267 96.16 55.28 96.08C56.6133 94.0267 57.8933 91.92 59.12 89.76C60.3467 87.5733 61.3067 85.3067 62 82.96C62.1333 82.9867 62.3733 83.0667 62.72 83.2C63.0667 83.3067 63.4533 83.44 63.88 83.6C64.3067 83.7333 64.68 83.8533 65 83.96C65.32 84.04 65.5067 84.08 65.56 84.08H80.76ZM117.64 82.2V95.72C117.64 98.2267 117.253 100.44 116.48 102.36C115.707 104.253 114.253 105.947 112.12 107.44C111.187 108.107 110.187 108.693 109.12 109.2C108.08 109.68 107.013 110.093 105.92 110.44C105.013 110.707 104 110.973 102.88 111.24C101.787 111.507 100.773 111.64 99.84 111.64C99.28 111.64 98.7733 111.44 98.32 111.04C97.8667 110.667 97.64 110.187 97.64 109.6C97.64 109.013 97.8533 108.48 98.28 108C98.7333 107.52 99.2533 107.28 99.84 107.28C100.453 107.28 100.96 107.52 101.36 108C101.787 108.48 102 109.013 102 109.6C102 109.707 101.987 109.827 101.96 109.96C101.96 110.093 101.947 110.227 101.92 110.36C102.693 110.147 103.453 109.907 104.2 109.64C104.947 109.373 105.667 109.053 106.36 108.68C108.333 107.533 109.867 106.347 110.96 105.12C112.053 103.893 112.813 102.48 113.24 100.88C113.667 99.28 113.88 97.36 113.88 95.12V82.2H117.64ZM106.84 95.4C106.173 96.1733 105.307 96.8533 104.24 97.44C103.173 98 102.12 98.28 101.08 98.28C100.12 98.28 99.4667 98.08 99.12 97.68C98.7733 97.2533 98.6 96.5733 98.6 95.64V83.64H102.16L102.12 95.08C102.12 95.5067 102.187 95.7867 102.32 95.92C102.453 96.0267 102.733 96.08 103.16 96.08C103.853 96.08 104.48 96 105.04 95.84C105.6 95.68 106.187 95.48 106.8 95.24C106.827 95.24 106.84 95.2933 106.84 95.4ZM143 100.64C143 100.827 142.893 100.92 142.68 100.92C142.6 100.92 142.52 100.92 142.44 100.92C142.387 100.893 142.32 100.867 142.24 100.84C141.68 100.52 141.107 100.04 140.52 99.4C139.933 98.7333 139.4 98.0267 138.92 97.28C138.44 96.5067 138.093 95.8267 137.88 95.24C138.04 95.1867 138.307 95.08 138.68 94.92C139.053 94.76 139.413 94.6133 139.76 94.48C140.133 94.32 140.36 94.24 140.44 94.24C140.6 94.24 140.693 94.3333 140.72 94.52C140.747 94.5467 140.76 94.6 140.76 94.68C140.76 94.7867 140.773 94.8667 140.8 94.92C140.8 95.08 140.827 95.2267 140.88 95.36C140.96 95.4667 141.013 95.5867 141.04 95.72C141.28 96.4667 141.547 97.2267 141.84 98C142.133 98.7467 142.453 99.48 142.8 100.2C142.853 100.253 142.893 100.32 142.92 100.4C142.973 100.48 143 100.56 143 100.64ZM157.88 94.4C157.24 97.3067 156.307 99.9467 155.08 102.32C153.853 104.693 152.253 106.747 150.28 108.48C148.333 110.187 145.907 111.547 143 112.56C142.627 112.693 142.213 112.827 141.76 112.96C141.307 113.093 140.88 113.16 140.48 113.16C140.053 113.16 139.68 113 139.36 112.68C139.067 112.36 138.92 111.987 138.92 111.56C138.92 111.133 139.067 110.747 139.36 110.4C139.68 110.027 140.053 109.84 140.48 109.84C140.933 109.84 141.32 110.013 141.64 110.36C141.987 110.707 142.16 111.107 142.16 111.56C142.16 111.773 142.12 111.987 142.04 112.2C143.8 111.4 145.4 110.347 146.84 109.04C148.28 107.707 149.533 106.2 150.6 104.52C151.693 102.84 152.573 101.067 153.24 99.2C153.907 97.3333 154.347 95.4667 154.56 93.6L157.88 94.4ZM148.4 100.2C148.4 100.413 148.293 100.52 148.08 100.52C148.027 100.52 147.947 100.507 147.84 100.48C147.76 100.427 147.693 100.387 147.64 100.36C147.08 100.013 146.52 99.5333 145.96 98.92C145.4 98.28 144.893 97.6 144.44 96.88C144.013 96.1333 143.693 95.4533 143.48 94.84C143.64 94.7867 143.893 94.68 144.24 94.52C144.587 94.3333 144.933 94.1733 145.28 94.04C145.627 93.88 145.867 93.8 146 93.8C146.133 93.8 146.227 93.9333 146.28 94.2C146.36 94.44 146.427 94.6933 146.48 94.96C146.533 95.2267 146.573 95.4133 146.6 95.52C147 96.96 147.547 98.3867 148.24 99.8C148.347 99.96 148.4 100.093 148.4 100.2ZM200.76 84.08C200.573 85.4933 200.2 87.0667 199.64 88.8C199.08 90.5067 198.427 92.1867 197.68 93.84C196.933 95.4667 196.173 96.8933 195.4 98.12C193.56 101.08 191.307 103.653 188.64 105.84C186 108.027 182.987 109.627 179.6 110.64C178.773 110.907 177.92 111.12 177.04 111.28C176.187 111.44 175.333 111.52 174.48 111.52C173.92 111.52 173.413 111.333 172.96 110.96C172.507 110.56 172.28 110.067 172.28 109.48C172.28 108.893 172.493 108.373 172.92 107.92C173.373 107.467 173.893 107.24 174.48 107.24C175.067 107.24 175.573 107.48 176 107.96C176.427 108.413 176.64 108.92 176.64 109.48C176.64 109.587 176.627 109.693 176.6 109.8C176.573 109.907 176.533 110.027 176.48 110.16C180.64 108.8 184.16 106.533 187.04 103.36C188.48 101.76 189.773 100 190.92 98.08C192.067 96.16 193.053 94.1467 193.88 92.04C194.733 89.9333 195.427 87.8533 195.96 85.8H185.16C184.547 87.2133 183.8 88.6267 182.92 90.04C182.04 91.4267 181.013 92.7067 179.84 93.88C178.693 95.0267 177.4 95.9467 175.96 96.64C175.853 96.6667 175.733 96.7067 175.6 96.76C175.493 96.7867 175.373 96.8 175.24 96.8C175.08 96.8 175 96.7467 175 96.64C175 96.5333 175.027 96.44 175.08 96.36C175.16 96.2533 175.227 96.16 175.28 96.08C176.613 94.0267 177.893 91.92 179.12 89.76C180.347 87.5733 181.307 85.3067 182 82.96C182.133 82.9867 182.373 83.0667 182.72 83.2C183.067 83.3067 183.453 83.44 183.88 83.6C184.307 83.7333 184.68 83.8533 185 83.96C185.32 84.04 185.507 84.08 185.56 84.08H200.76Z" fill="white"/>
</g>
<defs>
<filter id="filter0_ddi_49_252" x="0" y="0" width="270" height="222.5" filterUnits="userSpaceOnUse" color-interpolation-filters="sRGB">
<feFlood flood-opacity="0" result="BackgroundImageFix"/>
<feColorMatrix in="SourceAlpha" type="matrix" values="0 0 0 0 0 0 0 0 0 0 0 0 0 0 0 0 0 0 127 0" result="hardAlpha"/>
<feOffset dx="5" dy="4"/>
<feComposite in2="hardAlpha" operator="out"/>
<feColorMatrix type="matrix" values="0 0 0 0 1 0 0 0 0 0.342497 0 0 0 0 0.937972 0 0 0 1 0"/>
<feBlend mode="normal" in2="BackgroundImageFix" result="effect1_dropShadow_49_252"/>
<feColorMatrix in="SourceAlpha" type="matrix" values="0 0 0 0 0 0 0 0 0 0 0 0 0 0 0 0 0 0 127 0" result="hardAlpha"/>
<feOffset dx="10" dy="8"/>
<feGaussianBlur stdDeviation="5"/>
<feComposite in2="hardAlpha" operator="out"/>
<feColorMatrix type="matrix" values="0 0 0 0 0 0 0 0 0 0 0 0 0 0 0 0 0 0 0.25 0"/>
<feBlend mode="normal" in2="effect1_dropShadow_49_252" result="effect2_dropShadow_49_252"/>
<feBlend mode="normal" in="SourceGraphic" in2="effect2_dropShadow_49_252" result="shape"/>
<feColorMatrix in="SourceAlpha" type="matrix" values="0 0 0 0 0 0 0 0 0 0 0 0 0 0 0 0 0 0 127 0" result="hardAlpha"/>
<feOffset dx="4" dy="4"/>
<feComposite in2="hardAlpha" operator="arithmetic" k2="-1" k3="1"/>
<feColorMatrix type="matrix" values="0 0 0 0 1 0 0 0 0 0.663601 0 0 0 0 0.968265 0 0 0 1 0"/>
<feBlend mode="normal" in2="shape" result="effect3_innerShadow_49_252"/>
</filter>
<filter id="filter1_d_49_252" x="50.28" y="80.2002" width="150.48" height="32.96" filterUnits="userSpaceOnUse" color-interpolation-filters="sRGB">
<feFlood flood-opacity="0" result="BackgroundImageFix"/>
<feColorMatrix in="SourceAlpha" type="matrix" values="0 0 0 0 0 0 0 0 0 0 0 0 0 0 0 0 0 0 127 0" result="hardAlpha"/>
<feOffset dx="-2" dy="-2"/>
<feComposite in2="hardAlpha" operator="out"/>
<feColorMatrix type="matrix" values="0 0 0 0 0.911761 0 0 0 0 0.379805 0 0 0 0 0.861099 0 0 0 1 0"/>
<feBlend mode="normal" in2="BackgroundImageFix" result="effect1_dropShadow_49_252"/>
<feBlend mode="normal" in="SourceGraphic" in2="effect1_dropShadow_49_252" result="shape"/>
</filter>
</defs>
</svg>
