<svg width="1366" height="199" viewBox="0 0 1366 199" fill="none" xmlns="http://www.w3.org/2000/svg">
<rect x="-2" y="39" width="1368" height="160" fill="white"/>
<path d="M-184 78.5C-126.2 59.1667 -68.4 59.1667 -10.6 78.5C47.2 97.8333 105 97.8333 162.8 78.5C220.6 59.1667 278.4 59.1667 336.2 78.5C394 97.8333 451.8 97.8333 509.6 78.5C567.4 59.1667 625.2 59.1667 683 78.5C740.8 97.8333 798.6 97.8333 856.4 78.5C914.2 59.1667 972 59.1667 1029.8 78.5C1087.6 97.8333 1145.4 97.8333 1203.2 78.5C1261 59.1667 1318.8 59.1667 1376.6 78.5C1434.4 97.8333 1492.2 97.8333 1550 78.5" stroke="#FFB5F8" stroke-width="127"/>
<path d="M-184 98.5C-126.2 79.1667 -68.4 79.1667 -10.6 98.5C47.2 117.833 105 117.833 162.8 98.5C220.6 79.1667 278.4 79.1667 336.2 98.5C394 117.833 451.8 117.833 509.6 98.5C567.4 79.1667 625.2 79.1667 683 98.5C740.8 117.833 798.6 117.833 856.4 98.5C914.2 79.1667 972 79.1667 1029.8 98.5C1087.6 117.833 1145.4 117.833 1203.2 98.5C1261 79.1667 1318.8 79.1667 1376.6 98.5C1434.4 117.833 1492.2 117.833 1550 98.5" stroke="#FFDEFC" stroke-width="127"/>
<path d="M-184 118.5C-126.2 99.1667 -68.4 99.1667 -10.6 118.5C47.2 137.833 105 137.833 162.8 118.5C220.6 99.1667 278.4 99.1667 336.2 118.5C394 137.833 451.8 137.833 509.6 118.5C567.4 99.1667 625.2 99.1667 683 118.5C740.8 137.833 798.6 137.833 856.4 118.5C914.2 99.1667 972 99.1667 1029.8 118.5C1087.6 137.833 1145.4 137.833 1203.2 118.5C1261 99.1667 1318.8 99.1667 1376.6 118.5C1434.4 137.833 1492.2 137.833 1550 118.5" stroke="white" stroke-width="127"/>
</svg>
