<svg width="1704" height="170" viewBox="0 0 1704 170" fill="none" xmlns="http://www.w3.org/2000/svg">
<mask id="mask0_243_136" style="mask-type:alpha" maskUnits="userSpaceOnUse" x="0" y="0" width="1704" height="170">
<rect width="1704" height="170" fill="#C1C1C1"/>
</mask>
<g mask="url(#mask0_243_136)">
<g filter="url(#filter0_d_243_136)">
<path d="M-5 43C52.8 59 110.6 59 168.4 43C226.2 27 284 27 341.8 43C399.6 59 457.4 59 515.2 43C573 27 630.8 27 688.6 43C746.4 59 804.2 59 862 43C919.8 27 977.6 27 1035.4 43C1093.2 59 1151 59 1208.8 43C1266.6 27 1324.4 27 1382.2 43C1440 59 1497.8 59 1555.6 43C1613.4 27 1671.2 27 1729 43" stroke="#FFB5F8" stroke-width="127"/>
<path d="M-5 19C52.8 35 110.6 35 168.4 19C226.2 3 284 3 341.8 19C399.6 35 457.4 35 515.2 19C573 3 630.8 3 688.6 19C746.4 35 804.2 35 862 19C919.8 3 977.6 3 1035.4 19C1093.2 35 1151 35 1208.8 19C1266.6 3 1324.4 3 1382.2 19C1440 35 1497.8 35 1555.6 19C1613.4 3 1671.2 3 1729 19" stroke="#FFDEFC" stroke-width="127"/>
<path d="M-5 -5C52.8 11 110.6 11 168.4 -5C226.2 -21 284 -21 341.8 -5C399.6 11 457.4 11 515.2 -5C573 -21 630.8 -21 688.6 -5C746.4 11 804.2 11 862 -5C919.8 -21 977.6 -21 1035.4 -5C1093.2 11 1151 11 1208.8 -5C1266.6 -21 1324.4 -21 1382.2 -5C1440 11 1497.8 11 1555.6 -5C1613.4 -21 1671.2 -21 1729 -5" stroke="white" stroke-width="127"/>
</g>
</g>
<defs>
<filter id="filter0_d_243_136" x="-31.9404" y="-95.5" width="1807.88" height="239" filterUnits="userSpaceOnUse" color-interpolation-filters="sRGB">
<feFlood flood-opacity="0" result="BackgroundImageFix"/>
<feColorMatrix in="SourceAlpha" type="matrix" values="0 0 0 0 0 0 0 0 0 0 0 0 0 0 0 0 0 0 127 0" result="hardAlpha"/>
<feOffset dx="10" dy="5"/>
<feGaussianBlur stdDeviation="10"/>
<feComposite in2="hardAlpha" operator="out"/>
<feColorMatrix type="matrix" values="0 0 0 0 0.551936 0 0 0 0 0 0 0 0 0 0.500424 0 0 0 0.7 0"/>
<feBlend mode="normal" in2="BackgroundImageFix" result="effect1_dropShadow_243_136"/>
<feBlend mode="normal" in="SourceGraphic" in2="effect1_dropShadow_243_136" result="shape"/>
</filter>
</defs>
</svg>
