<svg width="135" height="77" viewBox="0 0 135 77" fill="none" xmlns="http://www.w3.org/2000/svg">
<mask id="mask0_194_115" style="mask-type:alpha" maskUnits="userSpaceOnUse" x="0" y="0" width="135" height="77">
<rect width="135" height="77" fill="#D9D9D9"/>
</mask>
<g mask="url(#mask0_194_115)">
<mask id="path-2-outside-1_194_115" maskUnits="userSpaceOnUse" x="-0.119141" y="-0.00976563" width="135" height="76" fill="black">
<rect fill="white" x="-0.119141" y="-0.00976563" width="135" height="76"/>
<path d="M52.6329 31.5262H25.6329V36.7102H43.7769C43.9209 35.8942 44.3049 35.2702 44.9289 34.8382C45.5529 34.4062 46.2729 34.1902 47.0889 34.1902C47.8569 34.1902 48.5529 34.5022 49.1769 35.1262C49.8009 35.7502 50.1129 36.4462 50.1129 37.2142C50.1129 38.0302 49.7769 38.7022 49.1049 39.2302C48.4809 39.7102 47.7849 39.9502 47.0169 39.9502H25.6329V45.1342H43.7769C43.9689 44.4142 44.4009 43.8382 45.0729 43.4062C45.7449 42.9262 46.4409 42.6862 47.1609 42.6862C47.9289 42.6862 48.6009 42.9982 49.1769 43.6222C49.8009 44.1982 50.1129 44.8702 50.1129 45.6382C50.1129 46.4062 49.8009 47.0542 49.1769 47.5822C48.6009 48.0622 47.9529 48.3022 47.2329 48.3022H25.6329V53.1982H47.8809C49.4169 53.1982 50.5929 52.7662 51.4089 51.9022C52.2249 50.9902 52.6329 49.7902 52.6329 48.3022V31.5262ZM27.0729 20.7982V10.1422H19.3689V20.7982H27.0729ZM41.4009 20.7982V10.1422H34.7769V20.7982H41.4009ZM57.7449 10.1422H49.3929V20.7982H54.3609C55.6089 20.7982 56.4729 20.2462 56.9529 19.1422C57.4809 18.0382 57.7449 16.9582 57.7449 15.9022V10.1422ZM70.5609 66.3742C70.5609 67.6702 70.1289 68.5582 69.2649 69.0382C68.4009 69.5182 67.3929 69.7582 66.2409 69.7582C64.6089 69.7582 62.7849 69.4942 60.7689 68.9662C58.7529 68.4382 56.6889 67.7422 54.5769 66.8782C52.4649 66.0622 50.4489 65.1742 48.5289 64.2142C46.6569 63.2542 45.0249 62.3422 43.6329 61.4782C43.4409 61.3342 43.2729 61.2142 43.1289 61.1182C42.9849 61.0222 42.9129 60.8302 42.9129 60.5422C42.9129 60.4462 43.1049 60.2302 43.4889 59.8942C43.9209 59.5102 44.4009 59.0782 44.9289 58.5982C45.4569 58.1182 45.9609 57.6862 46.4409 57.3022C46.9209 56.9182 47.2329 56.6782 47.3769 56.5822H31.3209C31.5609 56.7742 31.9929 57.1582 32.6169 57.7342C33.2409 58.2622 33.8169 58.8142 34.3449 59.3902C34.9209 59.9182 35.2089 60.3022 35.2089 60.5422C35.2089 60.8302 35.1369 61.0462 34.9929 61.1902C34.8489 61.3342 34.6569 61.4782 34.4169 61.6222C32.0649 62.9662 29.4489 64.1902 26.5689 65.2942C23.7369 66.4462 20.8329 67.3582 17.8569 68.0302C14.8809 68.7022 12.0009 69.0382 9.21686 69.0382C8.97686 69.0382 8.52086 69.0382 7.84886 69.0382C7.17686 69.0382 6.84086 68.8462 6.84086 68.4622C6.84086 68.3662 6.91286 68.2462 7.05686 68.1022C7.24886 68.0062 7.36886 67.9342 7.41686 67.8862C7.56086 67.7902 7.70486 67.7182 7.84886 67.6702C8.04086 67.6222 8.20886 67.5742 8.35286 67.5262C9.88886 66.9982 11.3049 66.4222 12.6009 65.7982C17.5449 63.4942 22.0569 60.4222 26.1369 56.5822H17.0649V28.0702H61.3449V47.2942C61.3449 50.4142 60.4089 52.6702 58.5369 54.0622C56.6649 55.4062 54.3129 56.2222 51.4809 56.5102C53.0169 58.4302 54.8889 60.2062 57.0969 61.8382C59.3529 63.4702 61.5129 64.8862 63.5769 66.0862C63.7689 65.2702 64.2009 64.5742 64.8729 63.9982C65.5929 63.4702 66.3609 63.2062 67.1769 63.2062C67.9449 63.2062 68.6889 63.5182 69.4089 64.1422C70.1769 64.8142 70.5609 65.5582 70.5609 66.3742ZM66.8169 15.9742C66.8169 18.0382 66.5049 19.6462 65.8809 20.7982C65.2569 21.9022 64.3929 22.6942 63.2889 23.1742C62.1849 23.6542 60.9129 23.9422 59.4729 24.0382C58.0809 24.1342 56.5689 24.1822 54.9369 24.1822H11.0169V6.75823H66.8169V15.9742ZM128.593 38.6542C128.593 42.2062 127.825 45.5182 126.289 48.5902C124.753 51.6142 122.737 54.3502 120.241 56.7982C118.033 59.0062 115.657 60.7822 113.113 62.1262C110.569 63.4702 107.857 64.6702 104.977 65.7262C104.497 65.8702 103.729 66.1102 102.673 66.4462C101.665 66.7822 100.657 67.0942 99.6489 67.3822C98.6409 67.6702 97.9209 67.8142 97.4889 67.8142C97.2969 67.8142 97.0809 67.7422 96.8409 67.5982C96.6009 67.5022 96.4809 67.3342 96.4809 67.0942C96.4809 66.8062 96.6009 66.5662 96.8409 66.3742C97.0809 66.1822 97.2969 66.0622 97.4889 66.0142C98.4489 65.6302 99.5529 65.1502 100.801 64.5742C102.049 63.9982 103.153 63.3982 104.113 62.7742C106.897 60.9982 109.465 58.9102 111.817 56.5102C114.217 54.0622 116.137 51.3262 117.577 48.3022C119.017 45.2782 119.737 42.0622 119.737 38.6542C119.737 37.0222 119.473 35.3662 118.945 33.6862C118.465 31.9582 117.649 30.5182 116.497 29.3662C115.345 28.2142 113.785 27.6382 111.817 27.6382C110.473 27.6382 108.865 28.0222 106.993 28.7902C105.169 29.5582 103.369 30.4942 101.593 31.5982C99.8649 32.6542 98.4729 33.6142 97.4169 34.4782C97.1769 34.6702 96.9129 34.8622 96.6249 35.0542C96.3369 35.2462 96.0009 35.3422 95.6169 35.3422C95.1369 35.3422 94.8009 35.1982 94.6089 34.9102C94.4649 34.5742 94.3449 34.2382 94.2489 33.9022C94.0089 33.0862 93.8409 32.1982 93.7449 31.2382C93.6969 30.2782 93.6249 29.3662 93.5289 28.5022C96.5049 27.0622 99.5529 25.9342 102.673 25.1182C105.793 24.3022 109.009 23.8942 112.321 23.8942C117.169 23.8942 121.081 25.0702 124.057 27.4222C127.081 29.7742 128.593 33.5182 128.593 38.6542ZM119.161 17.8462C119.161 18.2782 118.921 18.5422 118.441 18.6382C117.961 18.6862 117.577 18.7102 117.289 18.7102C116.185 18.7102 115.081 18.6382 113.977 18.4942C112.921 18.3022 111.841 18.0862 110.737 17.8462C110.353 17.7502 109.585 17.5102 108.433 17.1262C107.329 16.7422 106.129 16.3102 104.833 15.8302C103.585 15.3022 102.505 14.7982 101.593 14.3182C100.681 13.7902 100.225 13.3342 100.225 12.9502C100.225 12.8062 100.417 12.4702 100.801 11.9422C101.185 11.3662 101.641 10.7662 102.169 10.1422C102.745 9.47023 103.273 8.87023 103.753 8.34223C104.233 7.81423 104.545 7.47823 104.689 7.33423C105.073 7.04623 105.481 6.90223 105.913 6.90223C106.201 6.90223 106.441 6.97423 106.633 7.11823C106.969 7.31023 107.401 7.69423 107.929 8.27023C108.457 8.79823 108.865 9.20623 109.153 9.49423C110.353 10.8382 111.673 12.0622 113.113 13.1662C114.601 14.2222 116.089 15.2302 117.577 16.1902C117.865 16.3822 118.201 16.5982 118.585 16.8382C118.969 17.0782 119.161 17.4142 119.161 17.8462Z"/>
</mask>
<path d="M52.6329 31.5262H25.6329V36.7102H43.7769C43.9209 35.8942 44.3049 35.2702 44.9289 34.8382C45.5529 34.4062 46.2729 34.1902 47.0889 34.1902C47.8569 34.1902 48.5529 34.5022 49.1769 35.1262C49.8009 35.7502 50.1129 36.4462 50.1129 37.2142C50.1129 38.0302 49.7769 38.7022 49.1049 39.2302C48.4809 39.7102 47.7849 39.9502 47.0169 39.9502H25.6329V45.1342H43.7769C43.9689 44.4142 44.4009 43.8382 45.0729 43.4062C45.7449 42.9262 46.4409 42.6862 47.1609 42.6862C47.9289 42.6862 48.6009 42.9982 49.1769 43.6222C49.8009 44.1982 50.1129 44.8702 50.1129 45.6382C50.1129 46.4062 49.8009 47.0542 49.1769 47.5822C48.6009 48.0622 47.9529 48.3022 47.2329 48.3022H25.6329V53.1982H47.8809C49.4169 53.1982 50.5929 52.7662 51.4089 51.9022C52.2249 50.9902 52.6329 49.7902 52.6329 48.3022V31.5262ZM27.0729 20.7982V10.1422H19.3689V20.7982H27.0729ZM41.4009 20.7982V10.1422H34.7769V20.7982H41.4009ZM57.7449 10.1422H49.3929V20.7982H54.3609C55.6089 20.7982 56.4729 20.2462 56.9529 19.1422C57.4809 18.0382 57.7449 16.9582 57.7449 15.9022V10.1422ZM70.5609 66.3742C70.5609 67.6702 70.1289 68.5582 69.2649 69.0382C68.4009 69.5182 67.3929 69.7582 66.2409 69.7582C64.6089 69.7582 62.7849 69.4942 60.7689 68.9662C58.7529 68.4382 56.6889 67.7422 54.5769 66.8782C52.4649 66.0622 50.4489 65.1742 48.5289 64.2142C46.6569 63.2542 45.0249 62.3422 43.6329 61.4782C43.4409 61.3342 43.2729 61.2142 43.1289 61.1182C42.9849 61.0222 42.9129 60.8302 42.9129 60.5422C42.9129 60.4462 43.1049 60.2302 43.4889 59.8942C43.9209 59.5102 44.4009 59.0782 44.9289 58.5982C45.4569 58.1182 45.9609 57.6862 46.4409 57.3022C46.9209 56.9182 47.2329 56.6782 47.3769 56.5822H31.3209C31.5609 56.7742 31.9929 57.1582 32.6169 57.7342C33.2409 58.2622 33.8169 58.8142 34.3449 59.3902C34.9209 59.9182 35.2089 60.3022 35.2089 60.5422C35.2089 60.8302 35.1369 61.0462 34.9929 61.1902C34.8489 61.3342 34.6569 61.4782 34.4169 61.6222C32.0649 62.9662 29.4489 64.1902 26.5689 65.2942C23.7369 66.4462 20.8329 67.3582 17.8569 68.0302C14.8809 68.7022 12.0009 69.0382 9.21686 69.0382C8.97686 69.0382 8.52086 69.0382 7.84886 69.0382C7.17686 69.0382 6.84086 68.8462 6.84086 68.4622C6.84086 68.3662 6.91286 68.2462 7.05686 68.1022C7.24886 68.0062 7.36886 67.9342 7.41686 67.8862C7.56086 67.7902 7.70486 67.7182 7.84886 67.6702C8.04086 67.6222 8.20886 67.5742 8.35286 67.5262C9.88886 66.9982 11.3049 66.4222 12.6009 65.7982C17.5449 63.4942 22.0569 60.4222 26.1369 56.5822H17.0649V28.0702H61.3449V47.2942C61.3449 50.4142 60.4089 52.6702 58.5369 54.0622C56.6649 55.4062 54.3129 56.2222 51.4809 56.5102C53.0169 58.4302 54.8889 60.2062 57.0969 61.8382C59.3529 63.4702 61.5129 64.8862 63.5769 66.0862C63.7689 65.2702 64.2009 64.5742 64.8729 63.9982C65.5929 63.4702 66.3609 63.2062 67.1769 63.2062C67.9449 63.2062 68.6889 63.5182 69.4089 64.1422C70.1769 64.8142 70.5609 65.5582 70.5609 66.3742ZM66.8169 15.9742C66.8169 18.0382 66.5049 19.6462 65.8809 20.7982C65.2569 21.9022 64.3929 22.6942 63.2889 23.1742C62.1849 23.6542 60.9129 23.9422 59.4729 24.0382C58.0809 24.1342 56.5689 24.1822 54.9369 24.1822H11.0169V6.75823H66.8169V15.9742ZM128.593 38.6542C128.593 42.2062 127.825 45.5182 126.289 48.5902C124.753 51.6142 122.737 54.3502 120.241 56.7982C118.033 59.0062 115.657 60.7822 113.113 62.1262C110.569 63.4702 107.857 64.6702 104.977 65.7262C104.497 65.8702 103.729 66.1102 102.673 66.4462C101.665 66.7822 100.657 67.0942 99.6489 67.3822C98.6409 67.6702 97.9209 67.8142 97.4889 67.8142C97.2969 67.8142 97.0809 67.7422 96.8409 67.5982C96.6009 67.5022 96.4809 67.3342 96.4809 67.0942C96.4809 66.8062 96.6009 66.5662 96.8409 66.3742C97.0809 66.1822 97.2969 66.0622 97.4889 66.0142C98.4489 65.6302 99.5529 65.1502 100.801 64.5742C102.049 63.9982 103.153 63.3982 104.113 62.7742C106.897 60.9982 109.465 58.9102 111.817 56.5102C114.217 54.0622 116.137 51.3262 117.577 48.3022C119.017 45.2782 119.737 42.0622 119.737 38.6542C119.737 37.0222 119.473 35.3662 118.945 33.6862C118.465 31.9582 117.649 30.5182 116.497 29.3662C115.345 28.2142 113.785 27.6382 111.817 27.6382C110.473 27.6382 108.865 28.0222 106.993 28.7902C105.169 29.5582 103.369 30.4942 101.593 31.5982C99.8649 32.6542 98.4729 33.6142 97.4169 34.4782C97.1769 34.6702 96.9129 34.8622 96.6249 35.0542C96.3369 35.2462 96.0009 35.3422 95.6169 35.3422C95.1369 35.3422 94.8009 35.1982 94.6089 34.9102C94.4649 34.5742 94.3449 34.2382 94.2489 33.9022C94.0089 33.0862 93.8409 32.1982 93.7449 31.2382C93.6969 30.2782 93.6249 29.3662 93.5289 28.5022C96.5049 27.0622 99.5529 25.9342 102.673 25.1182C105.793 24.3022 109.009 23.8942 112.321 23.8942C117.169 23.8942 121.081 25.0702 124.057 27.4222C127.081 29.7742 128.593 33.5182 128.593 38.6542ZM119.161 17.8462C119.161 18.2782 118.921 18.5422 118.441 18.6382C117.961 18.6862 117.577 18.7102 117.289 18.7102C116.185 18.7102 115.081 18.6382 113.977 18.4942C112.921 18.3022 111.841 18.0862 110.737 17.8462C110.353 17.7502 109.585 17.5102 108.433 17.1262C107.329 16.7422 106.129 16.3102 104.833 15.8302C103.585 15.3022 102.505 14.7982 101.593 14.3182C100.681 13.7902 100.225 13.3342 100.225 12.9502C100.225 12.8062 100.417 12.4702 100.801 11.9422C101.185 11.3662 101.641 10.7662 102.169 10.1422C102.745 9.47023 103.273 8.87023 103.753 8.34223C104.233 7.81423 104.545 7.47823 104.689 7.33423C105.073 7.04623 105.481 6.90223 105.913 6.90223C106.201 6.90223 106.441 6.97423 106.633 7.11823C106.969 7.31023 107.401 7.69423 107.929 8.27023C108.457 8.79823 108.865 9.20623 109.153 9.49423C110.353 10.8382 111.673 12.0622 113.113 13.1662C114.601 14.2222 116.089 15.2302 117.577 16.1902C117.865 16.3822 118.201 16.5982 118.585 16.8382C118.969 17.0782 119.161 17.4142 119.161 17.8462Z" fill="white"/>
<path d="M52.6329 31.5262H58.6329V25.5262H52.6329V31.5262ZM25.6329 31.5262V25.5262H19.6329V31.5262H25.6329ZM25.6329 36.7102H19.6329V42.7102H25.6329V36.7102ZM43.7769 36.7102V42.7102H48.8107L49.6856 37.753L43.7769 36.7102ZM44.9289 34.8382L48.3441 39.7714L48.3441 39.7714L44.9289 34.8382ZM49.1769 35.1262L44.9342 39.3689L44.9342 39.3689L49.1769 35.1262ZM49.1049 39.2302L52.7631 43.986L52.7876 43.9672L52.8118 43.9481L49.1049 39.2302ZM25.6329 39.9502V33.9502H19.6329V39.9502H25.6329ZM25.6329 45.1342H19.6329V51.1342H25.6329V45.1342ZM43.7769 45.1342V51.1342H48.3865L49.5743 46.6802L43.7769 45.1342ZM45.0729 43.4062L48.3174 48.4533L48.4409 48.3739L48.5603 48.2886L45.0729 43.4062ZM49.1769 43.6222L44.768 47.6919L44.9308 47.8683L45.1072 48.0311L49.1769 43.6222ZM49.1769 47.5822L53.018 52.1916L53.0353 52.1771L53.0525 52.1626L49.1769 47.5822ZM25.6329 48.3022V42.3022H19.6329V48.3022H25.6329ZM25.6329 53.1982H19.6329V59.1982H25.6329V53.1982ZM51.4089 51.9022L55.7709 56.022L55.8264 55.9632L55.8803 55.903L51.4089 51.9022ZM27.0729 20.7982V26.7982H33.0729V20.7982H27.0729ZM27.0729 10.1422H33.0729V4.14223H27.0729V10.1422ZM19.3689 10.1422V4.14223H13.3689V10.1422H19.3689ZM19.3689 20.7982H13.3689V26.7982H19.3689V20.7982ZM41.4009 20.7982V26.7982H47.4009V20.7982H41.4009ZM41.4009 10.1422H47.4009V4.14223H41.4009V10.1422ZM34.7769 10.1422V4.14223H28.7769V10.1422H34.7769ZM34.7769 20.7982H28.7769V26.7982H34.7769V20.7982ZM57.7449 10.1422H63.7449V4.14223H57.7449V10.1422ZM49.3929 10.1422V4.14223H43.3929V10.1422H49.3929ZM49.3929 20.7982H43.3929V26.7982H49.3929V20.7982ZM56.9529 19.1422L51.5401 16.5535L51.4935 16.6509L51.4504 16.7499L56.9529 19.1422ZM69.2649 69.0382L72.1787 74.2832L72.1787 74.2832L69.2649 69.0382ZM54.5769 66.8782L56.8487 61.325L56.7942 61.3027L56.7393 61.2814L54.5769 66.8782ZM48.5289 64.2142L45.791 69.5531L45.8182 69.5671L45.8456 69.5808L48.5289 64.2142ZM43.6329 61.4782L40.0329 66.2782L40.2442 66.4368L40.4687 66.5761L43.6329 61.4782ZM43.1289 61.1182L39.8006 66.1105L39.8007 66.1105L43.1289 61.1182ZM43.4889 59.8942L47.4399 64.4097L47.4575 64.3943L47.475 64.3787L43.4889 59.8942ZM44.9289 58.5982L48.9649 63.0379L48.9649 63.0379L44.9289 58.5982ZM47.3769 56.5822L50.705 61.5745L67.1937 50.5822H47.3769V56.5822ZM31.3209 56.5822V50.5822H14.2162L27.5727 61.2674L31.3209 56.5822ZM32.6169 57.7342L28.5472 62.1431L28.6423 62.2309L28.7412 62.3146L32.6169 57.7342ZM34.3449 59.3902L29.9219 63.4446L30.0982 63.6369L30.2905 63.8132L34.3449 59.3902ZM34.9929 61.1902L30.7502 56.9476L30.7502 56.9476L34.9929 61.1902ZM34.4169 61.6222L37.3937 66.8317L37.4491 66.8L37.5038 66.7672L34.4169 61.6222ZM26.5689 65.2942L24.4212 59.6918L24.3644 59.7135L24.3081 59.7365L26.5689 65.2942ZM17.8569 68.0302L16.5353 62.1776L16.5353 62.1776L17.8569 68.0302ZM7.05686 68.1022L4.37358 62.7357L3.50271 63.1711L2.81422 63.8596L7.05686 68.1022ZM7.41686 67.8862L4.08865 62.8939L3.59432 63.2235L3.17421 63.6436L7.41686 67.8862ZM7.84886 67.6702L6.39364 61.8494L6.1701 61.9053L5.95151 61.9781L7.84886 67.6702ZM8.35286 67.5262L10.2502 73.2183L10.2768 73.2095L10.3033 73.2004L8.35286 67.5262ZM12.6009 65.7982L10.0664 60.3598L10.0321 60.3758L9.99797 60.3922L12.6009 65.7982ZM26.1369 56.5822L30.249 60.9514L41.2663 50.5822H26.1369V56.5822ZM17.0649 56.5822H11.0649V62.5822H17.0649V56.5822ZM17.0649 28.0702V22.0702H11.0649V28.0702H17.0649ZM61.3449 28.0702H67.3449V22.0702H61.3449V28.0702ZM58.5369 54.0622L62.0361 58.9362L62.0768 58.9069L62.1171 58.877L58.5369 54.0622ZM51.4809 56.5102L50.8738 50.541L39.9134 51.6556L46.7956 60.2584L51.4809 56.5102ZM57.0969 61.8382L53.5305 66.6633L53.5552 66.6816L53.5801 66.6996L57.0969 61.8382ZM63.5769 66.0862L60.5611 71.2733L67.5625 75.3438L69.4174 67.4605L63.5769 66.0862ZM64.8729 63.9982L61.3247 59.1598L61.141 59.2945L60.9681 59.4427L64.8729 63.9982ZM69.4089 64.1422L73.3599 59.6268L73.3492 59.6174L73.3384 59.6081L69.4089 64.1422ZM65.8809 20.7982L71.1042 23.7506L71.1309 23.7035L71.1566 23.6559L65.8809 20.7982ZM59.4729 24.0382L59.0737 18.0515L59.0601 18.0525L59.4729 24.0382ZM11.0169 24.1822H5.01686V30.1822H11.0169V24.1822ZM11.0169 6.75823V0.758233H5.01686V6.75823H11.0169ZM66.8169 6.75823H72.8169V0.758233L66.8169 0.758233V6.75823ZM52.6329 25.5262H25.6329V37.5262H52.6329V25.5262ZM19.6329 31.5262V36.7102H31.6329V31.5262H19.6329ZM25.6329 42.7102H43.7769V30.7102H25.6329V42.7102ZM49.6856 37.753C49.6432 37.9928 49.5356 38.364 49.2828 38.7748C49.024 39.1953 48.6896 39.5322 48.3441 39.7714L41.5136 29.9051C39.4448 31.3373 38.2624 33.4335 37.8682 35.6675L49.6856 37.753ZM48.3441 39.7714C48.1436 39.9102 47.9097 40.0246 47.6609 40.0992C47.416 40.1727 47.2151 40.1902 47.0889 40.1902V28.1902C45.149 28.1902 43.2176 28.7254 41.5136 29.9051L48.3441 39.7714ZM47.0889 40.1902C46.6329 40.1902 46.162 40.0918 45.7325 39.8993C45.3186 39.7137 45.0586 39.4932 44.9342 39.3689L53.4195 30.8836C51.8522 29.3163 49.6882 28.1902 47.0889 28.1902V40.1902ZM44.9342 39.3689C44.8099 39.2445 44.5893 38.9845 44.4038 38.5706C44.2113 38.1411 44.1129 37.6702 44.1129 37.2142H56.1129C56.1129 34.6149 54.9868 32.4509 53.4195 30.8836L44.9342 39.3689ZM44.1129 37.2142C44.1129 36.7725 44.2107 36.2142 44.4943 35.647C44.7737 35.0882 45.1333 34.7203 45.3979 34.5123L52.8118 43.9481C54.8521 42.3451 56.1129 39.9702 56.1129 37.2142H44.1129ZM45.4466 34.4745C45.613 34.3465 45.8525 34.2037 46.1589 34.098C46.4671 33.9917 46.7642 33.9502 47.0169 33.9502V45.9502C49.1435 45.9502 51.1187 45.251 52.7631 43.986L45.4466 34.4745ZM47.0169 33.9502H25.6329V45.9502H47.0169V33.9502ZM19.6329 39.9502V45.1342H31.6329V39.9502H19.6329ZM25.6329 51.1342H43.7769V39.1342H25.6329V51.1342ZM49.5743 46.6802C49.4794 47.036 49.3059 47.4142 49.0449 47.7622C48.7882 48.1044 48.5163 48.3254 48.3174 48.4533L41.8283 38.3592C39.9979 39.5359 38.5859 41.3143 37.9795 43.5883L49.5743 46.6802ZM48.5603 48.2886C48.4828 48.344 48.3144 48.4489 48.0548 48.5385C47.7879 48.6305 47.4816 48.6862 47.1609 48.6862V36.6862C45.0124 36.6862 43.12 37.4277 41.5854 38.5238L48.5603 48.2886ZM47.1609 48.6862C46.7049 48.6862 46.199 48.5874 45.7142 48.3623C45.2429 48.1435 44.9347 47.8724 44.768 47.6919L53.5857 39.5526C52.0073 37.8426 49.7906 36.6862 47.1609 36.6862V48.6862ZM45.1072 48.0311C44.9267 47.8644 44.6556 47.5562 44.4368 47.0849C44.2117 46.6001 44.1129 46.0942 44.1129 45.6382H56.1129C56.1129 43.0085 54.9564 40.7918 53.2465 39.2134L45.1072 48.0311ZM44.1129 45.6382C44.1129 45.1835 44.2117 44.6398 44.4729 44.0973C44.7292 43.5649 45.0576 43.208 45.3012 43.0019L53.0525 52.1626C54.925 50.5781 56.1129 48.2966 56.1129 45.6382H44.1129ZM45.3357 42.9729C45.5269 42.8136 45.8075 42.6318 46.175 42.4957C46.5457 42.3584 46.9118 42.3022 47.2329 42.3022V54.3022C49.4183 54.3022 51.4121 53.5298 53.018 52.1916L45.3357 42.9729ZM47.2329 42.3022H25.6329V54.3022H47.2329V42.3022ZM19.6329 48.3022V53.1982H31.6329V48.3022H19.6329ZM25.6329 59.1982H47.8809V47.1982H25.6329V59.1982ZM47.8809 59.1982C50.5588 59.1982 53.514 58.4117 55.7709 56.022L47.0468 47.7825C47.3105 47.5033 47.6114 47.3284 47.846 47.2422C48.0513 47.1668 48.0971 47.1982 47.8809 47.1982V59.1982ZM55.8803 55.903C57.8827 53.665 58.6329 50.9323 58.6329 48.3022H46.6329C46.6329 48.5009 46.6056 48.5063 46.6462 48.3868C46.6666 48.3269 46.7005 48.2466 46.7532 48.1557C46.8061 48.0643 46.869 47.9779 46.9374 47.9015L55.8803 55.903ZM58.6329 48.3022V31.5262H46.6329V48.3022H58.6329ZM33.0729 20.7982V10.1422H21.0729V20.7982H33.0729ZM27.0729 4.14223H19.3689V16.1422H27.0729V4.14223ZM13.3689 10.1422V20.7982H25.3689V10.1422H13.3689ZM19.3689 26.7982H27.0729V14.7982H19.3689V26.7982ZM47.4009 20.7982V10.1422H35.4009V20.7982H47.4009ZM41.4009 4.14223H34.7769V16.1422H41.4009V4.14223ZM28.7769 10.1422V20.7982H40.7769V10.1422H28.7769ZM34.7769 26.7982H41.4009V14.7982H34.7769V26.7982ZM57.7449 4.14223H49.3929V16.1422H57.7449V4.14223ZM43.3929 10.1422V20.7982H55.3929V10.1422H43.3929ZM49.3929 26.7982H54.3609V14.7982H49.3929V26.7982ZM54.3609 26.7982C55.8795 26.7982 57.5874 26.4548 59.1752 25.4404C60.7778 24.4165 61.8243 22.9858 62.4553 21.5346L51.4504 16.7499C51.6014 16.4027 51.9759 15.8 52.7145 15.3281C53.4383 14.8656 54.0903 14.7982 54.3609 14.7982V26.7982ZM62.3657 21.731C63.219 19.9468 63.7449 17.986 63.7449 15.9022H51.7449C51.7449 15.9304 51.7427 16.1297 51.5401 16.5535L62.3657 21.731ZM63.7449 15.9022V10.1422H51.7449V15.9022H63.7449ZM64.5609 66.3742C64.5609 66.3694 64.5609 66.2723 64.5939 66.1055C64.6275 65.9357 64.6973 65.6837 64.8415 65.3874C65.1647 64.723 65.7076 64.1508 66.351 63.7933L72.1787 74.2832C75.5453 72.4128 76.5609 69.0668 76.5609 66.3742H64.5609ZM66.351 63.7933C66.3833 63.7754 66.4125 63.7622 66.436 63.7532C66.4593 63.7442 66.472 63.7412 66.4711 63.7414C66.4698 63.7417 66.4002 63.7582 66.2409 63.7582V75.7582C68.2426 75.7582 70.2858 75.3348 72.1787 74.2832L66.351 63.7933ZM66.2409 63.7582C65.2405 63.7582 63.9384 63.594 62.289 63.162L59.2487 74.7705C61.6313 75.3945 63.9772 75.7582 66.2409 75.7582V63.7582ZM62.289 63.162C60.5516 62.707 58.7387 62.0981 56.8487 61.325L52.3051 72.4315C54.639 73.3863 56.9542 74.1695 59.2487 74.7705L62.289 63.162ZM56.7393 61.2814C54.7948 60.5302 52.9533 59.7183 51.2121 58.8477L45.8456 69.5808C47.9444 70.6302 50.1349 71.5943 52.4145 72.475L56.7393 61.2814ZM51.2668 58.8753C49.5016 57.9701 48.0179 57.1382 46.797 56.3804L40.4687 66.5761C42.0318 67.5463 43.8121 68.5383 45.791 69.5531L51.2668 58.8753ZM47.2329 56.6782C46.9832 56.491 46.7209 56.3018 46.457 56.1259L39.8007 66.1105C39.8248 66.1266 39.8985 66.1775 40.0329 66.2782L47.2329 56.6782ZM46.4571 56.126C48.8567 57.7257 48.9129 60.1729 48.9129 60.5422H36.9129C36.9129 61.4876 37.113 64.3187 39.8006 66.1105L46.4571 56.126ZM48.9129 60.5422C48.9129 61.4907 48.6855 62.2252 48.5288 62.6366C48.3633 63.0711 48.1789 63.3972 48.0588 63.5923C47.8258 63.9709 47.6094 64.2179 47.5413 64.2944C47.3911 64.4634 47.3173 64.5169 47.4399 64.4097L39.5378 55.3788C39.2764 55.6075 38.9147 55.937 38.5724 56.3221C38.4084 56.5066 38.1199 56.8465 37.8389 57.3032C37.6764 57.5673 36.9129 58.79 36.9129 60.5422H48.9129ZM47.475 64.3787C47.9271 63.9769 48.424 63.5296 48.9649 63.0379L40.8928 54.1586C40.3777 54.6269 39.9147 55.0436 39.5027 55.4098L47.475 64.3787ZM48.9649 63.0379C49.414 62.6296 49.8217 62.2813 50.189 61.9874L42.6927 52.617C42.1 53.0911 41.4997 53.6068 40.8928 54.1586L48.9649 63.0379ZM50.189 61.9874C50.4138 61.8077 50.5791 61.6777 50.6931 61.59C50.7499 61.5463 50.7828 61.5217 50.7965 61.5116C50.8188 61.4952 50.7805 61.5242 50.705 61.5745L44.0487 51.5899C43.6437 51.8599 43.1135 52.2804 42.6927 52.617L50.189 61.9874ZM47.3769 50.5822H31.3209V62.5822H47.3769V50.5822ZM27.5727 61.2674C27.5696 61.265 27.6456 61.327 27.8387 61.4987C28.017 61.6572 28.2513 61.8699 28.5472 62.1431L36.6865 53.3254C36.0789 52.7645 35.4987 52.2408 35.069 51.897L27.5727 61.2674ZM28.7412 62.3146C29.1807 62.6864 29.5727 63.0636 29.9219 63.4446L38.7678 55.3359C38.061 54.5648 37.301 53.838 36.4925 53.1539L28.7412 62.3146ZM30.2905 63.8132C30.4523 63.9614 30.3657 63.9047 30.1929 63.6742C30.103 63.5544 29.9024 63.2728 29.7071 62.8496C29.5249 62.4548 29.2089 61.6413 29.2089 60.5422H41.2089C41.2089 58.3475 40.0642 56.836 39.7929 56.4742C39.332 55.8598 38.8135 55.347 38.3992 54.9673L30.2905 63.8132ZM29.2089 60.5422C29.2089 59.9054 29.3721 58.3257 30.7502 56.9476L39.2355 65.4329C40.9016 63.7668 41.2089 61.7551 41.2089 60.5422H29.2089ZM30.7502 56.9476C30.9106 56.7872 31.0486 56.6754 31.1409 56.6062C31.2342 56.5362 31.3013 56.4944 31.3299 56.4773L37.5038 66.7672C38.0198 66.4576 38.6427 66.0256 39.2355 65.4329L30.7502 56.9476ZM31.44 56.4128C29.3875 57.5857 27.0537 58.6827 24.4212 59.6918L28.7165 70.8967C31.8441 69.6978 34.7422 68.3468 37.3937 66.8317L31.44 56.4128ZM24.3081 59.7365C21.7799 60.7649 19.19 61.5781 16.5353 62.1776L19.1784 73.8829C22.4757 73.1383 25.6938 72.1276 28.8296 70.852L24.3081 59.7365ZM16.5353 62.1776C13.952 62.7609 11.5161 63.0382 9.21686 63.0382V75.0382C12.4856 75.0382 15.8097 74.6436 19.1784 73.8829L16.5353 62.1776ZM9.21686 63.0382C9.21639 63.0382 9.21592 63.0382 9.21545 63.0382C9.21498 63.0382 9.21451 63.0382 9.21404 63.0382C9.21357 63.0382 9.21309 63.0382 9.21262 63.0382C9.21215 63.0382 9.21167 63.0382 9.2112 63.0382C9.21072 63.0382 9.21024 63.0382 9.20977 63.0382C9.20929 63.0382 9.20881 63.0382 9.20833 63.0382C9.20785 63.0382 9.20738 63.0382 9.20689 63.0382C9.20641 63.0382 9.20593 63.0382 9.20545 63.0382C9.20497 63.0382 9.20449 63.0382 9.204 63.0382C9.20352 63.0382 9.20304 63.0382 9.20255 63.0382C9.20206 63.0382 9.20158 63.0382 9.20109 63.0382C9.20061 63.0382 9.20012 63.0382 9.19963 63.0382C9.19914 63.0382 9.19865 63.0382 9.19816 63.0382C9.19767 63.0382 9.19718 63.0382 9.19669 63.0382C9.1962 63.0382 9.1957 63.0382 9.19521 63.0382C9.19472 63.0382 9.19422 63.0382 9.19373 63.0382C9.19323 63.0382 9.19274 63.0382 9.19224 63.0382C9.19174 63.0382 9.19124 63.0382 9.19075 63.0382C9.19025 63.0382 9.18975 63.0382 9.18925 63.0382C9.18875 63.0382 9.18825 63.0382 9.18775 63.0382C9.18724 63.0382 9.18674 63.0382 9.18624 63.0382C9.18574 63.0382 9.18523 63.0382 9.18473 63.0382C9.18422 63.0382 9.18372 63.0382 9.18321 63.0382C9.1827 63.0382 9.18219 63.0382 9.18169 63.0382C9.18118 63.0382 9.18067 63.0382 9.18016 63.0382C9.17965 63.0382 9.17914 63.0382 9.17863 63.0382C9.17811 63.0382 9.1776 63.0382 9.17709 63.0382C9.17658 63.0382 9.17606 63.0382 9.17555 63.0382C9.17503 63.0382 9.17452 63.0382 9.174 63.0382C9.17348 63.0382 9.17297 63.0382 9.17245 63.0382C9.17193 63.0382 9.17141 63.0382 9.17089 63.0382C9.17037 63.0382 9.16985 63.0382 9.16933 63.0382C9.16881 63.0382 9.16828 63.0382 9.16776 63.0382C9.16724 63.0382 9.16671 63.0382 9.16619 63.0382C9.16567 63.0382 9.16514 63.0382 9.16461 63.0382C9.16409 63.0382 9.16356 63.0382 9.16303 63.0382C9.1625 63.0382 9.16197 63.0382 9.16144 63.0382C9.16091 63.0382 9.16038 63.0382 9.15985 63.0382C9.15932 63.0382 9.15879 63.0382 9.15826 63.0382C9.15772 63.0382 9.15719 63.0382 9.15665 63.0382C9.15612 63.0382 9.15558 63.0382 9.15505 63.0382C9.15451 63.0382 9.15397 63.0382 9.15344 63.0382C9.1529 63.0382 9.15236 63.0382 9.15182 63.0382C9.15128 63.0382 9.15074 63.0382 9.1502 63.0382C9.14966 63.0382 9.14912 63.0382 9.14857 63.0382C9.14803 63.0382 9.14749 63.0382 9.14694 63.0382C9.1464 63.0382 9.14585 63.0382 9.14531 63.0382C9.14476 63.0382 9.14421 63.0382 9.14366 63.0382C9.14312 63.0382 9.14257 63.0382 9.14202 63.0382C9.14147 63.0382 9.14092 63.0382 9.14037 63.0382C9.13982 63.0382 9.13926 63.0382 9.13871 63.0382C9.13816 63.0382 9.13761 63.0382 9.13705 63.0382C9.1365 63.0382 9.13594 63.0382 9.13538 63.0382C9.13483 63.0382 9.13427 63.0382 9.13371 63.0382C9.13316 63.0382 9.1326 63.0382 9.13204 63.0382C9.13148 63.0382 9.13092 63.0382 9.13036 63.0382C9.1298 63.0382 9.12923 63.0382 9.12867 63.0382C9.12811 63.0382 9.12755 63.0382 9.12698 63.0382C9.12642 63.0382 9.12585 63.0382 9.12529 63.0382C9.12472 63.0382 9.12415 63.0382 9.12359 63.0382C9.12302 63.0382 9.12245 63.0382 9.12188 63.0382C9.12131 63.0382 9.12074 63.0382 9.12017 63.0382C9.1196 63.0382 9.11903 63.0382 9.11846 63.0382C9.11788 63.0382 9.11731 63.0382 9.11673 63.0382C9.11616 63.0382 9.11559 63.0382 9.11501 63.0382C9.11443 63.0382 9.11386 63.0382 9.11328 63.0382C9.1127 63.0382 9.11212 63.0382 9.11154 63.0382C9.11097 63.0382 9.11039 63.0382 9.1098 63.0382C9.10922 63.0382 9.10864 63.0382 9.10806 63.0382C9.10748 63.0382 9.10689 63.0382 9.10631 63.0382C9.10573 63.0382 9.10514 63.0382 9.10456 63.0382C9.10397 63.0382 9.10338 63.0382 9.1028 63.0382C9.10221 63.0382 9.10162 63.0382 9.10103 63.0382C9.10044 63.0382 9.09985 63.0382 9.09926 63.0382C9.09867 63.0382 9.09808 63.0382 9.09749 63.0382C9.09689 63.0382 9.0963 63.0382 9.09571 63.0382C9.09511 63.0382 9.09452 63.0382 9.09392 63.0382C9.09333 63.0382 9.09273 63.0382 9.09213 63.0382C9.09154 63.0382 9.09094 63.0382 9.09034 63.0382C9.08974 63.0382 9.08914 63.0382 9.08854 63.0382C9.08794 63.0382 9.08734 63.0382 9.08674 63.0382C9.08613 63.0382 9.08553 63.0382 9.08493 63.0382C9.08432 63.0382 9.08372 63.0382 9.08311 63.0382C9.08251 63.0382 9.0819 63.0382 9.08129 63.0382C9.08069 63.0382 9.08008 63.0382 9.07947 63.0382C9.07886 63.0382 9.07825 63.0382 9.07764 63.0382C9.07703 63.0382 9.07642 63.0382 9.07581 63.0382C9.07519 63.0382 9.07458 63.0382 9.07397 63.0382C9.07335 63.0382 9.07274 63.0382 9.07212 63.0382C9.07151 63.0382 9.07089 63.0382 9.07027 63.0382C9.06966 63.0382 9.06904 63.0382 9.06842 63.0382C9.0678 63.0382 9.06718 63.0382 9.06656 63.0382C9.06594 63.0382 9.06532 63.0382 9.0647 63.0382C9.06408 63.0382 9.06345 63.0382 9.06283 63.0382C9.06221 63.0382 9.06158 63.0382 9.06096 63.0382C9.06033 63.0382 9.05971 63.0382 9.05908 63.0382C9.05845 63.0382 9.05782 63.0382 9.0572 63.0382C9.05657 63.0382 9.05594 63.0382 9.05531 63.0382C9.05468 63.0382 9.05405 63.0382 9.05341 63.0382C9.05278 63.0382 9.05215 63.0382 9.05152 63.0382C9.05088 63.0382 9.05025 63.0382 9.04961 63.0382C9.04898 63.0382 9.04834 63.0382 9.0477 63.0382C9.04707 63.0382 9.04643 63.0382 9.04579 63.0382C9.04515 63.0382 9.04451 63.0382 9.04387 63.0382C9.04323 63.0382 9.04259 63.0382 9.04195 63.0382C9.04131 63.0382 9.04067 63.0382 9.04002 63.0382C9.03938 63.0382 9.03874 63.0382 9.03809 63.0382C9.03744 63.0382 9.0368 63.0382 9.03615 63.0382C9.03551 63.0382 9.03486 63.0382 9.03421 63.0382C9.03356 63.0382 9.03291 63.0382 9.03226 63.0382C9.03161 63.0382 9.03096 63.0382 9.03031 63.0382C9.02966 63.0382 9.02901 63.0382 9.02835 63.0382C9.0277 63.0382 9.02704 63.0382 9.02639 63.0382C9.02573 63.0382 9.02508 63.0382 9.02442 63.0382C9.02377 63.0382 9.02311 63.0382 9.02245 63.0382C9.02179 63.0382 9.02113 63.0382 9.02047 63.0382C9.01981 63.0382 9.01915 63.0382 9.01849 63.0382C9.01783 63.0382 9.01717 63.0382 9.0165 63.0382C9.01584 63.0382 9.01518 63.0382 9.01451 63.0382C9.01385 63.0382 9.01318 63.0382 9.01251 63.0382C9.01185 63.0382 9.01118 63.0382 9.01051 63.0382C9.00984 63.0382 9.00917 63.0382 9.00851 63.0382C9.00784 63.0382 9.00716 63.0382 9.00649 63.0382C9.00582 63.0382 9.00515 63.0382 9.00448 63.0382C9.0038 63.0382 9.00313 63.0382 9.00245 63.0382C9.00178 63.0382 9.0011 63.0382 9.00043 63.0382C8.99975 63.0382 8.99907 63.0382 8.9984 63.0382C8.99772 63.0382 8.99704 63.0382 8.99636 63.0382C8.99568 63.0382 8.995 63.0382 8.99432 63.0382C8.99364 63.0382 8.99295 63.0382 8.99227 63.0382C8.99159 63.0382 8.9909 63.0382 8.99022 63.0382C8.98954 63.0382 8.98885 63.0382 8.98816 63.0382C8.98748 63.0382 8.98679 63.0382 8.9861 63.0382C8.98541 63.0382 8.98473 63.0382 8.98404 63.0382C8.98335 63.0382 8.98266 63.0382 8.98197 63.0382C8.98127 63.0382 8.98058 63.0382 8.97989 63.0382C8.9792 63.0382 8.9785 63.0382 8.97781 63.0382C8.97711 63.0382 8.97642 63.0382 8.97572 63.0382C8.97503 63.0382 8.97433 63.0382 8.97363 63.0382C8.97293 63.0382 8.97223 63.0382 8.97154 63.0382C8.97084 63.0382 8.97014 63.0382 8.96943 63.0382C8.96873 63.0382 8.96803 63.0382 8.96733 63.0382C8.96663 63.0382 8.96592 63.0382 8.96522 63.0382C8.96451 63.0382 8.96381 63.0382 8.9631 63.0382C8.9624 63.0382 8.96169 63.0382 8.96098 63.0382C8.96027 63.0382 8.95957 63.0382 8.95886 63.0382C8.95815 63.0382 8.95744 63.0382 8.95673 63.0382C8.95601 63.0382 8.9553 63.0382 8.95459 63.0382C8.95388 63.0382 8.95316 63.0382 8.95245 63.0382C8.95174 63.0382 8.95102 63.0382 8.9503 63.0382C8.94959 63.0382 8.94887 63.0382 8.94815 63.0382C8.94744 63.0382 8.94672 63.0382 8.946 63.0382C8.94528 63.0382 8.94456 63.0382 8.94384 63.0382C8.94312 63.0382 8.9424 63.0382 8.94167 63.0382C8.94095 63.0382 8.94023 63.0382 8.9395 63.0382C8.93878 63.0382 8.93805 63.0382 8.93733 63.0382C8.9366 63.0382 8.93588 63.0382 8.93515 63.0382C8.93442 63.0382 8.93369 63.0382 8.93296 63.0382C8.93223 63.0382 8.9315 63.0382 8.93077 63.0382C8.93004 63.0382 8.92931 63.0382 8.92858 63.0382C8.92785 63.0382 8.92711 63.0382 8.92638 63.0382C8.92564 63.0382 8.92491 63.0382 8.92417 63.0382C8.92344 63.0382 8.9227 63.0382 8.92196 63.0382C8.92123 63.0382 8.92049 63.0382 8.91975 63.0382C8.91901 63.0382 8.91827 63.0382 8.91753 63.0382C8.91679 63.0382 8.91605 63.0382 8.91531 63.0382C8.91456 63.0382 8.91382 63.0382 8.91308 63.0382C8.91233 63.0382 8.91159 63.0382 8.91084 63.0382C8.9101 63.0382 8.90935 63.0382 8.9086 63.0382C8.90786 63.0382 8.90711 63.0382 8.90636 63.0382C8.90561 63.0382 8.90486 63.0382 8.90411 63.0382C8.90336 63.0382 8.90261 63.0382 8.90186 63.0382C8.9011 63.0382 8.90035 63.0382 8.8996 63.0382C8.89884 63.0382 8.89809 63.0382 8.89733 63.0382C8.89658 63.0382 8.89582 63.0382 8.89506 63.0382C8.89431 63.0382 8.89355 63.0382 8.89279 63.0382C8.89203 63.0382 8.89127 63.0382 8.89051 63.0382C8.88975 63.0382 8.88899 63.0382 8.88823 63.0382C8.88746 63.0382 8.8867 63.0382 8.88594 63.0382C8.88517 63.0382 8.88441 63.0382 8.88364 63.0382C8.88288 63.0382 8.88211 63.0382 8.88135 63.0382C8.88058 63.0382 8.87981 63.0382 8.87904 63.0382C8.87827 63.0382 8.8775 63.0382 8.87673 63.0382C8.87596 63.0382 8.87519 63.0382 8.87442 63.0382C8.87365 63.0382 8.87288 63.0382 8.8721 63.0382C8.87133 63.0382 8.87055 63.0382 8.86978 63.0382C8.869 63.0382 8.86823 63.0382 8.86745 63.0382C8.86667 63.0382 8.8659 63.0382 8.86512 63.0382C8.86434 63.0382 8.86356 63.0382 8.86278 63.0382C8.862 63.0382 8.86122 63.0382 8.86044 63.0382C8.85965 63.0382 8.85887 63.0382 8.85809 63.0382C8.8573 63.0382 8.85652 63.0382 8.85573 63.0382C8.85495 63.0382 8.85416 63.0382 8.85338 63.0382C8.85259 63.0382 8.8518 63.0382 8.85101 63.0382C8.85023 63.0382 8.84944 63.0382 8.84865 63.0382C8.84786 63.0382 8.84707 63.0382 8.84627 63.0382C8.84548 63.0382 8.84469 63.0382 8.8439 63.0382C8.8431 63.0382 8.84231 63.0382 8.84151 63.0382C8.84072 63.0382 8.83992 63.0382 8.83913 63.0382C8.83833 63.0382 8.83753 63.0382 8.83673 63.0382C8.83593 63.0382 8.83514 63.0382 8.83434 63.0382C8.83354 63.0382 8.83273 63.0382 8.83193 63.0382C8.83113 63.0382 8.83033 63.0382 8.82953 63.0382C8.82872 63.0382 8.82792 63.0382 8.82711 63.0382C8.82631 63.0382 8.8255 63.0382 8.8247 63.0382C8.82389 63.0382 8.82308 63.0382 8.82227 63.0382C8.82147 63.0382 8.82066 63.0382 8.81985 63.0382C8.81904 63.0382 8.81823 63.0382 8.81741 63.0382C8.8166 63.0382 8.81579 63.0382 8.81498 63.0382C8.81416 63.0382 8.81335 63.0382 8.81254 63.0382C8.81172 63.0382 8.8109 63.0382 8.81009 63.0382C8.80927 63.0382 8.80845 63.0382 8.80764 63.0382C8.80682 63.0382 8.806 63.0382 8.80518 63.0382C8.80436 63.0382 8.80354 63.0382 8.80272 63.0382C8.8019 63.0382 8.80107 63.0382 8.80025 63.0382C8.79943 63.0382 8.7986 63.0382 8.79778 63.0382C8.79695 63.0382 8.79613 63.0382 8.7953 63.0382C8.79448 63.0382 8.79365 63.0382 8.79282 63.0382C8.79199 63.0382 8.79116 63.0382 8.79034 63.0382C8.78951 63.0382 8.78867 63.0382 8.78784 63.0382C8.78701 63.0382 8.78618 63.0382 8.78535 63.0382C8.78451 63.0382 8.78368 63.0382 8.78285 63.0382C8.78201 63.0382 8.78118 63.0382 8.78034 63.0382C8.7795 63.0382 8.77867 63.0382 8.77783 63.0382C8.77699 63.0382 8.77615 63.0382 8.77531 63.0382C8.77447 63.0382 8.77363 63.0382 8.77279 63.0382C8.77195 63.0382 8.77111 63.0382 8.77027 63.0382C8.76942 63.0382 8.76858 63.0382 8.76773 63.0382C8.76689 63.0382 8.76604 63.0382 8.7652 63.0382C8.76435 63.0382 8.76351 63.0382 8.76266 63.0382C8.76181 63.0382 8.76096 63.0382 8.76011 63.0382C8.75926 63.0382 8.75841 63.0382 8.75756 63.0382C8.75671 63.0382 8.75586 63.0382 8.75501 63.0382C8.75415 63.0382 8.7533 63.0382 8.75244 63.0382C8.75159 63.0382 8.75074 63.0382 8.74988 63.0382C8.74902 63.0382 8.74817 63.0382 8.74731 63.0382C8.74645 63.0382 8.74559 63.0382 8.74473 63.0382C8.74387 63.0382 8.74301 63.0382 8.74215 63.0382C8.74129 63.0382 8.74043 63.0382 8.73957 63.0382C8.7387 63.0382 8.73784 63.0382 8.73698 63.0382C8.73611 63.0382 8.73525 63.0382 8.73438 63.0382C8.73352 63.0382 8.73265 63.0382 8.73178 63.0382C8.73091 63.0382 8.73005 63.0382 8.72918 63.0382C8.72831 63.0382 8.72744 63.0382 8.72657 63.0382C8.7257 63.0382 8.72482 63.0382 8.72395 63.0382C8.72308 63.0382 8.72221 63.0382 8.72133 63.0382C8.72046 63.0382 8.71958 63.0382 8.71871 63.0382C8.71783 63.0382 8.71695 63.0382 8.71608 63.0382C8.7152 63.0382 8.71432 63.0382 8.71344 63.0382C8.71256 63.0382 8.71168 63.0382 8.7108 63.0382C8.70992 63.0382 8.70904 63.0382 8.70816 63.0382C8.70727 63.0382 8.70639 63.0382 8.70551 63.0382C8.70462 63.0382 8.70374 63.0382 8.70285 63.0382C8.70197 63.0382 8.70108 63.0382 8.70019 63.0382C8.69931 63.0382 8.69842 63.0382 8.69753 63.0382C8.69664 63.0382 8.69575 63.0382 8.69486 63.0382C8.69397 63.0382 8.69308 63.0382 8.69219 63.0382C8.69129 63.0382 8.6904 63.0382 8.68951 63.0382C8.68861 63.0382 8.68772 63.0382 8.68682 63.0382C8.68593 63.0382 8.68503 63.0382 8.68413 63.0382C8.68324 63.0382 8.68234 63.0382 8.68144 63.0382C8.68054 63.0382 8.67964 63.0382 8.67874 63.0382C8.67784 63.0382 8.67694 63.0382 8.67604 63.0382C8.67513 63.0382 8.67423 63.0382 8.67333 63.0382C8.67242 63.0382 8.67152 63.0382 8.67061 63.0382C8.66971 63.0382 8.6688 63.0382 8.66789 63.0382C8.66699 63.0382 8.66608 63.0382 8.66517 63.0382C8.66426 63.0382 8.66335 63.0382 8.66244 63.0382C8.66153 63.0382 8.66062 63.0382 8.65971 63.0382C8.6588 63.0382 8.65788 63.0382 8.65697 63.0382C8.65606 63.0382 8.65514 63.0382 8.65423 63.0382C8.65331 63.0382 8.65239 63.0382 8.65148 63.0382C8.65056 63.0382 8.64964 63.0382 8.64872 63.0382C8.6478 63.0382 8.64689 63.0382 8.64597 63.0382C8.64504 63.0382 8.64412 63.0382 8.6432 63.0382C8.64228 63.0382 8.64136 63.0382 8.64043 63.0382C8.63951 63.0382 8.63859 63.0382 8.63766 63.0382C8.63674 63.0382 8.63581 63.0382 8.63488 63.0382C8.63396 63.0382 8.63303 63.0382 8.6321 63.0382C8.63117 63.0382 8.63024 63.0382 8.62931 63.0382C8.62838 63.0382 8.62745 63.0382 8.62652 63.0382C8.62559 63.0382 8.62465 63.0382 8.62372 63.0382C8.62279 63.0382 8.62185 63.0382 8.62092 63.0382C8.61998 63.0382 8.61905 63.0382 8.61811 63.0382C8.61717 63.0382 8.61623 63.0382 8.6153 63.0382C8.61436 63.0382 8.61342 63.0382 8.61248 63.0382C8.61154 63.0382 8.6106 63.0382 8.60966 63.0382C8.60871 63.0382 8.60777 63.0382 8.60683 63.0382C8.60589 63.0382 8.60494 63.0382 8.604 63.0382C8.60305 63.0382 8.60211 63.0382 8.60116 63.0382C8.60021 63.0382 8.59926 63.0382 8.59832 63.0382C8.59737 63.0382 8.59642 63.0382 8.59547 63.0382C8.59452 63.0382 8.59357 63.0382 8.59262 63.0382C8.59166 63.0382 8.59071 63.0382 8.58976 63.0382C8.58881 63.0382 8.58785 63.0382 8.5869 63.0382C8.58594 63.0382 8.58499 63.0382 8.58403 63.0382C8.58307 63.0382 8.58212 63.0382 8.58116 63.0382C8.5802 63.0382 8.57924 63.0382 8.57828 63.0382C8.57732 63.0382 8.57636 63.0382 8.5754 63.0382C8.57444 63.0382 8.57347 63.0382 8.57251 63.0382C8.57155 63.0382 8.57058 63.0382 8.56962 63.0382C8.56865 63.0382 8.56769 63.0382 8.56672 63.0382C8.56576 63.0382 8.56479 63.0382 8.56382 63.0382C8.56285 63.0382 8.56188 63.0382 8.56091 63.0382C8.55994 63.0382 8.55897 63.0382 8.558 63.0382C8.55703 63.0382 8.55606 63.0382 8.55509 63.0382C8.55411 63.0382 8.55314 63.0382 8.55216 63.0382C8.55119 63.0382 8.55021 63.0382 8.54924 63.0382C8.54826 63.0382 8.54728 63.0382 8.54631 63.0382C8.54533 63.0382 8.54435 63.0382 8.54337 63.0382C8.54239 63.0382 8.54141 63.0382 8.54043 63.0382C8.53945 63.0382 8.53847 63.0382 8.53748 63.0382C8.5365 63.0382 8.53552 63.0382 8.53453 63.0382C8.53355 63.0382 8.53256 63.0382 8.53158 63.0382C8.53059 63.0382 8.5296 63.0382 8.52861 63.0382C8.52763 63.0382 8.52664 63.0382 8.52565 63.0382C8.52466 63.0382 8.52367 63.0382 8.52268 63.0382C8.52169 63.0382 8.52069 63.0382 8.5197 63.0382C8.51871 63.0382 8.51772 63.0382 8.51672 63.0382C8.51573 63.0382 8.51473 63.0382 8.51373 63.0382C8.51274 63.0382 8.51174 63.0382 8.51074 63.0382C8.50975 63.0382 8.50875 63.0382 8.50775 63.0382C8.50675 63.0382 8.50575 63.0382 8.50475 63.0382C8.50375 63.0382 8.50274 63.0382 8.50174 63.0382C8.50074 63.0382 8.49974 63.0382 8.49873 63.0382C8.49773 63.0382 8.49672 63.0382 8.49572 63.0382C8.49471 63.0382 8.4937 63.0382 8.4927 63.0382C8.49169 63.0382 8.49068 63.0382 8.48967 63.0382C8.48866 63.0382 8.48765 63.0382 8.48664 63.0382C8.48563 63.0382 8.48462 63.0382 8.4836 63.0382C8.48259 63.0382 8.48158 63.0382 8.48056 63.0382C8.47955 63.0382 8.47854 63.0382 8.47752 63.0382C8.4765 63.0382 8.47549 63.0382 8.47447 63.0382C8.47345 63.0382 8.47243 63.0382 8.47141 63.0382C8.4704 63.0382 8.46938 63.0382 8.46835 63.0382C8.46733 63.0382 8.46631 63.0382 8.46529 63.0382C8.46427 63.0382 8.46324 63.0382 8.46222 63.0382C8.4612 63.0382 8.46017 63.0382 8.45914 63.0382C8.45812 63.0382 8.45709 63.0382 8.45607 63.0382C8.45504 63.0382 8.45401 63.0382 8.45298 63.0382C8.45195 63.0382 8.45092 63.0382 8.44989 63.0382C8.44886 63.0382 8.44783 63.0382 8.4468 63.0382C8.44576 63.0382 8.44473 63.0382 8.4437 63.0382C8.44266 63.0382 8.44163 63.0382 8.44059 63.0382C8.43956 63.0382 8.43852 63.0382 8.43748 63.0382C8.43645 63.0382 8.43541 63.0382 8.43437 63.0382C8.43333 63.0382 8.43229 63.0382 8.43125 63.0382C8.43021 63.0382 8.42917 63.0382 8.42812 63.0382C8.42708 63.0382 8.42604 63.0382 8.425 63.0382C8.42395 63.0382 8.42291 63.0382 8.42186 63.0382C8.42082 63.0382 8.41977 63.0382 8.41872 63.0382C8.41768 63.0382 8.41663 63.0382 8.41558 63.0382C8.41453 63.0382 8.41348 63.0382 8.41243 63.0382C8.41138 63.0382 8.41033 63.0382 8.40928 63.0382C8.40822 63.0382 8.40717 63.0382 8.40612 63.0382C8.40506 63.0382 8.40401 63.0382 8.40295 63.0382C8.4019 63.0382 8.40084 63.0382 8.39978 63.0382C8.39873 63.0382 8.39767 63.0382 8.39661 63.0382C8.39555 63.0382 8.39449 63.0382 8.39343 63.0382C8.39237 63.0382 8.39131 63.0382 8.39025 63.0382C8.38919 63.0382 8.38812 63.0382 8.38706 63.0382C8.386 63.0382 8.38493 63.0382 8.38387 63.0382C8.3828 63.0382 8.38174 63.0382 8.38067 63.0382C8.3796 63.0382 8.37853 63.0382 8.37746 63.0382C8.3764 63.0382 8.37533 63.0382 8.37426 63.0382C8.37319 63.0382 8.37212 63.0382 8.37104 63.0382C8.36997 63.0382 8.3689 63.0382 8.36783 63.0382C8.36675 63.0382 8.36568 63.0382 8.3646 63.0382C8.36353 63.0382 8.36245 63.0382 8.36137 63.0382C8.3603 63.0382 8.35922 63.0382 8.35814 63.0382C8.35706 63.0382 8.35598 63.0382 8.3549 63.0382C8.35382 63.0382 8.35274 63.0382 8.35166 63.0382C8.35058 63.0382 8.3495 63.0382 8.34841 63.0382C8.34733 63.0382 8.34624 63.0382 8.34516 63.0382C8.34407 63.0382 8.34299 63.0382 8.3419 63.0382C8.34081 63.0382 8.33973 63.0382 8.33864 63.0382C8.33755 63.0382 8.33646 63.0382 8.33537 63.0382C8.33428 63.0382 8.33319 63.0382 8.3321 63.0382C8.33101 63.0382 8.32991 63.0382 8.32882 63.0382C8.32773 63.0382 8.32663 63.0382 8.32554 63.0382C8.32444 63.0382 8.32335 63.0382 8.32225 63.0382C8.32115 63.0382 8.32006 63.0382 8.31896 63.0382C8.31786 63.0382 8.31676 63.0382 8.31566 63.0382C8.31456 63.0382 8.31346 63.0382 8.31236 63.0382C8.31126 63.0382 8.31016 63.0382 8.30905 63.0382C8.30795 63.0382 8.30685 63.0382 8.30574 63.0382C8.30464 63.0382 8.30353 63.0382 8.30242 63.0382C8.30132 63.0382 8.30021 63.0382 8.2991 63.0382C8.29799 63.0382 8.29688 63.0382 8.29577 63.0382C8.29466 63.0382 8.29355 63.0382 8.29244 63.0382C8.29133 63.0382 8.29022 63.0382 8.28911 63.0382C8.28799 63.0382 8.28688 63.0382 8.28576 63.0382C8.28465 63.0382 8.28353 63.0382 8.28242 63.0382C8.2813 63.0382 8.28018 63.0382 8.27907 63.0382C8.27795 63.0382 8.27683 63.0382 8.27571 63.0382C8.27459 63.0382 8.27347 63.0382 8.27235 63.0382C8.27123 63.0382 8.2701 63.0382 8.26898 63.0382C8.26786 63.0382 8.26673 63.0382 8.26561 63.0382C8.26448 63.0382 8.26336 63.0382 8.26223 63.0382C8.26111 63.0382 8.25998 63.0382 8.25885 63.0382C8.25772 63.0382 8.2566 63.0382 8.25547 63.0382C8.25434 63.0382 8.25321 63.0382 8.25207 63.0382C8.25094 63.0382 8.24981 63.0382 8.24868 63.0382C8.24755 63.0382 8.24641 63.0382 8.24528 63.0382C8.24414 63.0382 8.24301 63.0382 8.24187 63.0382C8.24074 63.0382 8.2396 63.0382 8.23846 63.0382C8.23732 63.0382 8.23618 63.0382 8.23504 63.0382C8.2339 63.0382 8.23276 63.0382 8.23162 63.0382C8.23048 63.0382 8.22934 63.0382 8.2282 63.0382C8.22705 63.0382 8.22591 63.0382 8.22477 63.0382C8.22362 63.0382 8.22248 63.0382 8.22133 63.0382C8.22019 63.0382 8.21904 63.0382 8.21789 63.0382C8.21674 63.0382 8.21559 63.0382 8.21444 63.0382C8.2133 63.0382 8.21215 63.0382 8.21099 63.0382C8.20984 63.0382 8.20869 63.0382 8.20754 63.0382C8.20639 63.0382 8.20523 63.0382 8.20408 63.0382C8.20292 63.0382 8.20177 63.0382 8.20061 63.0382C8.19946 63.0382 8.1983 63.0382 8.19714 63.0382C8.19599 63.0382 8.19483 63.0382 8.19367 63.0382C8.19251 63.0382 8.19135 63.0382 8.19019 63.0382C8.18903 63.0382 8.18786 63.0382 8.1867 63.0382C8.18554 63.0382 8.18438 63.0382 8.18321 63.0382C8.18205 63.0382 8.18088 63.0382 8.17972 63.0382C8.17855 63.0382 8.17738 63.0382 8.17622 63.0382C8.17505 63.0382 8.17388 63.0382 8.17271 63.0382C8.17154 63.0382 8.17037 63.0382 8.1692 63.0382C8.16803 63.0382 8.16686 63.0382 8.16569 63.0382C8.16452 63.0382 8.16334 63.0382 8.16217 63.0382C8.16099 63.0382 8.15982 63.0382 8.15864 63.0382C8.15747 63.0382 8.15629 63.0382 8.15511 63.0382C8.15394 63.0382 8.15276 63.0382 8.15158 63.0382C8.1504 63.0382 8.14922 63.0382 8.14804 63.0382C8.14686 63.0382 8.14568 63.0382 8.14449 63.0382C8.14331 63.0382 8.14213 63.0382 8.14095 63.0382C8.13976 63.0382 8.13858 63.0382 8.13739 63.0382C8.13621 63.0382 8.13502 63.0382 8.13383 63.0382C8.13264 63.0382 8.13146 63.0382 8.13027 63.0382C8.12908 63.0382 8.12789 63.0382 8.1267 63.0382C8.12551 63.0382 8.12432 63.0382 8.12312 63.0382C8.12193 63.0382 8.12074 63.0382 8.11955 63.0382C8.11835 63.0382 8.11716 63.0382 8.11596 63.0382C8.11477 63.0382 8.11357 63.0382 8.11237 63.0382C8.11118 63.0382 8.10998 63.0382 8.10878 63.0382C8.10758 63.0382 8.10638 63.0382 8.10518 63.0382C8.10398 63.0382 8.10278 63.0382 8.10158 63.0382C8.10037 63.0382 8.09917 63.0382 8.09797 63.0382C8.09676 63.0382 8.09556 63.0382 8.09435 63.0382C8.09315 63.0382 8.09194 63.0382 8.09073 63.0382C8.08953 63.0382 8.08832 63.0382 8.08711 63.0382C8.0859 63.0382 8.08469 63.0382 8.08348 63.0382C8.08227 63.0382 8.08106 63.0382 8.07985 63.0382C8.07864 63.0382 8.07742 63.0382 8.07621 63.0382C8.075 63.0382 8.07378 63.0382 8.07257 63.0382C8.07135 63.0382 8.07014 63.0382 8.06892 63.0382C8.0677 63.0382 8.06648 63.0382 8.06527 63.0382C8.06405 63.0382 8.06283 63.0382 8.06161 63.0382C8.06039 63.0382 8.05917 63.0382 8.05794 63.0382C8.05672 63.0382 8.0555 63.0382 8.05428 63.0382C8.05305 63.0382 8.05183 63.0382 8.0506 63.0382C8.04938 63.0382 8.04815 63.0382 8.04693 63.0382C8.0457 63.0382 8.04447 63.0382 8.04324 63.0382C8.04201 63.0382 8.04079 63.0382 8.03955 63.0382C8.03832 63.0382 8.03709 63.0382 8.03586 63.0382C8.03463 63.0382 8.0334 63.0382 8.03216 63.0382C8.03093 63.0382 8.0297 63.0382 8.02846 63.0382C8.02723 63.0382 8.02599 63.0382 8.02475 63.0382C8.02352 63.0382 8.02228 63.0382 8.02104 63.0382C8.0198 63.0382 8.01856 63.0382 8.01732 63.0382C8.01608 63.0382 8.01484 63.0382 8.0136 63.0382C8.01236 63.0382 8.01112 63.0382 8.00987 63.0382C8.00863 63.0382 8.00739 63.0382 8.00614 63.0382C8.0049 63.0382 8.00365 63.0382 8.0024 63.0382C8.00116 63.0382 7.99991 63.0382 7.99866 63.0382C7.99741 63.0382 7.99617 63.0382 7.99492 63.0382C7.99367 63.0382 7.99241 63.0382 7.99116 63.0382C7.98991 63.0382 7.98866 63.0382 7.98741 63.0382C7.98615 63.0382 7.9849 63.0382 7.98364 63.0382C7.98239 63.0382 7.98113 63.0382 7.97988 63.0382C7.97862 63.0382 7.97736 63.0382 7.97611 63.0382C7.97485 63.0382 7.97359 63.0382 7.97233 63.0382C7.97107 63.0382 7.96981 63.0382 7.96855 63.0382C7.96729 63.0382 7.96602 63.0382 7.96476 63.0382C7.9635 63.0382 7.96223 63.0382 7.96097 63.0382C7.9597 63.0382 7.95844 63.0382 7.95717 63.0382C7.95591 63.0382 7.95464 63.0382 7.95337 63.0382C7.9521 63.0382 7.95083 63.0382 7.94956 63.0382C7.94829 63.0382 7.94702 63.0382 7.94575 63.0382C7.94448 63.0382 7.94321 63.0382 7.94194 63.0382C7.94066 63.0382 7.93939 63.0382 7.93811 63.0382C7.93684 63.0382 7.93556 63.0382 7.93429 63.0382C7.93301 63.0382 7.93174 63.0382 7.93046 63.0382C7.92918 63.0382 7.9279 63.0382 7.92662 63.0382C7.92534 63.0382 7.92406 63.0382 7.92278 63.0382C7.9215 63.0382 7.92022 63.0382 7.91893 63.0382C7.91765 63.0382 7.91637 63.0382 7.91508 63.0382C7.9138 63.0382 7.91251 63.0382 7.91123 63.0382C7.90994 63.0382 7.90865 63.0382 7.90737 63.0382C7.90608 63.0382 7.90479 63.0382 7.9035 63.0382C7.90221 63.0382 7.90092 63.0382 7.89963 63.0382C7.89834 63.0382 7.89705 63.0382 7.89575 63.0382C7.89446 63.0382 7.89317 63.0382 7.89187 63.0382C7.89058 63.0382 7.88928 63.0382 7.88799 63.0382C7.88669 63.0382 7.88539 63.0382 7.8841 63.0382C7.8828 63.0382 7.8815 63.0382 7.8802 63.0382C7.8789 63.0382 7.8776 63.0382 7.8763 63.0382C7.875 63.0382 7.8737 63.0382 7.8724 63.0382C7.87109 63.0382 7.86979 63.0382 7.86849 63.0382C7.86718 63.0382 7.86588 63.0382 7.86457 63.0382C7.86326 63.0382 7.86196 63.0382 7.86065 63.0382C7.85934 63.0382 7.85803 63.0382 7.85672 63.0382C7.85542 63.0382 7.85411 63.0382 7.85279 63.0382C7.85148 63.0382 7.85017 63.0382 7.84886 63.0382V75.0382C7.85017 75.0382 7.85148 75.0382 7.85279 75.0382C7.85411 75.0382 7.85542 75.0382 7.85672 75.0382C7.85803 75.0382 7.85934 75.0382 7.86065 75.0382C7.86196 75.0382 7.86326 75.0382 7.86457 75.0382C7.86588 75.0382 7.86718 75.0382 7.86849 75.0382C7.86979 75.0382 7.87109 75.0382 7.8724 75.0382C7.8737 75.0382 7.875 75.0382 7.8763 75.0382C7.8776 75.0382 7.8789 75.0382 7.8802 75.0382C7.8815 75.0382 7.8828 75.0382 7.8841 75.0382C7.88539 75.0382 7.88669 75.0382 7.88799 75.0382C7.88928 75.0382 7.89058 75.0382 7.89187 75.0382C7.89317 75.0382 7.89446 75.0382 7.89575 75.0382C7.89705 75.0382 7.89834 75.0382 7.89963 75.0382C7.90092 75.0382 7.90221 75.0382 7.9035 75.0382C7.90479 75.0382 7.90608 75.0382 7.90737 75.0382C7.90865 75.0382 7.90994 75.0382 7.91123 75.0382C7.91251 75.0382 7.9138 75.0382 7.91508 75.0382C7.91637 75.0382 7.91765 75.0382 7.91893 75.0382C7.92022 75.0382 7.9215 75.0382 7.92278 75.0382C7.92406 75.0382 7.92534 75.0382 7.92662 75.0382C7.9279 75.0382 7.92918 75.0382 7.93046 75.0382C7.93174 75.0382 7.93301 75.0382 7.93429 75.0382C7.93556 75.0382 7.93684 75.0382 7.93811 75.0382C7.93939 75.0382 7.94066 75.0382 7.94194 75.0382C7.94321 75.0382 7.94448 75.0382 7.94575 75.0382C7.94702 75.0382 7.94829 75.0382 7.94956 75.0382C7.95083 75.0382 7.9521 75.0382 7.95337 75.0382C7.95464 75.0382 7.95591 75.0382 7.95717 75.0382C7.95844 75.0382 7.9597 75.0382 7.96097 75.0382C7.96223 75.0382 7.9635 75.0382 7.96476 75.0382C7.96602 75.0382 7.96729 75.0382 7.96855 75.0382C7.96981 75.0382 7.97107 75.0382 7.97233 75.0382C7.97359 75.0382 7.97485 75.0382 7.97611 75.0382C7.97736 75.0382 7.97862 75.0382 7.97988 75.0382C7.98113 75.0382 7.98239 75.0382 7.98364 75.0382C7.9849 75.0382 7.98615 75.0382 7.98741 75.0382C7.98866 75.0382 7.98991 75.0382 7.99116 75.0382C7.99241 75.0382 7.99367 75.0382 7.99492 75.0382C7.99617 75.0382 7.99741 75.0382 7.99866 75.0382C7.99991 75.0382 8.00116 75.0382 8.0024 75.0382C8.00365 75.0382 8.0049 75.0382 8.00614 75.0382C8.00739 75.0382 8.00863 75.0382 8.00987 75.0382C8.01112 75.0382 8.01236 75.0382 8.0136 75.0382C8.01484 75.0382 8.01608 75.0382 8.01732 75.0382C8.01856 75.0382 8.0198 75.0382 8.02104 75.0382C8.02228 75.0382 8.02352 75.0382 8.02475 75.0382C8.02599 75.0382 8.02723 75.0382 8.02846 75.0382C8.0297 75.0382 8.03093 75.0382 8.03216 75.0382C8.0334 75.0382 8.03463 75.0382 8.03586 75.0382C8.03709 75.0382 8.03832 75.0382 8.03955 75.0382C8.04079 75.0382 8.04201 75.0382 8.04324 75.0382C8.04447 75.0382 8.0457 75.0382 8.04693 75.0382C8.04815 75.0382 8.04938 75.0382 8.0506 75.0382C8.05183 75.0382 8.05305 75.0382 8.05428 75.0382C8.0555 75.0382 8.05672 75.0382 8.05794 75.0382C8.05917 75.0382 8.06039 75.0382 8.06161 75.0382C8.06283 75.0382 8.06405 75.0382 8.06527 75.0382C8.06648 75.0382 8.0677 75.0382 8.06892 75.0382C8.07014 75.0382 8.07135 75.0382 8.07257 75.0382C8.07378 75.0382 8.075 75.0382 8.07621 75.0382C8.07742 75.0382 8.07864 75.0382 8.07985 75.0382C8.08106 75.0382 8.08227 75.0382 8.08348 75.0382C8.08469 75.0382 8.0859 75.0382 8.08711 75.0382C8.08832 75.0382 8.08953 75.0382 8.09073 75.0382C8.09194 75.0382 8.09315 75.0382 8.09435 75.0382C8.09556 75.0382 8.09676 75.0382 8.09797 75.0382C8.09917 75.0382 8.10037 75.0382 8.10158 75.0382C8.10278 75.0382 8.10398 75.0382 8.10518 75.0382C8.10638 75.0382 8.10758 75.0382 8.10878 75.0382C8.10998 75.0382 8.11118 75.0382 8.11237 75.0382C8.11357 75.0382 8.11477 75.0382 8.11596 75.0382C8.11716 75.0382 8.11835 75.0382 8.11955 75.0382C8.12074 75.0382 8.12193 75.0382 8.12312 75.0382C8.12432 75.0382 8.12551 75.0382 8.1267 75.0382C8.12789 75.0382 8.12908 75.0382 8.13027 75.0382C8.13146 75.0382 8.13264 75.0382 8.13383 75.0382C8.13502 75.0382 8.13621 75.0382 8.13739 75.0382C8.13858 75.0382 8.13976 75.0382 8.14095 75.0382C8.14213 75.0382 8.14331 75.0382 8.14449 75.0382C8.14568 75.0382 8.14686 75.0382 8.14804 75.0382C8.14922 75.0382 8.1504 75.0382 8.15158 75.0382C8.15276 75.0382 8.15394 75.0382 8.15511 75.0382C8.15629 75.0382 8.15747 75.0382 8.15864 75.0382C8.15982 75.0382 8.16099 75.0382 8.16217 75.0382C8.16334 75.0382 8.16452 75.0382 8.16569 75.0382C8.16686 75.0382 8.16803 75.0382 8.1692 75.0382C8.17037 75.0382 8.17154 75.0382 8.17271 75.0382C8.17388 75.0382 8.17505 75.0382 8.17622 75.0382C8.17738 75.0382 8.17855 75.0382 8.17972 75.0382C8.18088 75.0382 8.18205 75.0382 8.18321 75.0382C8.18438 75.0382 8.18554 75.0382 8.1867 75.0382C8.18786 75.0382 8.18903 75.0382 8.19019 75.0382C8.19135 75.0382 8.19251 75.0382 8.19367 75.0382C8.19483 75.0382 8.19599 75.0382 8.19714 75.0382C8.1983 75.0382 8.19946 75.0382 8.20061 75.0382C8.20177 75.0382 8.20292 75.0382 8.20408 75.0382C8.20523 75.0382 8.20639 75.0382 8.20754 75.0382C8.20869 75.0382 8.20984 75.0382 8.21099 75.0382C8.21215 75.0382 8.2133 75.0382 8.21444 75.0382C8.21559 75.0382 8.21674 75.0382 8.21789 75.0382C8.21904 75.0382 8.22019 75.0382 8.22133 75.0382C8.22248 75.0382 8.22362 75.0382 8.22477 75.0382C8.22591 75.0382 8.22705 75.0382 8.2282 75.0382C8.22934 75.0382 8.23048 75.0382 8.23162 75.0382C8.23276 75.0382 8.2339 75.0382 8.23504 75.0382C8.23618 75.0382 8.23732 75.0382 8.23846 75.0382C8.2396 75.0382 8.24074 75.0382 8.24187 75.0382C8.24301 75.0382 8.24414 75.0382 8.24528 75.0382C8.24641 75.0382 8.24755 75.0382 8.24868 75.0382C8.24981 75.0382 8.25094 75.0382 8.25207 75.0382C8.25321 75.0382 8.25434 75.0382 8.25547 75.0382C8.2566 75.0382 8.25772 75.0382 8.25885 75.0382C8.25998 75.0382 8.26111 75.0382 8.26223 75.0382C8.26336 75.0382 8.26448 75.0382 8.26561 75.0382C8.26673 75.0382 8.26786 75.0382 8.26898 75.0382C8.2701 75.0382 8.27123 75.0382 8.27235 75.0382C8.27347 75.0382 8.27459 75.0382 8.27571 75.0382C8.27683 75.0382 8.27795 75.0382 8.27907 75.0382C8.28018 75.0382 8.2813 75.0382 8.28242 75.0382C8.28353 75.0382 8.28465 75.0382 8.28576 75.0382C8.28688 75.0382 8.28799 75.0382 8.28911 75.0382C8.29022 75.0382 8.29133 75.0382 8.29244 75.0382C8.29355 75.0382 8.29466 75.0382 8.29577 75.0382C8.29688 75.0382 8.29799 75.0382 8.2991 75.0382C8.30021 75.0382 8.30132 75.0382 8.30242 75.0382C8.30353 75.0382 8.30464 75.0382 8.30574 75.0382C8.30685 75.0382 8.30795 75.0382 8.30905 75.0382C8.31016 75.0382 8.31126 75.0382 8.31236 75.0382C8.31346 75.0382 8.31456 75.0382 8.31566 75.0382C8.31676 75.0382 8.31786 75.0382 8.31896 75.0382C8.32006 75.0382 8.32115 75.0382 8.32225 75.0382C8.32335 75.0382 8.32444 75.0382 8.32554 75.0382C8.32663 75.0382 8.32773 75.0382 8.32882 75.0382C8.32991 75.0382 8.33101 75.0382 8.3321 75.0382C8.33319 75.0382 8.33428 75.0382 8.33537 75.0382C8.33646 75.0382 8.33755 75.0382 8.33864 75.0382C8.33973 75.0382 8.34081 75.0382 8.3419 75.0382C8.34299 75.0382 8.34407 75.0382 8.34516 75.0382C8.34624 75.0382 8.34733 75.0382 8.34841 75.0382C8.3495 75.0382 8.35058 75.0382 8.35166 75.0382C8.35274 75.0382 8.35382 75.0382 8.3549 75.0382C8.35598 75.0382 8.35706 75.0382 8.35814 75.0382C8.35922 75.0382 8.3603 75.0382 8.36137 75.0382C8.36245 75.0382 8.36353 75.0382 8.3646 75.0382C8.36568 75.0382 8.36675 75.0382 8.36783 75.0382C8.3689 75.0382 8.36997 75.0382 8.37104 75.0382C8.37212 75.0382 8.37319 75.0382 8.37426 75.0382C8.37533 75.0382 8.3764 75.0382 8.37746 75.0382C8.37853 75.0382 8.3796 75.0382 8.38067 75.0382C8.38174 75.0382 8.3828 75.0382 8.38387 75.0382C8.38493 75.0382 8.386 75.0382 8.38706 75.0382C8.38812 75.0382 8.38919 75.0382 8.39025 75.0382C8.39131 75.0382 8.39237 75.0382 8.39343 75.0382C8.39449 75.0382 8.39555 75.0382 8.39661 75.0382C8.39767 75.0382 8.39873 75.0382 8.39978 75.0382C8.40084 75.0382 8.4019 75.0382 8.40295 75.0382C8.40401 75.0382 8.40506 75.0382 8.40612 75.0382C8.40717 75.0382 8.40822 75.0382 8.40928 75.0382C8.41033 75.0382 8.41138 75.0382 8.41243 75.0382C8.41348 75.0382 8.41453 75.0382 8.41558 75.0382C8.41663 75.0382 8.41768 75.0382 8.41872 75.0382C8.41977 75.0382 8.42082 75.0382 8.42186 75.0382C8.42291 75.0382 8.42395 75.0382 8.425 75.0382C8.42604 75.0382 8.42708 75.0382 8.42812 75.0382C8.42917 75.0382 8.43021 75.0382 8.43125 75.0382C8.43229 75.0382 8.43333 75.0382 8.43437 75.0382C8.43541 75.0382 8.43645 75.0382 8.43748 75.0382C8.43852 75.0382 8.43956 75.0382 8.44059 75.0382C8.44163 75.0382 8.44266 75.0382 8.4437 75.0382C8.44473 75.0382 8.44576 75.0382 8.4468 75.0382C8.44783 75.0382 8.44886 75.0382 8.44989 75.0382C8.45092 75.0382 8.45195 75.0382 8.45298 75.0382C8.45401 75.0382 8.45504 75.0382 8.45607 75.0382C8.45709 75.0382 8.45812 75.0382 8.45914 75.0382C8.46017 75.0382 8.4612 75.0382 8.46222 75.0382C8.46324 75.0382 8.46427 75.0382 8.46529 75.0382C8.46631 75.0382 8.46733 75.0382 8.46835 75.0382C8.46938 75.0382 8.4704 75.0382 8.47141 75.0382C8.47243 75.0382 8.47345 75.0382 8.47447 75.0382C8.47549 75.0382 8.4765 75.0382 8.47752 75.0382C8.47854 75.0382 8.47955 75.0382 8.48056 75.0382C8.48158 75.0382 8.48259 75.0382 8.4836 75.0382C8.48462 75.0382 8.48563 75.0382 8.48664 75.0382C8.48765 75.0382 8.48866 75.0382 8.48967 75.0382C8.49068 75.0382 8.49169 75.0382 8.4927 75.0382C8.4937 75.0382 8.49471 75.0382 8.49572 75.0382C8.49672 75.0382 8.49773 75.0382 8.49873 75.0382C8.49974 75.0382 8.50074 75.0382 8.50174 75.0382C8.50274 75.0382 8.50375 75.0382 8.50475 75.0382C8.50575 75.0382 8.50675 75.0382 8.50775 75.0382C8.50875 75.0382 8.50975 75.0382 8.51074 75.0382C8.51174 75.0382 8.51274 75.0382 8.51373 75.0382C8.51473 75.0382 8.51573 75.0382 8.51672 75.0382C8.51772 75.0382 8.51871 75.0382 8.5197 75.0382C8.52069 75.0382 8.52169 75.0382 8.52268 75.0382C8.52367 75.0382 8.52466 75.0382 8.52565 75.0382C8.52664 75.0382 8.52763 75.0382 8.52861 75.0382C8.5296 75.0382 8.53059 75.0382 8.53158 75.0382C8.53256 75.0382 8.53355 75.0382 8.53453 75.0382C8.53552 75.0382 8.5365 75.0382 8.53748 75.0382C8.53847 75.0382 8.53945 75.0382 8.54043 75.0382C8.54141 75.0382 8.54239 75.0382 8.54337 75.0382C8.54435 75.0382 8.54533 75.0382 8.54631 75.0382C8.54728 75.0382 8.54826 75.0382 8.54924 75.0382C8.55021 75.0382 8.55119 75.0382 8.55216 75.0382C8.55314 75.0382 8.55411 75.0382 8.55509 75.0382C8.55606 75.0382 8.55703 75.0382 8.558 75.0382C8.55897 75.0382 8.55994 75.0382 8.56091 75.0382C8.56188 75.0382 8.56285 75.0382 8.56382 75.0382C8.56479 75.0382 8.56576 75.0382 8.56672 75.0382C8.56769 75.0382 8.56865 75.0382 8.56962 75.0382C8.57058 75.0382 8.57155 75.0382 8.57251 75.0382C8.57347 75.0382 8.57444 75.0382 8.5754 75.0382C8.57636 75.0382 8.57732 75.0382 8.57828 75.0382C8.57924 75.0382 8.5802 75.0382 8.58116 75.0382C8.58212 75.0382 8.58307 75.0382 8.58403 75.0382C8.58499 75.0382 8.58594 75.0382 8.5869 75.0382C8.58785 75.0382 8.58881 75.0382 8.58976 75.0382C8.59071 75.0382 8.59166 75.0382 8.59262 75.0382C8.59357 75.0382 8.59452 75.0382 8.59547 75.0382C8.59642 75.0382 8.59737 75.0382 8.59832 75.0382C8.59926 75.0382 8.60021 75.0382 8.60116 75.0382C8.60211 75.0382 8.60305 75.0382 8.604 75.0382C8.60494 75.0382 8.60589 75.0382 8.60683 75.0382C8.60777 75.0382 8.60871 75.0382 8.60966 75.0382C8.6106 75.0382 8.61154 75.0382 8.61248 75.0382C8.61342 75.0382 8.61436 75.0382 8.6153 75.0382C8.61623 75.0382 8.61717 75.0382 8.61811 75.0382C8.61905 75.0382 8.61998 75.0382 8.62092 75.0382C8.62185 75.0382 8.62279 75.0382 8.62372 75.0382C8.62465 75.0382 8.62559 75.0382 8.62652 75.0382C8.62745 75.0382 8.62838 75.0382 8.62931 75.0382C8.63024 75.0382 8.63117 75.0382 8.6321 75.0382C8.63303 75.0382 8.63396 75.0382 8.63488 75.0382C8.63581 75.0382 8.63674 75.0382 8.63766 75.0382C8.63859 75.0382 8.63951 75.0382 8.64043 75.0382C8.64136 75.0382 8.64228 75.0382 8.6432 75.0382C8.64412 75.0382 8.64504 75.0382 8.64597 75.0382C8.64689 75.0382 8.6478 75.0382 8.64872 75.0382C8.64964 75.0382 8.65056 75.0382 8.65148 75.0382C8.65239 75.0382 8.65331 75.0382 8.65423 75.0382C8.65514 75.0382 8.65606 75.0382 8.65697 75.0382C8.65788 75.0382 8.6588 75.0382 8.65971 75.0382C8.66062 75.0382 8.66153 75.0382 8.66244 75.0382C8.66335 75.0382 8.66426 75.0382 8.66517 75.0382C8.66608 75.0382 8.66699 75.0382 8.66789 75.0382C8.6688 75.0382 8.66971 75.0382 8.67061 75.0382C8.67152 75.0382 8.67242 75.0382 8.67333 75.0382C8.67423 75.0382 8.67513 75.0382 8.67604 75.0382C8.67694 75.0382 8.67784 75.0382 8.67874 75.0382C8.67964 75.0382 8.68054 75.0382 8.68144 75.0382C8.68234 75.0382 8.68324 75.0382 8.68413 75.0382C8.68503 75.0382 8.68593 75.0382 8.68682 75.0382C8.68772 75.0382 8.68861 75.0382 8.68951 75.0382C8.6904 75.0382 8.69129 75.0382 8.69219 75.0382C8.69308 75.0382 8.69397 75.0382 8.69486 75.0382C8.69575 75.0382 8.69664 75.0382 8.69753 75.0382C8.69842 75.0382 8.69931 75.0382 8.70019 75.0382C8.70108 75.0382 8.70197 75.0382 8.70285 75.0382C8.70374 75.0382 8.70462 75.0382 8.70551 75.0382C8.70639 75.0382 8.70727 75.0382 8.70816 75.0382C8.70904 75.0382 8.70992 75.0382 8.7108 75.0382C8.71168 75.0382 8.71256 75.0382 8.71344 75.0382C8.71432 75.0382 8.7152 75.0382 8.71608 75.0382C8.71695 75.0382 8.71783 75.0382 8.71871 75.0382C8.71958 75.0382 8.72046 75.0382 8.72133 75.0382C8.72221 75.0382 8.72308 75.0382 8.72395 75.0382C8.72482 75.0382 8.7257 75.0382 8.72657 75.0382C8.72744 75.0382 8.72831 75.0382 8.72918 75.0382C8.73005 75.0382 8.73091 75.0382 8.73178 75.0382C8.73265 75.0382 8.73352 75.0382 8.73438 75.0382C8.73525 75.0382 8.73611 75.0382 8.73698 75.0382C8.73784 75.0382 8.7387 75.0382 8.73957 75.0382C8.74043 75.0382 8.74129 75.0382 8.74215 75.0382C8.74301 75.0382 8.74387 75.0382 8.74473 75.0382C8.74559 75.0382 8.74645 75.0382 8.74731 75.0382C8.74817 75.0382 8.74902 75.0382 8.74988 75.0382C8.75074 75.0382 8.75159 75.0382 8.75244 75.0382C8.7533 75.0382 8.75415 75.0382 8.75501 75.0382C8.75586 75.0382 8.75671 75.0382 8.75756 75.0382C8.75841 75.0382 8.75926 75.0382 8.76011 75.0382C8.76096 75.0382 8.76181 75.0382 8.76266 75.0382C8.76351 75.0382 8.76435 75.0382 8.7652 75.0382C8.76604 75.0382 8.76689 75.0382 8.76773 75.0382C8.76858 75.0382 8.76942 75.0382 8.77027 75.0382C8.77111 75.0382 8.77195 75.0382 8.77279 75.0382C8.77363 75.0382 8.77447 75.0382 8.77531 75.0382C8.77615 75.0382 8.77699 75.0382 8.77783 75.0382C8.77867 75.0382 8.7795 75.0382 8.78034 75.0382C8.78118 75.0382 8.78201 75.0382 8.78285 75.0382C8.78368 75.0382 8.78451 75.0382 8.78535 75.0382C8.78618 75.0382 8.78701 75.0382 8.78784 75.0382C8.78867 75.0382 8.78951 75.0382 8.79034 75.0382C8.79116 75.0382 8.79199 75.0382 8.79282 75.0382C8.79365 75.0382 8.79448 75.0382 8.7953 75.0382C8.79613 75.0382 8.79695 75.0382 8.79778 75.0382C8.7986 75.0382 8.79943 75.0382 8.80025 75.0382C8.80107 75.0382 8.8019 75.0382 8.80272 75.0382C8.80354 75.0382 8.80436 75.0382 8.80518 75.0382C8.806 75.0382 8.80682 75.0382 8.80764 75.0382C8.80845 75.0382 8.80927 75.0382 8.81009 75.0382C8.8109 75.0382 8.81172 75.0382 8.81254 75.0382C8.81335 75.0382 8.81416 75.0382 8.81498 75.0382C8.81579 75.0382 8.8166 75.0382 8.81741 75.0382C8.81823 75.0382 8.81904 75.0382 8.81985 75.0382C8.82066 75.0382 8.82147 75.0382 8.82227 75.0382C8.82308 75.0382 8.82389 75.0382 8.8247 75.0382C8.8255 75.0382 8.82631 75.0382 8.82711 75.0382C8.82792 75.0382 8.82872 75.0382 8.82953 75.0382C8.83033 75.0382 8.83113 75.0382 8.83193 75.0382C8.83273 75.0382 8.83354 75.0382 8.83434 75.0382C8.83514 75.0382 8.83593 75.0382 8.83673 75.0382C8.83753 75.0382 8.83833 75.0382 8.83913 75.0382C8.83992 75.0382 8.84072 75.0382 8.84151 75.0382C8.84231 75.0382 8.8431 75.0382 8.8439 75.0382C8.84469 75.0382 8.84548 75.0382 8.84627 75.0382C8.84707 75.0382 8.84786 75.0382 8.84865 75.0382C8.84944 75.0382 8.85023 75.0382 8.85101 75.0382C8.8518 75.0382 8.85259 75.0382 8.85338 75.0382C8.85416 75.0382 8.85495 75.0382 8.85573 75.0382C8.85652 75.0382 8.8573 75.0382 8.85809 75.0382C8.85887 75.0382 8.85965 75.0382 8.86044 75.0382C8.86122 75.0382 8.862 75.0382 8.86278 75.0382C8.86356 75.0382 8.86434 75.0382 8.86512 75.0382C8.8659 75.0382 8.86667 75.0382 8.86745 75.0382C8.86823 75.0382 8.869 75.0382 8.86978 75.0382C8.87055 75.0382 8.87133 75.0382 8.8721 75.0382C8.87288 75.0382 8.87365 75.0382 8.87442 75.0382C8.87519 75.0382 8.87596 75.0382 8.87673 75.0382C8.8775 75.0382 8.87827 75.0382 8.87904 75.0382C8.87981 75.0382 8.88058 75.0382 8.88135 75.0382C8.88211 75.0382 8.88288 75.0382 8.88364 75.0382C8.88441 75.0382 8.88517 75.0382 8.88594 75.0382C8.8867 75.0382 8.88746 75.0382 8.88823 75.0382C8.88899 75.0382 8.88975 75.0382 8.89051 75.0382C8.89127 75.0382 8.89203 75.0382 8.89279 75.0382C8.89355 75.0382 8.89431 75.0382 8.89506 75.0382C8.89582 75.0382 8.89658 75.0382 8.89733 75.0382C8.89809 75.0382 8.89884 75.0382 8.8996 75.0382C8.90035 75.0382 8.9011 75.0382 8.90186 75.0382C8.90261 75.0382 8.90336 75.0382 8.90411 75.0382C8.90486 75.0382 8.90561 75.0382 8.90636 75.0382C8.90711 75.0382 8.90786 75.0382 8.9086 75.0382C8.90935 75.0382 8.9101 75.0382 8.91084 75.0382C8.91159 75.0382 8.91233 75.0382 8.91308 75.0382C8.91382 75.0382 8.91456 75.0382 8.91531 75.0382C8.91605 75.0382 8.91679 75.0382 8.91753 75.0382C8.91827 75.0382 8.91901 75.0382 8.91975 75.0382C8.92049 75.0382 8.92123 75.0382 8.92196 75.0382C8.9227 75.0382 8.92344 75.0382 8.92417 75.0382C8.92491 75.0382 8.92564 75.0382 8.92638 75.0382C8.92711 75.0382 8.92785 75.0382 8.92858 75.0382C8.92931 75.0382 8.93004 75.0382 8.93077 75.0382C8.9315 75.0382 8.93223 75.0382 8.93296 75.0382C8.93369 75.0382 8.93442 75.0382 8.93515 75.0382C8.93588 75.0382 8.9366 75.0382 8.93733 75.0382C8.93805 75.0382 8.93878 75.0382 8.9395 75.0382C8.94023 75.0382 8.94095 75.0382 8.94167 75.0382C8.9424 75.0382 8.94312 75.0382 8.94384 75.0382C8.94456 75.0382 8.94528 75.0382 8.946 75.0382C8.94672 75.0382 8.94744 75.0382 8.94815 75.0382C8.94887 75.0382 8.94959 75.0382 8.9503 75.0382C8.95102 75.0382 8.95174 75.0382 8.95245 75.0382C8.95316 75.0382 8.95388 75.0382 8.95459 75.0382C8.9553 75.0382 8.95601 75.0382 8.95673 75.0382C8.95744 75.0382 8.95815 75.0382 8.95886 75.0382C8.95957 75.0382 8.96027 75.0382 8.96098 75.0382C8.96169 75.0382 8.9624 75.0382 8.9631 75.0382C8.96381 75.0382 8.96451 75.0382 8.96522 75.0382C8.96592 75.0382 8.96663 75.0382 8.96733 75.0382C8.96803 75.0382 8.96873 75.0382 8.96943 75.0382C8.97014 75.0382 8.97084 75.0382 8.97154 75.0382C8.97223 75.0382 8.97293 75.0382 8.97363 75.0382C8.97433 75.0382 8.97503 75.0382 8.97572 75.0382C8.97642 75.0382 8.97711 75.0382 8.97781 75.0382C8.9785 75.0382 8.9792 75.0382 8.97989 75.0382C8.98058 75.0382 8.98127 75.0382 8.98197 75.0382C8.98266 75.0382 8.98335 75.0382 8.98404 75.0382C8.98473 75.0382 8.98541 75.0382 8.9861 75.0382C8.98679 75.0382 8.98748 75.0382 8.98816 75.0382C8.98885 75.0382 8.98954 75.0382 8.99022 75.0382C8.9909 75.0382 8.99159 75.0382 8.99227 75.0382C8.99295 75.0382 8.99364 75.0382 8.99432 75.0382C8.995 75.0382 8.99568 75.0382 8.99636 75.0382C8.99704 75.0382 8.99772 75.0382 8.9984 75.0382C8.99907 75.0382 8.99975 75.0382 9.00043 75.0382C9.0011 75.0382 9.00178 75.0382 9.00245 75.0382C9.00313 75.0382 9.0038 75.0382 9.00448 75.0382C9.00515 75.0382 9.00582 75.0382 9.00649 75.0382C9.00716 75.0382 9.00784 75.0382 9.00851 75.0382C9.00917 75.0382 9.00984 75.0382 9.01051 75.0382C9.01118 75.0382 9.01185 75.0382 9.01251 75.0382C9.01318 75.0382 9.01385 75.0382 9.01451 75.0382C9.01518 75.0382 9.01584 75.0382 9.0165 75.0382C9.01717 75.0382 9.01783 75.0382 9.01849 75.0382C9.01915 75.0382 9.01981 75.0382 9.02047 75.0382C9.02113 75.0382 9.02179 75.0382 9.02245 75.0382C9.02311 75.0382 9.02377 75.0382 9.02442 75.0382C9.02508 75.0382 9.02573 75.0382 9.02639 75.0382C9.02704 75.0382 9.0277 75.0382 9.02835 75.0382C9.02901 75.0382 9.02966 75.0382 9.03031 75.0382C9.03096 75.0382 9.03161 75.0382 9.03226 75.0382C9.03291 75.0382 9.03356 75.0382 9.03421 75.0382C9.03486 75.0382 9.03551 75.0382 9.03615 75.0382C9.0368 75.0382 9.03744 75.0382 9.03809 75.0382C9.03874 75.0382 9.03938 75.0382 9.04002 75.0382C9.04067 75.0382 9.04131 75.0382 9.04195 75.0382C9.04259 75.0382 9.04323 75.0382 9.04387 75.0382C9.04451 75.0382 9.04515 75.0382 9.04579 75.0382C9.04643 75.0382 9.04707 75.0382 9.0477 75.0382C9.04834 75.0382 9.04898 75.0382 9.04961 75.0382C9.05025 75.0382 9.05088 75.0382 9.05152 75.0382C9.05215 75.0382 9.05278 75.0382 9.05341 75.0382C9.05405 75.0382 9.05468 75.0382 9.05531 75.0382C9.05594 75.0382 9.05657 75.0382 9.0572 75.0382C9.05782 75.0382 9.05845 75.0382 9.05908 75.0382C9.05971 75.0382 9.06033 75.0382 9.06096 75.0382C9.06158 75.0382 9.06221 75.0382 9.06283 75.0382C9.06345 75.0382 9.06408 75.0382 9.0647 75.0382C9.06532 75.0382 9.06594 75.0382 9.06656 75.0382C9.06718 75.0382 9.0678 75.0382 9.06842 75.0382C9.06904 75.0382 9.06966 75.0382 9.07027 75.0382C9.07089 75.0382 9.07151 75.0382 9.07212 75.0382C9.07274 75.0382 9.07335 75.0382 9.07397 75.0382C9.07458 75.0382 9.07519 75.0382 9.07581 75.0382C9.07642 75.0382 9.07703 75.0382 9.07764 75.0382C9.07825 75.0382 9.07886 75.0382 9.07947 75.0382C9.08008 75.0382 9.08069 75.0382 9.08129 75.0382C9.0819 75.0382 9.08251 75.0382 9.08311 75.0382C9.08372 75.0382 9.08432 75.0382 9.08493 75.0382C9.08553 75.0382 9.08613 75.0382 9.08674 75.0382C9.08734 75.0382 9.08794 75.0382 9.08854 75.0382C9.08914 75.0382 9.08974 75.0382 9.09034 75.0382C9.09094 75.0382 9.09154 75.0382 9.09213 75.0382C9.09273 75.0382 9.09333 75.0382 9.09392 75.0382C9.09452 75.0382 9.09511 75.0382 9.09571 75.0382C9.0963 75.0382 9.09689 75.0382 9.09749 75.0382C9.09808 75.0382 9.09867 75.0382 9.09926 75.0382C9.09985 75.0382 9.10044 75.0382 9.10103 75.0382C9.10162 75.0382 9.10221 75.0382 9.1028 75.0382C9.10338 75.0382 9.10397 75.0382 9.10456 75.0382C9.10514 75.0382 9.10573 75.0382 9.10631 75.0382C9.10689 75.0382 9.10748 75.0382 9.10806 75.0382C9.10864 75.0382 9.10922 75.0382 9.1098 75.0382C9.11039 75.0382 9.11097 75.0382 9.11154 75.0382C9.11212 75.0382 9.1127 75.0382 9.11328 75.0382C9.11386 75.0382 9.11443 75.0382 9.11501 75.0382C9.11559 75.0382 9.11616 75.0382 9.11673 75.0382C9.11731 75.0382 9.11788 75.0382 9.11846 75.0382C9.11903 75.0382 9.1196 75.0382 9.12017 75.0382C9.12074 75.0382 9.12131 75.0382 9.12188 75.0382C9.12245 75.0382 9.12302 75.0382 9.12359 75.0382C9.12415 75.0382 9.12472 75.0382 9.12529 75.0382C9.12585 75.0382 9.12642 75.0382 9.12698 75.0382C9.12755 75.0382 9.12811 75.0382 9.12867 75.0382C9.12923 75.0382 9.1298 75.0382 9.13036 75.0382C9.13092 75.0382 9.13148 75.0382 9.13204 75.0382C9.1326 75.0382 9.13316 75.0382 9.13371 75.0382C9.13427 75.0382 9.13483 75.0382 9.13538 75.0382C9.13594 75.0382 9.1365 75.0382 9.13705 75.0382C9.13761 75.0382 9.13816 75.0382 9.13871 75.0382C9.13926 75.0382 9.13982 75.0382 9.14037 75.0382C9.14092 75.0382 9.14147 75.0382 9.14202 75.0382C9.14257 75.0382 9.14312 75.0382 9.14366 75.0382C9.14421 75.0382 9.14476 75.0382 9.14531 75.0382C9.14585 75.0382 9.1464 75.0382 9.14694 75.0382C9.14749 75.0382 9.14803 75.0382 9.14857 75.0382C9.14912 75.0382 9.14966 75.0382 9.1502 75.0382C9.15074 75.0382 9.15128 75.0382 9.15182 75.0382C9.15236 75.0382 9.1529 75.0382 9.15344 75.0382C9.15397 75.0382 9.15451 75.0382 9.15505 75.0382C9.15558 75.0382 9.15612 75.0382 9.15665 75.0382C9.15719 75.0382 9.15772 75.0382 9.15826 75.0382C9.15879 75.0382 9.15932 75.0382 9.15985 75.0382C9.16038 75.0382 9.16091 75.0382 9.16144 75.0382C9.16197 75.0382 9.1625 75.0382 9.16303 75.0382C9.16356 75.0382 9.16409 75.0382 9.16461 75.0382C9.16514 75.0382 9.16567 75.0382 9.16619 75.0382C9.16671 75.0382 9.16724 75.0382 9.16776 75.0382C9.16828 75.0382 9.16881 75.0382 9.16933 75.0382C9.16985 75.0382 9.17037 75.0382 9.17089 75.0382C9.17141 75.0382 9.17193 75.0382 9.17245 75.0382C9.17297 75.0382 9.17348 75.0382 9.174 75.0382C9.17452 75.0382 9.17503 75.0382 9.17555 75.0382C9.17606 75.0382 9.17658 75.0382 9.17709 75.0382C9.1776 75.0382 9.17811 75.0382 9.17863 75.0382C9.17914 75.0382 9.17965 75.0382 9.18016 75.0382C9.18067 75.0382 9.18118 75.0382 9.18169 75.0382C9.18219 75.0382 9.1827 75.0382 9.18321 75.0382C9.18372 75.0382 9.18422 75.0382 9.18473 75.0382C9.18523 75.0382 9.18574 75.0382 9.18624 75.0382C9.18674 75.0382 9.18724 75.0382 9.18775 75.0382C9.18825 75.0382 9.18875 75.0382 9.18925 75.0382C9.18975 75.0382 9.19025 75.0382 9.19075 75.0382C9.19124 75.0382 9.19174 75.0382 9.19224 75.0382C9.19274 75.0382 9.19323 75.0382 9.19373 75.0382C9.19422 75.0382 9.19472 75.0382 9.19521 75.0382C9.1957 75.0382 9.1962 75.0382 9.19669 75.0382C9.19718 75.0382 9.19767 75.0382 9.19816 75.0382C9.19865 75.0382 9.19914 75.0382 9.19963 75.0382C9.20012 75.0382 9.20061 75.0382 9.20109 75.0382C9.20158 75.0382 9.20206 75.0382 9.20255 75.0382C9.20304 75.0382 9.20352 75.0382 9.204 75.0382C9.20449 75.0382 9.20497 75.0382 9.20545 75.0382C9.20593 75.0382 9.20641 75.0382 9.20689 75.0382C9.20738 75.0382 9.20785 75.0382 9.20833 75.0382C9.20881 75.0382 9.20929 75.0382 9.20977 75.0382C9.21024 75.0382 9.21072 75.0382 9.2112 75.0382C9.21167 75.0382 9.21215 75.0382 9.21262 75.0382C9.21309 75.0382 9.21357 75.0382 9.21404 75.0382C9.21451 75.0382 9.21498 75.0382 9.21545 75.0382C9.21592 75.0382 9.21639 75.0382 9.21686 75.0382V63.0382ZM7.84886 63.0382C7.88762 63.0382 8.88762 63.0093 10.0697 63.6848C10.7515 64.0744 11.5178 64.7161 12.0865 65.691C12.6566 66.6682 12.8409 67.6594 12.8409 68.4622H0.84086C0.84086 70.8281 2.09668 72.9498 4.11603 74.1037C5.6341 74.9712 7.1381 75.0382 7.84886 75.0382V63.0382ZM12.8409 68.4622C12.8409 69.8896 12.3228 70.9156 12.0398 71.3872C11.7376 71.891 11.4323 72.2121 11.2995 72.3449L2.81422 63.8596C2.53744 64.1364 2.12416 64.5895 1.7499 65.2133C1.39491 65.8049 0.84086 66.9389 0.84086 68.4622H12.8409ZM9.74014 73.4688C9.90944 73.3841 10.1365 73.266 10.3778 73.1212C10.5127 73.0403 11.0877 72.7007 11.6595 72.1289L3.17421 63.6436C3.48291 63.3349 3.75519 63.1334 3.87993 63.0443C4.02518 62.9406 4.14148 62.8687 4.20389 62.8313C4.32527 62.7584 4.39628 62.7243 4.37358 62.7357L9.74014 73.4688ZM10.7451 72.8785C10.5062 73.0378 10.1731 73.22 9.74621 73.3623L5.95151 61.9781C5.23661 62.2164 4.61555 62.5427 4.08865 62.8939L10.7451 72.8785ZM9.30408 73.4911C9.60312 73.4163 9.92462 73.3269 10.2502 73.2183L6.45549 61.8341C6.47711 61.8269 6.48312 61.8255 6.47053 61.8291C6.45834 61.8326 6.43329 61.8395 6.39364 61.8494L9.30408 73.4911ZM10.3033 73.2004C12.034 72.6054 13.6707 71.9424 15.2038 71.2042L9.99797 60.3922C8.939 60.9021 7.74374 61.391 6.40238 61.8521L10.3033 73.2004ZM15.1353 71.2367C20.6746 68.6553 25.7163 65.2176 30.249 60.9514L22.0247 52.213C18.3974 55.6269 14.4152 58.3332 10.0664 60.3598L15.1353 71.2367ZM26.1369 50.5822H17.0649V62.5822H26.1369V50.5822ZM23.0649 56.5822V28.0702H11.0649L11.0649 56.5822H23.0649ZM17.0649 34.0702H61.3449V22.0702H17.0649V34.0702ZM55.3449 28.0702V47.2942H67.3449V28.0702H55.3449ZM55.3449 47.2942C55.3449 48.2751 55.1953 48.7994 55.1009 49.0269C55.0275 49.2039 54.9821 49.2286 54.9566 49.2475L62.1171 58.877C65.994 55.9942 67.3449 51.6169 67.3449 47.2942H55.3449ZM55.0376 49.1883C54.1962 49.7924 52.9059 50.3344 50.8738 50.541L52.0879 62.4794C55.7198 62.1101 59.1335 61.0201 62.0361 58.9362L55.0376 49.1883ZM46.7956 60.2584C48.6916 62.6284 50.9524 64.7578 53.5305 66.6633L60.6632 57.0132C58.8253 55.6547 57.3421 54.2321 56.1661 52.7621L46.7956 60.2584ZM53.5801 66.6996C55.9718 68.4297 58.2994 69.9583 60.5611 71.2733L66.5926 60.8992C64.7264 59.8142 62.7339 58.5107 60.6136 56.9769L53.5801 66.6996ZM69.4174 67.4605C69.368 67.6704 69.2776 67.899 69.1427 68.1164C69.0096 68.3309 68.8708 68.4739 68.7776 68.5538L60.9681 59.4427C59.3872 60.7978 58.2367 62.5855 57.7364 64.712L69.4174 67.4605ZM68.421 68.8367C68.3417 68.8949 68.1807 68.9954 67.9393 69.0784C67.6926 69.1632 67.4293 69.2062 67.1769 69.2062V57.2062C64.9636 57.2062 62.9716 57.9521 61.3247 59.1598L68.421 68.8367ZM67.1769 69.2062C66.7242 69.2062 66.3156 69.1097 65.9905 68.9734C65.6816 68.8439 65.5148 68.7072 65.4793 68.6764L73.3384 59.6081C71.7997 58.2745 69.7118 57.2062 67.1769 57.2062V69.2062ZM65.4578 68.6577C65.3955 68.6031 65.1611 68.3823 64.9411 67.9561C64.7059 67.5003 64.5609 66.9492 64.5609 66.3742H76.5609C76.5609 63.4094 75.0778 61.1299 73.3599 59.6268L65.4578 68.6577ZM60.8169 15.9742C60.8169 16.7166 60.7597 17.2402 60.6927 17.5854C60.6253 17.933 60.5641 18.0163 60.6051 17.9405L71.1566 23.6559C72.4533 21.262 72.8169 18.5176 72.8169 15.9742H60.8169ZM60.6575 17.8459C60.6302 17.8942 60.6415 17.8606 60.7105 17.7973C60.7425 17.768 60.7782 17.7404 60.8149 17.7167C60.8514 17.6931 60.8804 17.6788 60.8965 17.6718L65.6812 28.6767C68.0474 27.6479 69.8753 25.9248 71.1042 23.7506L60.6575 17.8459ZM60.8965 17.6718C60.5357 17.8287 59.9593 17.9925 59.0737 18.0515L59.872 30.0249C61.8664 29.892 63.834 29.4798 65.6812 28.6767L60.8965 17.6718ZM59.0601 18.0525C57.8261 18.1375 56.4535 18.1822 54.9369 18.1822V30.1822C56.6842 30.1822 58.3356 30.1309 59.8857 30.024L59.0601 18.0525ZM54.9369 18.1822H11.0169V30.1822H54.9369V18.1822ZM17.0169 24.1822V6.75823H5.01686V24.1822H17.0169ZM11.0169 12.7582H66.8169V0.758233H11.0169V12.7582ZM60.8169 6.75823V15.9742H72.8169V6.75823H60.8169ZM126.289 48.5902L131.638 51.3074L131.647 51.2905L131.655 51.2735L126.289 48.5902ZM120.241 56.7982L116.04 52.5146L116.019 52.535L115.998 52.5556L120.241 56.7982ZM113.113 62.1262L110.31 56.8211L110.31 56.8211L113.113 62.1262ZM104.977 65.7262L106.701 71.4732L106.873 71.4215L107.042 71.3595L104.977 65.7262ZM102.673 66.4462L100.854 60.7287L100.814 60.7411L100.775 60.7541L102.673 66.4462ZM99.6489 67.3822L101.297 73.1514L101.297 73.1514L99.6489 67.3822ZM96.8409 67.5982L99.9278 62.4533L99.5156 62.2059L99.0692 62.0274L96.8409 67.5982ZM97.4889 66.0142L98.9441 71.8351L99.3391 71.7363L99.7172 71.5851L97.4889 66.0142ZM100.801 64.5742L103.315 70.022L103.315 70.022L100.801 64.5742ZM104.113 62.7742L100.886 57.7159L100.864 57.7296L100.843 57.7436L104.113 62.7742ZM111.817 56.5102L107.532 52.3098L107.532 52.3107L111.817 56.5102ZM117.577 48.3022L122.994 50.8818L122.994 50.8818L117.577 48.3022ZM118.945 33.6862L113.164 35.2921L113.191 35.3891L113.221 35.4852L118.945 33.6862ZM116.497 29.3662L112.254 33.6089L112.254 33.6089L116.497 29.3662ZM106.993 28.7902L104.716 23.2392L104.69 23.2497L104.665 23.2604L106.993 28.7902ZM101.593 31.5982L104.722 36.7179L104.741 36.706L104.76 36.6939L101.593 31.5982ZM97.4169 34.4782L101.165 39.1634L101.191 39.1428L101.216 39.122L97.4169 34.4782ZM94.6089 34.9102L89.094 37.2737L89.311 37.7801L89.6166 38.2384L94.6089 34.9102ZM94.2489 33.9022L100.018 32.2539L100.012 32.2315L100.005 32.2092L94.2489 33.9022ZM93.7449 31.2382L87.7523 31.5379L87.7598 31.6868L87.7746 31.8352L93.7449 31.2382ZM93.5289 28.5022L90.9155 23.1013L87.0971 24.9489L87.5656 29.1648L93.5289 28.5022ZM102.673 25.1182L101.155 19.3135L101.155 19.3135L102.673 25.1182ZM124.057 27.4222L120.337 32.1296L120.355 32.144L120.373 32.1583L124.057 27.4222ZM118.441 18.6382L119.038 24.6085L119.33 24.5793L119.618 24.5217L118.441 18.6382ZM113.977 18.4942L112.904 24.3975L113.052 24.4244L113.201 24.4438L113.977 18.4942ZM110.737 17.8462L109.282 23.6671L109.372 23.6896L109.462 23.7093L110.737 17.8462ZM108.433 17.1262L106.462 22.7932L106.499 22.806L106.535 22.8183L108.433 17.1262ZM104.833 15.8302L102.495 21.356L102.621 21.4093L102.749 21.4567L104.833 15.8302ZM101.593 14.3182L98.5866 19.5108L98.6913 19.5714L98.7984 19.6277L101.593 14.3182ZM100.801 11.9422L105.653 15.4712L105.725 15.3723L105.793 15.2704L100.801 11.9422ZM102.169 10.1422L97.6133 6.23748L97.6009 6.25199L97.5885 6.26659L102.169 10.1422ZM103.753 8.34223L99.3132 4.30619L99.3132 4.3062L103.753 8.34223ZM104.689 7.33423L101.089 2.53423L100.748 2.79007L100.446 3.09159L104.689 7.33423ZM106.633 7.11823L103.033 11.9182L103.332 12.1424L103.656 12.3277L106.633 7.11823ZM107.929 8.27023L103.506 12.3246L103.594 12.4207L103.686 12.5129L107.929 8.27023ZM109.153 9.49423L113.628 5.49813L113.515 5.37157L113.396 5.25159L109.153 9.49423ZM113.113 13.1662L109.462 17.9279L109.55 17.9952L109.64 18.0593L113.113 13.1662ZM117.577 16.1902L120.905 11.1979L120.868 11.1729L120.83 11.1484L117.577 16.1902ZM118.585 16.8382L121.765 11.7502L121.765 11.7502L118.585 16.8382ZM122.593 38.6542C122.593 41.3076 122.027 43.697 120.922 45.907L131.655 51.2735C133.622 47.3395 134.593 43.1048 134.593 38.6542H122.593ZM120.939 45.873C119.708 48.2982 118.085 50.5087 116.04 52.5146L124.442 61.0819C127.389 58.1918 129.798 54.9303 131.638 51.3074L120.939 45.873ZM115.998 52.5556C114.178 54.3754 112.281 55.7801 110.31 56.8211L115.916 67.4314C119.033 65.7844 121.887 63.637 124.484 61.0409L115.998 52.5556ZM110.31 56.8211C108.019 58.0313 105.555 59.1236 102.911 60.093L107.042 71.3595C110.159 70.2168 113.118 68.9091 115.916 67.4314L110.31 56.8211ZM103.253 59.9793C102.722 60.1387 101.913 60.3916 100.854 60.7287L104.492 72.1638C105.545 71.8288 106.272 71.6018 106.701 71.4732L103.253 59.9793ZM100.775 60.7541C99.8488 61.063 98.9239 61.3493 98.0005 61.6131L101.297 73.1514C102.39 72.8392 103.481 72.5014 104.57 72.1383L100.775 60.7541ZM98.0005 61.6131C97.5924 61.7297 97.3264 61.7927 97.1762 61.8228C97.1039 61.8372 97.0897 61.8377 97.1227 61.8336C97.1476 61.8305 97.2803 61.8142 97.4889 61.8142V73.8142C98.8508 73.8142 100.299 73.4365 101.297 73.1514L98.0005 61.6131ZM97.4889 61.8142C98.7722 61.8142 99.6362 62.2783 99.9278 62.4533L93.7539 72.7432C94.5255 73.2062 95.8215 73.8142 97.4889 73.8142V61.8142ZM99.0692 62.0274C99.7471 62.2985 100.696 62.8529 101.453 63.9128C102.233 65.0048 102.481 66.1735 102.481 67.0942H90.4809C90.4809 68.255 90.7885 69.6277 91.6885 70.8877C92.5655 72.1156 93.6946 72.8019 94.6125 73.1691L99.0692 62.0274ZM102.481 67.0942C102.481 67.8119 102.324 68.6081 101.937 69.3815C101.556 70.1434 101.049 70.6918 100.589 71.0594L93.0927 61.689C91.5394 62.9316 90.4809 64.8472 90.4809 67.0942H102.481ZM100.589 71.0594C100.507 71.1247 100.343 71.2486 100.097 71.3852C99.8542 71.5199 99.4651 71.7048 98.9441 71.8351L96.0337 60.1934C94.67 60.5343 93.6718 61.2257 93.0927 61.689L100.589 71.0594ZM99.7172 71.5851C100.799 71.1524 102.002 70.6283 103.315 70.022L98.2865 59.1265C97.1042 59.6722 96.0988 60.1081 95.2605 60.4434L99.7172 71.5851ZM103.315 70.022C104.775 69.3484 106.139 68.6133 107.383 67.8049L100.843 57.7436C100.167 58.1832 99.323 58.6481 98.2865 59.1265L103.315 70.022ZM107.34 67.8326C110.515 65.8072 113.437 63.4296 116.102 60.7098L107.532 52.3107C105.493 54.3909 103.279 56.1893 100.886 57.7159L107.34 67.8326ZM116.101 60.7107C118.955 57.8001 121.262 54.5192 122.994 50.8818L112.16 45.7226C111.012 48.1333 109.479 50.3244 107.532 52.3098L116.101 60.7107ZM122.994 50.8818C124.825 47.0376 125.737 42.9386 125.737 38.6542H113.737C113.737 41.1859 113.209 43.5189 112.16 45.7226L122.994 50.8818ZM125.737 38.6542C125.737 36.3657 125.365 34.1035 124.669 31.8873L113.221 35.4852C113.58 36.629 113.737 37.6788 113.737 38.6542H125.737ZM124.726 32.0804C123.998 29.4585 122.695 27.0792 120.739 25.1236L112.254 33.6089C112.603 33.9572 112.932 34.4579 113.164 35.2921L124.726 32.0804ZM120.74 25.1236C118.235 22.6189 115.023 21.6382 111.817 21.6382V33.6382C112.219 33.6382 112.38 33.697 112.385 33.6988C112.387 33.6998 112.366 33.6919 112.332 33.6704C112.298 33.6486 112.271 33.6255 112.254 33.6089L120.74 25.1236ZM111.817 21.6382C109.4 21.6382 106.98 22.3102 104.716 23.2392L109.27 34.3412C110.75 33.7343 111.545 33.6382 111.817 33.6382V21.6382ZM104.665 23.2604C102.534 24.1575 100.454 25.2413 98.4253 26.5025L104.76 36.6939C106.284 35.7471 107.804 34.959 109.321 34.32L104.665 23.2604ZM98.4642 26.4785C96.6025 27.6162 94.9609 28.7353 93.6174 29.8345L101.216 39.122C101.985 38.4931 103.127 37.6922 104.722 36.7179L98.4642 26.4785ZM93.6687 29.793C93.5798 29.8641 93.458 29.9544 93.2967 30.0619L99.9531 40.0465C100.368 39.7701 100.774 39.4763 101.165 39.1634L93.6687 29.793ZM93.2967 30.0619C94.1006 29.526 94.9509 29.3422 95.6169 29.3422V41.3422C97.0508 41.3422 98.5731 40.9665 99.9531 40.0465L93.2967 30.0619ZM95.6169 29.3422C95.9473 29.3422 96.5952 29.388 97.3684 29.7194C98.2071 30.0788 99.0145 30.702 99.6012 31.582L89.6166 38.2384C91.321 40.7951 93.9781 41.3422 95.6169 41.3422V29.3422ZM100.124 32.5467C100.075 32.4329 100.041 32.3355 100.018 32.2539L88.4797 35.5506C88.6484 36.141 88.8548 36.7156 89.094 37.2737L100.124 32.5467ZM100.005 32.2092C99.8832 31.795 99.7788 31.2785 99.7151 30.6412L87.7746 31.8352C87.9029 33.1179 88.1345 34.3775 88.4927 35.5952L100.005 32.2092ZM99.7374 30.9386C99.6839 29.8698 99.6029 28.8361 99.4922 27.8396L87.5656 29.1648C87.6468 29.8963 87.7098 30.6866 87.7523 31.5379L99.7374 30.9386ZM96.1422 33.9032C98.776 32.6288 101.458 31.6378 104.191 30.923L101.155 19.3135C97.648 20.2306 94.2337 21.4957 90.9155 23.1013L96.1422 33.9032ZM104.191 30.923C106.802 30.2401 109.507 29.8942 112.321 29.8942V17.8942C108.51 17.8942 104.784 18.3644 101.155 19.3135L104.191 30.923ZM112.321 29.8942C116.199 29.8942 118.684 30.8237 120.337 32.1296L127.777 22.7149C123.477 19.3167 118.138 17.8942 112.321 17.8942V29.8942ZM120.373 32.1583C121.473 33.0136 122.593 34.6915 122.593 38.6542H134.593C134.593 32.3449 132.689 26.5348 127.741 22.6861L120.373 32.1583ZM113.161 17.8462C113.161 16.9007 113.455 15.5273 114.541 14.3322C115.553 13.2197 116.706 12.8664 117.264 12.7547L119.618 24.5217C120.656 24.3141 122.169 23.7807 123.42 22.4043C124.747 20.9452 125.161 19.2238 125.161 17.8462H113.161ZM117.844 12.668C117.66 12.6864 117.52 12.6976 117.419 12.7039C117.313 12.7105 117.275 12.7102 117.289 12.7102V24.7102C117.864 24.7102 118.472 24.665 119.038 24.6085L117.844 12.668ZM117.289 12.7102C116.447 12.7102 115.602 12.6554 114.753 12.5446L113.201 24.4438C114.56 24.6211 115.923 24.7102 117.289 24.7102V12.7102ZM115.05 12.591C114.065 12.4119 113.052 12.2094 112.011 11.9832L109.462 23.7093C110.63 23.9631 111.777 24.1926 112.904 24.3975L115.05 12.591ZM112.192 12.0254C112.199 12.0271 112.16 12.0173 112.057 11.9872C111.959 11.9588 111.829 11.9195 111.663 11.8674C111.328 11.7627 110.886 11.6195 110.33 11.4341L106.535 22.8183C107.647 23.1889 108.636 23.5056 109.282 23.6671L112.192 12.0254ZM110.404 11.4593C109.344 11.0905 108.182 10.6723 106.917 10.2037L102.749 21.4567C104.076 21.9482 105.314 22.394 106.462 22.7932L110.404 11.4593ZM107.171 10.3044C106.033 9.82298 105.112 9.39032 104.387 9.00873L98.7984 19.6277C99.8973 20.2061 101.137 20.7815 102.495 21.356L107.171 10.3044ZM104.599 9.12567C104.348 8.98038 104.51 9.03828 104.81 9.33759C104.971 9.49924 105.288 9.84517 105.583 10.3892C105.889 10.9514 106.225 11.8306 106.225 12.9502H94.2249C94.2249 15.5236 95.6914 17.1901 96.3242 17.8229C97.0795 18.5782 97.9256 19.1281 98.5866 19.5108L104.599 9.12567ZM106.225 12.9502C106.225 13.5669 106.127 14.0542 106.055 14.3425C105.979 14.6469 105.892 14.8843 105.832 15.0346C105.716 15.3248 105.607 15.516 105.578 15.5671C105.517 15.6746 105.516 15.6604 105.653 15.4712L95.9484 8.41321C95.702 8.75207 95.4129 9.16983 95.1594 9.6134C95.0342 9.83243 94.8541 10.1677 94.69 10.5779C94.5715 10.874 94.2249 11.7686 94.2249 12.9502H106.225ZM105.793 15.2704C106.03 14.9149 106.343 14.4976 106.749 14.0179L97.5885 6.26659C96.9385 7.03487 96.3395 7.81755 95.8086 8.61402L105.793 15.2704ZM106.724 14.047C107.271 13.4093 107.76 12.8543 108.193 12.3783L99.3132 4.3062C98.786 4.88617 98.2187 5.53118 97.6133 6.23748L106.724 14.047ZM108.192 12.3783C108.425 12.1224 108.608 11.9235 108.744 11.7769C108.895 11.6134 108.944 11.564 108.932 11.5769L100.446 3.09159C100.181 3.35693 99.7662 3.80787 99.3132 4.30619L108.192 12.3783ZM108.289 12.1342C107.756 12.5341 106.923 12.9022 105.913 12.9022V0.902231C104.039 0.902231 102.39 1.55838 101.089 2.53423L108.289 12.1342ZM105.913 12.9022C105.17 12.9022 104.074 12.6994 103.033 11.9182L110.233 2.31824C108.807 1.24902 107.232 0.902231 105.913 0.902231V12.9022ZM103.656 12.3277C103.565 12.2759 103.492 12.2292 103.435 12.1915C103.378 12.1537 103.334 12.1217 103.303 12.0982C103.242 12.0528 103.215 12.0277 103.223 12.0347C103.229 12.0406 103.257 12.0661 103.308 12.1169C103.358 12.1671 103.424 12.2353 103.506 12.3246L112.352 4.21588C111.741 3.54941 110.792 2.58443 109.61 1.90878L103.656 12.3277ZM103.686 12.5129C104.214 13.0409 104.622 13.4489 104.91 13.7369L113.396 5.25159C113.108 4.9636 112.7 4.5556 112.172 4.0276L103.686 12.5129ZM104.677 13.4903C106.129 15.1168 107.726 16.5967 109.462 17.9279L116.763 8.4046C115.62 7.52774 114.576 6.55968 113.628 5.49813L104.677 13.4903ZM109.64 18.0593C111.198 19.1649 112.76 20.2226 114.324 21.232L120.83 11.1484C119.418 10.2378 118.003 9.27954 116.585 8.27319L109.64 18.0593ZM114.249 21.1825C114.598 21.4153 114.985 21.6639 115.405 21.9262L121.765 11.7502C121.417 11.5325 121.132 11.3492 120.905 11.1979L114.249 21.1825ZM115.405 21.9262C114.9 21.6105 114.281 21.0753 113.807 20.2471C113.327 19.4065 113.161 18.5503 113.161 17.8462H125.161C125.161 15.2276 123.801 13.0227 121.765 11.7502L115.405 21.9262Z" fill="#FFCAFA" mask="url(#path-2-outside-1_194_115)"/>
</g>
</svg>
